<?xml version="1.0" encoding="utf-8"?>
<!-- Generator: Adobe Illustrator 27.1.1, SVG Export Plug-In . SVG Version: 6.00 Build 0)  -->
<svg version="1.1" id="Layer_1" xmlns="http://www.w3.org/2000/svg" xmlns:xlink="http://www.w3.org/1999/xlink" x="0px" y="0px"
	 viewBox="0 0 345.9 44.3" style="enable-background:new 0 0 345.9 44.3;" xml:space="preserve">
<style type="text/css">
	.st0{fill:#FF9C00;}
	.st1{fill:#5503BB;}
</style>
<g>
	<g>
		<path class="st0" d="M13.7,38c2.5,0,10.1,0,10.1,0v6.3H11.2c-1.4,0-2.7-0.5-3.8-1.3c-1.8-1.4-2.5-3.7-2.3-6l1.2-11.7H0L0.6,19h6.3
			L8.3,5.9l0-0.2C9,2.8,9.9,0,14.6,0h19.4v6.3l-17.7,0c-1.8,0-1.9,0.7-2.1,3.1l-2.7,25.5C11.3,37.6,11.3,38,13.7,38z"/>
	</g>
	<g>
		<path class="st1" d="M57.3,19l-0.6,6.3l-6.3,0L49,38.5c-0.4,4.1-3,5.8-6.9,5.8h-12V38l10.8,0c1.8,0,1.9-0.9,2.2-3.1l2.6-25.5
			C46,6.6,46,6.3,43.5,6.3h-3.1V0H53l-2,19H57.3z"/>
	</g>
</g>
<g>
	<g>
		<path class="st0" d="M108.6,44.3H90.3c-1.4,0-2.7-0.4-3.8-1.3c-1.8-1.4-2.7-3.7-2.3-6l3.2-31.1l0-0.2c0.3-3,1.6-5.7,6.3-5.7h19.4
			l-0.6,6.2c0,0-14.5,0-15.7,0c-1.1,0-3.2,0.8-3.5,3.1c0,0-2.5,24-2.7,25.6c-0.3,2.6,0.6,3.1,2.8,3.1c1.7,0,15.8,0,15.8,0
			L108.6,44.3z"/>
	</g>
	<g>
		<path class="st0" d="M147,38l-0.6,6.3c-0.3,0-0.7,0-1,0c-2,0-4.3-0.2-6-2c-1.3-1.4-1.8-3.4-1.5-5.9c0.1-1.3,0.5-4.6,0.9-8.7
			c0,0,0,0,0,0c0.1-0.6-0.2-1.3-0.6-1.8c-0.4-0.4-0.9-0.6-1.5-0.6h-6.7c-3.7,0-4.1,3.5-4.1,3.5h0c-0.4,3.9-0.7,6.9-0.9,8.2
			c-0.3,3.1-1.6,5.3-3.9,6.4c-1.4,0.7-2.8,0.8-3.1,0.8c-0.2,0-2.9,0-3.1,0l0.7-6.3c2.6,0,3.2-1,3.4-3.1c0.7-7.4,3.3-31.3,3.6-34.9
			l6.3,0c0,0-1,9.9-2,19.4c0.9-0.3,1.9-0.4,3-0.5l0,0l6.7,0c1,0,2,0.2,2.9,0.6c0.9-8.5,1.8-17.4,2-19.5l6.3,0
			c0,0.2-3.4,33.5-3.6,34.9C144,37,143.9,38,147,38z"/>
	</g>
	<g>
		<path class="st0" d="M163.9,22.2L163.9,22.2C163.9,22.2,163.9,22.2,163.9,22.2L163.9,22.2z"/>
	</g>
	<g>
		<path class="st0" d="M206.9,6.2c-2.2,0-3,1.1-3.1,1.7l-2.4,23.6c-0.3,2.5-0.4,4.4-0.6,5.4c-0.4,3.9-2.4,5.7-4,6.5
			c-1.5,0.7-3,0.8-4.3,0.8c-0.3,0-1.6,0-1.8,0c-0.2,0-0.1,0-0.3,0L191,38c3.2,0,3.6-1,3.7-3.1l2.8-27.5c0.4-4,2.5-5.7,4.1-6.5
			c1.8-0.9,3.8-0.8,5.2-0.8c0.2,0,0.4,0,0.6,0L206.9,6.2z"/>
	</g>
	<g>
		<path class="st0" d="M184.8,7.3c0.4-4.3,0.7-7.3-5.5-7.3c-1.9,0-10.1,0-10.1,0c-1.4,0-3.4-0.1-5.2,0.8c-1.7,0.8-3.7,2.5-4.1,6.5
			c0,0-2.6,26.5-2.8,27.5c-0.3,2.2-1.2,3.1-3.7,3.1l-0.7,6.3c0.2,0,0.1,0,0.3,0c0.3,0,1.5,0,1.8,0c1.3,0,2.8-0.1,4.3-0.8
			c1.6-0.8,3.6-2.5,4-6.5c0.1-1,0.3-2.9,0.6-5.4l0.3-2.8l0,0l0,0l0,0v0c0.1-0.6,0.6-3.5,3.9-3.5h6.7c0.6,0,1.1,0.2,1.5,0.6
			c0.4,0.5,0.5,1.2,0.5,1.8c0,0,0,0,0,0c-0.5,4.6-0.9,8.3-0.9,8.7c-0.3,2.5,0.3,4.5,1.5,5.9c1.7,1.8,4,2,6,2c0.3,0,0.7,0,1,0
			l0.6-6.3c-3.1,0-3-1-2.7-3.2C182.1,33.5,184.2,13.3,184.8,7.3z M174.5,18.9l-6.5,0l-0.3,0c-1.1,0-1.9,0.2-2.9,0.5L166,8
			c0.2-1.5,0.2-1.7,3.1-1.7h6.3c3.2,0,3.1,0.2,3,1.7c0,0-0.6,5.4-1.2,11.5C176.3,19.1,175.5,18.9,174.5,18.9z"/>
	</g>
	<g>
		<path class="st0" d="M243.8,38l-0.6,6.3l-4.3,0c-0.2,0-0.3,0-0.5,0c-0.2,0-0.4,0-0.5,0c-2.5,0-6.8-0.4-8.6-6.7
			c-0.3-1.2-5.3-22.2-6.7-28C221.6,18,219,44,219,44.3h-6.3c0-0.3,3.5-36.3,3.5-36.3c0-0.6-0.2-1.7-3.1-1.7l0.7-6.3h6.1
			c1.5,0,3.1,0,4.7,1.1c1.4,1,2.7,2.5,3.6,5.4l7.1,29.1C236,28.8,239,0,239,0h6.3c0,0.3-3.6,34.8-3.6,34.8
			C241.4,37,241.3,38,243.8,38z"/>
	</g>
	<g>
		<path class="st1" d="M283,0l-0.6,6.2H276l-3.3,32l0,0c-0.3,3.1-1.9,6-6.6,6h-16.7l0.6-6.3l10.1,0c6.3,0,6.4-1,6.6-3.1
			c0.2-2.2,3-28.6,3-28.6h-12.6l0.6-6.2H283z"/>
	</g>
	<g>
		<path class="st1" d="M297.8,6.2l-1.4,13.4c0.7-0.5,2.2-0.7,3.8-0.7h5.9l-0.6,6.3l-5.2,0c-2.8,0-4.5,0.8-4.9,4l-0.6,5.6
			c-0.2,2.1-0.2,3.1,3.1,3.1h12.6l-0.7,6.3h-14.7c-2.3-0.1-4.1-0.8-5.3-2.1c-1.2-1.4-1.7-3.2-1.5-5.5l0,0l3.1-30.4h-2.9l0.6-6.2
			h25.2l-0.6,6.2H297.8z"/>
	</g>
	<g>
		<polygon class="st1" points="331.5,44.3 335.7,6.2 345.2,6.2 345.9,0 320.7,0 320.1,6.2 329.4,6.2 325.5,44.3 		"/>
	</g>
</g>
</svg>
