<svg width="148" height="148" viewBox="0 0 148 148" fill="none" xmlns="http://www.w3.org/2000/svg">
<circle cx="2" cy="2" r="2" fill="#E2E2E2"/>
<circle cx="2" cy="26" r="2" fill="#E2E2E2"/>
<circle cx="2" cy="50" r="2" fill="#E2E2E2"/>
<circle cx="2" cy="74" r="2" fill="#E2E2E2"/>
<circle cx="2" cy="98" r="2" fill="#E2E2E2"/>
<circle cx="2" cy="122" r="2" fill="#E2E2E2"/>
<circle cx="2" cy="146" r="2" fill="#E2E2E2"/>
<circle cx="26" cy="2" r="2" fill="#E2E2E2"/>
<circle cx="26" cy="26" r="2" fill="#E2E2E2"/>
<circle cx="26" cy="50" r="2" fill="#E2E2E2"/>
<circle cx="26" cy="74" r="2" fill="#E2E2E2"/>
<circle cx="26" cy="98" r="2" fill="#E2E2E2"/>
<circle cx="26" cy="122" r="2" fill="#E2E2E2"/>
<circle cx="26" cy="146" r="2" fill="#E2E2E2"/>
<circle cx="50" cy="2" r="2" fill="#E2E2E2"/>
<circle cx="50" cy="26" r="2" fill="#E2E2E2"/>
<circle cx="50" cy="50" r="2" fill="#E2E2E2"/>
<circle cx="50" cy="74" r="2" fill="#E2E2E2"/>
<circle cx="50" cy="98" r="2" fill="#E2E2E2"/>
<circle cx="50" cy="122" r="2" fill="#E2E2E2"/>
<circle cx="50" cy="146" r="2" fill="#E2E2E2"/>
<circle cx="74" cy="2" r="2" fill="#E2E2E2"/>
<circle cx="74" cy="26" r="2" fill="#E2E2E2"/>
<circle cx="74" cy="50" r="2" fill="#E2E2E2"/>
<circle cx="74" cy="74" r="2" fill="#E2E2E2"/>
<circle cx="74" cy="98" r="2" fill="#E2E2E2"/>
<circle cx="74" cy="122" r="2" fill="#E2E2E2"/>
<circle cx="74" cy="146" r="2" fill="#E2E2E2"/>
<circle cx="98" cy="2" r="2" fill="#E2E2E2"/>
<circle cx="98" cy="26" r="2" fill="#E2E2E2"/>
<circle cx="98" cy="50" r="2" fill="#E2E2E2"/>
<circle cx="98" cy="74" r="2" fill="#E2E2E2"/>
<circle cx="98" cy="98" r="2" fill="#E2E2E2"/>
<circle cx="98" cy="122" r="2" fill="#E2E2E2"/>
<circle cx="98" cy="146" r="2" fill="#E2E2E2"/>
<circle cx="122" cy="2" r="2" fill="#E2E2E2"/>
<circle cx="122" cy="26" r="2" fill="#E2E2E2"/>
<circle cx="122" cy="50" r="2" fill="#E2E2E2"/>
<circle cx="122" cy="74" r="2" fill="#E2E2E2"/>
<circle cx="122" cy="98" r="2" fill="#E2E2E2"/>
<circle cx="122" cy="122" r="2" fill="#E2E2E2"/>
<circle cx="122" cy="146" r="2" fill="#E2E2E2"/>
<circle cx="146" cy="2" r="2" fill="#E2E2E2"/>
<circle cx="146" cy="26" r="2" fill="#E2E2E2"/>
<circle cx="146" cy="50" r="2" fill="#E2E2E2"/>
<circle cx="146" cy="74" r="2" fill="#E2E2E2"/>
<circle cx="146" cy="98" r="2" fill="#E2E2E2"/>
<circle cx="146" cy="122" r="2" fill="#E2E2E2"/>
<circle cx="146" cy="146" r="2" fill="#E2E2E2"/>
</svg>
