<?xml version="1.0" encoding="UTF-8"?><svg id="CIRCLE_OUTLINE_BLACK" xmlns="http://www.w3.org/2000/svg" xmlns:xlink="http://www.w3.org/1999/xlink" viewBox="0 0 512 512"><defs><filter id="drop-shadow-1" filterUnits="userSpaceOnUse"><feOffset dx="11.33858" dy="7"/><feGaussianBlur result="blur" stdDeviation="5"/><feFlood flood-color="#000" flood-opacity="1"/><feComposite in2="blur" operator="in"/><feComposite in="SourceGraphic"/></filter><linearGradient id="Degradado_sin_nombre_48" x1="262.12249" y1="335.66097" x2="407.98309" y2="335.66097" gradientTransform="matrix(1, 0, 0, 1, 0, 0)" gradientUnits="userSpaceOnUse"><stop offset="0" stop-color="#4646a8"/><stop offset=".49861" stop-color="#6a67eb"/></linearGradient></defs><path d="M511.99998,256c0,141.3849-114.6151,256-256,256C114.61509,512-.00002,397.3849-.00002,256S114.61509,0,255.99998,0,511.99998,114.6151,511.99998,256Z"/><g><polygon points="326.54899 96.66723 254.00362 200.55231 218.84377 250.90139 104.01732 415.33277 174.33723 415.33277 254.00362 301.25046 289.16368 250.90139 396.8689 96.66723 326.54899 96.66723" fill="#fff" filter="url(#drop-shadow-1)"/><g><polygon points="178.48011 97.02132 108.31648 97.02132 211.99038 245.48229 247.07209 195.2449 178.48011 97.02132" fill="#fff"/><polygon points="262.12249 306.58049 337.81946 414.97863 407.98309 414.97863 297.2042 256.34332 262.12249 306.58049" fill="url(#Degradado_sin_nombre_48)"/></g></g></svg>