<?xml version="1.0" encoding="UTF-8"?><svg id="Layer_2" xmlns="http://www.w3.org/2000/svg" xmlns:xlink="http://www.w3.org/1999/xlink" viewBox="0 0 1066.86 564.59"><defs><style>.cls-1{fill:#fff;}.cls-2{fill:#ff9c00;font-family:SairaRoman-Bold, Saira;font-size:42.36px;font-variation-settings:'wght' 700, 'wdth' 100;font-weight:700;}.cls-3{stroke:url(#linear-gradient);}.cls-3,.cls-4{fill:none;stroke-miterlimit:10;stroke-width:18px;}.cls-5{fill:#efefef;}.cls-6{fill:#c498ff;}.cls-4{stroke:#d41600;}</style><linearGradient id="linear-gradient" x1="0" y1="279.22" x2="49.34" y2="279.22" gradientUnits="userSpaceOnUse"><stop offset="0" stop-color="#5503bb" stop-opacity="0"/><stop offset=".62" stop-color="#c498ff"/></linearGradient></defs><g id="Layer_1-2"><path class="cls-1" d="m75.09,554.89c-36.88,0-52.79-30.33-50.14-59.71L75.22,60.59c7.18-44.18,14.54-52.31,90.89-52.31h604.59s-54.36,497.43-54.36,497.43c-4.42,32.47-44.65,49.18-88.56,49.18H75.09Z"/><path class="cls-6" d="m331.2,564.59H76.4c-17.64,0-32.61-6.18-43.3-17.88-11.76-12.87-14.4-34.74-12.6-54.59L66.61,59.74C74.13,13.46,84,0,134.85,0l359.98.18v18.15s-359.99-.18-359.99-.18c-39.38,0-43.67,3.73-50.28,44.28l-46.01,431.5c-1.32,14.6-.39,31.41,7.95,40.53,7.26,7.95,17.32,11.98,29.9,11.98h254.79v18.15Z"/><line class="cls-3" x1="49.34" y1="279.22" y2="279.22"/><path class="cls-5" d="m893.76,402.78h-72c-19.99,0-28.6-16.44-27.17-32.36l20.05-180.21c3.89-23.94,7.88-28.35,32.24-28.35l111.62.1,40.7-.1h57.67l-22.26,214.26c-2.39,17.59-7.18,26.65-30.97,26.65h-109.88Z"/><path class="cls-4" d="m958.5,161.96l-111.62-.1c-24.36,0-28.35,4.41-32.24,28.35l-20.05,180.21c-1.44,15.92,7.18,32.36,27.17,32.36h72"/><path class="cls-4" d="m934.18,402.78h69.46c23.79,0,28.58-9.06,30.97-26.65l22.26-214.26h-57.67"/><text class="cls-2" transform="translate(840.27 267)"><tspan x="0" y="0">COMING </tspan><tspan x="29.4" y="50.84">SOON</tspan></text><line class="cls-4" x1="742.22" y1="279.22" x2="804.74" y2="279.22"/><path class="cls-6" d="m658.87,564.59h-206.42v-18.15h206.42c38.35,0,44.07-12.54,47.96-41.15l49.77-487.13h-142.88V0h163.01l-51.88,507.44c-4.93,36.3-17.29,57.14-65.98,57.14Z"/></g></svg>