<?xml version="1.0" encoding="UTF-8"?><svg id="Layer_2" xmlns="http://www.w3.org/2000/svg" xmlns:xlink="http://www.w3.org/1999/xlink" viewBox="0 0 760 461.15"><defs><style>.cls-1{fill:#fff;}.cls-2{stroke:url(#linear-gradient-2);}.cls-2,.cls-3{fill:none;stroke-miterlimit:10;stroke-width:18px;}.cls-3{stroke:url(#linear-gradient);}.cls-4{fill:#c498ff;}</style><linearGradient id="linear-gradient" x1="0" y1="215.34" x2="49.34" y2="215.34" gradientUnits="userSpaceOnUse"><stop offset="0" stop-color="#5503bb" stop-opacity="0"/><stop offset=".62" stop-color="#c498ff"/></linearGradient><linearGradient id="linear-gradient-2" x1="-2665.06" y1="1005.33" x2="-2615.72" y2="1005.33" gradientTransform="translate(-1905.06 1220.67) rotate(-180)" xlink:href="#linear-gradient"/></defs><g id="Layer_1-2"><path class="cls-1" d="m79.7,452.88c-36.88,0-52.79-30.33-50.14-59.71L66.56,60.59c7.18-44.18,14.54-52.31,59.49-52.31h604.59s-41.08,395.42-41.08,395.42c-4.42,32.47-13.25,49.18-57.16,49.18H79.7Z"/><path class="cls-4" d="m334.79,461.15H79.99c-17.64,0-32.61-6.18-43.3-17.88-11.76-12.87-17.48-31.65-15.69-51.51L57.95,59.74C65.47,13.46,75.33,0,126.18,0l359.98.18v18.15s-359.99-.18-359.99-.18c-39.38,0-43.67,3.73-50.28,44.28l-36.84,331.16c-1.32,14.6,2.7,28.32,11.03,37.44,7.26,7.95,17.32,11.98,29.9,11.98h254.79v18.15Z"/><line class="cls-3" x1="49.34" y1="215.34" y2="215.34"/><path class="cls-4" d="m631.55,461.15h-206.42v-18.15h206.42c38.35,0,44.07-12.54,47.96-41.15l39.86-383.7h-142.88V0h163.01l-41.98,404c-4.93,36.3-17.29,57.14-65.98,57.14Z"/><line class="cls-2" x1="710.65" y1="215.34" x2="760" y2="215.34"/></g></svg>