<svg width="20" height="20" viewBox="0 0 20 20" fill="none" xmlns="http://www.w3.org/2000/svg">
<path d="M9.99996 1.66699C12.2641 1.66699 12.5466 1.67533 13.435 1.71699C14.3225 1.75866 14.9266 1.89783 15.4583 2.10449C16.0083 2.31616 16.4716 2.60283 16.935 3.06533C17.3587 3.48191 17.6866 3.98582 17.8958 4.54199C18.1016 5.07283 18.2416 5.67783 18.2833 6.56533C18.3225 7.45366 18.3333 7.73616 18.3333 10.0003C18.3333 12.2645 18.325 12.547 18.2833 13.4353C18.2416 14.3228 18.1016 14.927 17.8958 15.4587C17.6872 16.0151 17.3592 16.5192 16.935 16.9353C16.5183 17.3589 16.0144 17.6868 15.4583 17.8962C14.9275 18.102 14.3225 18.242 13.435 18.2837C12.5466 18.3228 12.2641 18.3337 9.99996 18.3337C7.73579 18.3337 7.45329 18.3253 6.56496 18.2837C5.67746 18.242 5.07329 18.102 4.54163 17.8962C3.98523 17.6874 3.48123 17.3594 3.06496 16.9353C2.64113 16.5188 2.31324 16.0149 2.10413 15.4587C1.89746 14.9278 1.75829 14.3228 1.71663 13.4353C1.67746 12.547 1.66663 12.2645 1.66663 10.0003C1.66663 7.73616 1.67496 7.45366 1.71663 6.56533C1.75829 5.67699 1.89746 5.07366 2.10413 4.54199C2.31266 3.98548 2.64063 3.48143 3.06496 3.06533C3.48135 2.64135 3.98532 2.31343 4.54163 2.10449C5.07329 1.89783 5.67663 1.75866 6.56496 1.71699C7.45329 1.67783 7.73579 1.66699 9.99996 1.66699ZM9.99996 5.83366C8.89489 5.83366 7.83508 6.27265 7.05368 7.05405C6.27228 7.83545 5.83329 8.89526 5.83329 10.0003C5.83329 11.1054 6.27228 12.1652 7.05368 12.9466C7.83508 13.728 8.89489 14.167 9.99996 14.167C11.105 14.167 12.1648 13.728 12.9462 12.9466C13.7276 12.1652 14.1666 11.1054 14.1666 10.0003C14.1666 8.89526 13.7276 7.83545 12.9462 7.05405C12.1648 6.27265 11.105 5.83366 9.99996 5.83366ZM15.4166 5.62533C15.4166 5.34906 15.3069 5.08411 15.1115 4.88876C14.9162 4.69341 14.6512 4.58366 14.375 4.58366C14.0987 4.58366 13.8337 4.69341 13.6384 4.88876C13.443 5.08411 13.3333 5.34906 13.3333 5.62533C13.3333 5.90159 13.443 6.16654 13.6384 6.3619C13.8337 6.55725 14.0987 6.66699 14.375 6.66699C14.6512 6.66699 14.9162 6.55725 15.1115 6.3619C15.3069 6.16654 15.4166 5.90159 15.4166 5.62533ZM9.99996 7.50033C10.663 7.50033 11.2989 7.76372 11.7677 8.23256C12.2366 8.7014 12.5 9.33728 12.5 10.0003C12.5 10.6634 12.2366 11.2993 11.7677 11.7681C11.2989 12.2369 10.663 12.5003 9.99996 12.5003C9.33692 12.5003 8.70103 12.2369 8.23219 11.7681C7.76335 11.2993 7.49996 10.6634 7.49996 10.0003C7.49996 9.33728 7.76335 8.7014 8.23219 8.23256C8.70103 7.76372 9.33692 7.50033 9.99996 7.50033Z" fill="black"/>
</svg>
