<svg width="100" height="100" viewBox="0 0 100 100" fill="none" xmlns="http://www.w3.org/2000/svg">
<rect width="100" height="100" rx="50" fill="#023BA5"/>
<path d="M39.584 67V61.104C42.312 58.8747 44.512 56.9973 46.184 55.472C47.856 53.9173 49.132 52.5973 50.012 51.512C50.9213 50.4267 51.5373 49.4587 51.86 48.608C52.1827 47.728 52.344 46.848 52.344 45.968C52.344 44.7653 51.9627 43.8853 51.2 43.328C50.4373 42.7413 49.352 42.448 47.944 42.448C46.272 42.448 44.776 42.668 43.456 43.108C42.136 43.5187 40.904 43.9733 39.76 44.472L39.188 36.948C40.508 36.3613 41.9747 35.848 43.588 35.408C45.2013 34.968 47.064 34.748 49.176 34.748C51.5813 34.748 53.5613 35.144 55.116 35.936C56.7 36.6987 57.8733 37.784 58.636 39.192C59.3987 40.5707 59.78 42.1693 59.78 43.988C59.78 45.2787 59.604 46.5107 59.252 47.684C58.9293 48.828 58.3427 50.016 57.492 51.248C56.6707 52.48 55.512 53.844 54.016 55.34C52.5493 56.8067 50.672 58.4933 48.384 60.4H60.308V67H39.584Z" fill="white"/>
</svg>
