<svg width="100" height="100" viewBox="0 0 100 100" fill="none" xmlns="http://www.w3.org/2000/svg">
<rect width="100" height="100" rx="50" fill="#023BA5"/>
<path d="M38.924 66.076L39.496 59.476C40.6107 59.8867 41.8427 60.2093 43.192 60.444C44.5707 60.6787 46.0227 60.796 47.548 60.796C49.3667 60.796 50.7013 60.488 51.552 59.872C52.4027 59.256 52.828 58.376 52.828 57.232C52.828 56.0293 52.344 55.208 51.376 54.768C50.4373 54.2987 49.0733 54.064 47.284 54.064H44.556V48.256H46.712C48.384 48.256 49.6893 48.0067 50.628 47.508C51.596 47.0093 52.08 46.2613 52.08 45.264C52.08 44.3253 51.6987 43.6213 50.936 43.152C50.2027 42.6827 49.1027 42.448 47.636 42.448C46.1107 42.448 44.688 42.6387 43.368 43.02C42.048 43.372 40.8453 43.7827 39.76 44.252L39.188 36.728C40.4787 36.2 41.8867 35.7453 43.412 35.364C44.9373 34.9533 46.7853 34.748 48.956 34.748C52.3 34.748 54.8667 35.4667 56.656 36.904C58.4747 38.312 59.384 40.3507 59.384 43.02C59.384 44.6333 59.0173 45.9973 58.284 47.112C57.5507 48.2267 56.568 49.136 55.336 49.84C56.832 50.4853 58.0053 51.468 58.856 52.788C59.7067 54.108 60.132 55.7653 60.132 57.76C60.132 59.872 59.6333 61.6613 58.636 63.128C57.6387 64.5947 56.2747 65.7093 54.544 66.472C52.8133 67.2053 50.8187 67.572 48.56 67.572C47.2107 67.572 46.0227 67.528 44.996 67.44C43.9693 67.352 42.972 67.1907 42.004 66.956C41.0653 66.7213 40.0387 66.428 38.924 66.076Z" fill="white"/>
</svg>
