<svg width="61" height="59" viewBox="0 0 61 59" fill="none" xmlns="http://www.w3.org/2000/svg">
<mask id="mask0_222_5527" style="mask-type:alpha" maskUnits="userSpaceOnUse" x="20" y="19" width="41" height="40">
<rect x="61" y="19.2037" width="39.7469" height="40.1018" transform="rotate(90 61 19.2037)" fill="#023BA5"/>
</mask>
<g mask="url(#mask0_222_5527)">
<path d="M21.2531 58.9507C26.4727 58.9507 31.6413 57.9226 36.4636 55.9252C41.2859 53.9277 45.6676 51 49.3584 47.3091C53.0492 43.6183 55.977 39.2366 57.9744 34.4143C59.9719 29.592 61 24.4235 61 19.2038L21.2531 19.2038L21.2531 58.9507Z" fill="#023BA5"/>
</g>
<mask id="mask1_222_5527" style="mask-type:alpha" maskUnits="userSpaceOnUse" x="0" y="0" width="29" height="29">
<rect x="28.4927" width="28.2407" height="28.4929" transform="rotate(90 28.4927 0)" fill="#023BA5"/>
</mask>
<g mask="url(#mask1_222_5527)">
<path d="M0.25197 28.2408C3.96059 28.2408 7.6329 27.5103 11.0592 26.0911C14.4855 24.6719 17.5988 22.5917 20.2212 19.9693C22.8436 17.3469 24.9238 14.2337 26.343 10.8074C27.7622 7.38103 28.4927 3.70872 28.4927 0.000101089L0.251971 0.000101762L0.25197 28.2408Z" fill="#023BA5"/>
</g>
</svg>
