<?xml version="1.0" encoding="UTF-8"?><svg id="Layer_2" xmlns="http://www.w3.org/2000/svg" viewBox="0 0 840.01 188.18"><defs><style>.cls-1{fill:#ff9c00;}</style></defs><g id="Layer_1-2"><path class="cls-1" d="m78.96,188.18H27.43c-8.12,0-15.05-2.9-20.06-8.37-5.4-5.91-8.03-14.43-7.23-23.37l.02-.16L14.53,27.09l.03-.2c1.35-8.3,3.01-16.16,8.53-21.15C28.39.96,35.56,0,45.41,0l79.9.07v15.75s-79.91-.07-79.91-.07c-4.24,0-10.07.17-11.74,1.69-1.84,1.66-3,8.62-3.52,11.8l-14.32,128.7c-.38,4.45.8,8.66,3.18,11.25,1.97,2.16,4.81,3.25,8.43,3.25h51.53v15.75Z"/><path class="cls-1" d="m308.49,157.93c-.4,4.44.8,8.65,3.17,11.24,1.95,2.16,4.8,3.27,8.42,3.27h51.54v15.73h-51.54c-8.11,0-15.05-2.89-20.06-8.37-5.38-5.9-8.02-14.41-7.22-23.37l.02-.16,6.04-54.31h-105.03l-6.28,60.33c-2.09,15.54-8.02,25.89-29.96,25.89h-49.71v-15.73h49.71c5.81,0,9.59-.85,11.26-2.52,1.43-1.43,2.35-4.33,3.08-9.64l15.02-144.53h-32.54V0h50.01l-8.96,86.22h105.12l6.58-59.13.02-.19c1.34-8.3,3.01-16.15,8.53-21.14C321.04.96,328.22,0,338.07,0l79.9.07v15.75l-79.9-.07c-4.26,0-10.09.16-11.76,1.67-1.83,1.67-2.99,8.63-3.5,11.8l-14.32,128.71Z"/><path class="cls-1" d="m573.57,157.93c-.4,4.44.8,8.65,3.17,11.24,1.98,2.16,4.8,3.27,8.44,3.27h51.52v15.73h-51.52c-8.14,0-15.07-2.89-20.08-8.37-5.38-5.9-8.02-14.41-7.22-23.37l.02-.16,6.04-54.31h-77.45l-6.28,60.33c-2.12,15.54-8.02,25.89-29.96,25.89h-49.71v-15.73h49.71c5.81,0,9.59-.85,11.26-2.52,1.43-1.43,2.35-4.33,3.08-9.64l15.02-144.53h-32.54V0h50.01l-8.96,86.22h77.54l6.58-59.13.02-.19c1.36-8.3,3.03-16.15,8.53-21.14C586.15.96,593.3,0,603.15,0l79.9.07v15.75l-79.9-.07c-4.23,0-10.06.16-11.76,1.67-1.83,1.67-2.99,8.63-3.5,11.8l-14.32,128.71Z"/><path class="cls-1" d="m840.01,86.22v15.73h-88.41l-6.28,60.33c-2.12,15.54-8.02,25.89-29.98,25.89h-49.71v-15.73h49.71c5.81,0,9.59-.85,11.26-2.52,1.43-1.43,2.35-4.33,3.08-9.64l15.02-144.53h-32.54V0h50.01l-8.96,86.22h86.78Z"/><path class="cls-1" d="m78.9,139.74c-6.58,0-13.16-2.51-18.18-7.52l-19.47-19.47,19.74-19.74,17.91,17.91,64.45-64.45,19.74,19.74-66.01,66.01c-5.01,5.01-11.59,7.52-18.18,7.52Z"/><path class="cls-1" d="m373.71,139.74c-6.58,0-13.16-2.5-18.18-7.52l-19.47-19.47,19.74-19.74,17.91,17.91,64.45-64.45,19.74,19.74-66.01,66.01c-5.01,5.01-11.59,7.52-18.18,7.52Z"/><path class="cls-1" d="m639.44,139.74c-6.58,0-13.16-2.51-18.18-7.52l-19.47-19.47,19.74-19.74,17.91,17.91,64.44-64.45,19.74,19.74-66.01,66.01c-5.01,5.01-11.59,7.52-18.18,7.52Z"/></g></svg>