<svg width="25" height="24" viewBox="0 0 25 24" fill="none" xmlns="http://www.w3.org/2000/svg">
<path d="M10.0117 6V8H5.01172V19H16.0117V14H18.0117V20C18.0117 20.2652 17.9064 20.5196 17.7188 20.7071C17.5313 20.8946 17.2769 21 17.0117 21H4.01172C3.7465 21 3.49215 20.8946 3.30461 20.7071C3.11708 20.5196 3.01172 20.2652 3.01172 20V7C3.01172 6.73478 3.11708 6.48043 3.30461 6.29289C3.49215 6.10536 3.7465 6 4.01172 6H10.0117ZM21.0117 3V11H19.0117V6.413L11.2187 14.207L9.80472 12.793L17.5967 5H13.0117V3H21.0117Z" fill="black"/>
</svg>
