<svg width="22" height="22" viewBox="0 0 22 22" fill="none" xmlns="http://www.w3.org/2000/svg">
<path d="M17.4167 9.16671H18.3333C18.5764 9.16671 18.8096 9.26328 18.9815 9.43519C19.1534 9.6071 19.25 9.84026 19.25 10.0834V19.25C19.25 19.4932 19.1534 19.7263 18.9815 19.8982C18.8096 20.0701 18.5764 20.1667 18.3333 20.1667H3.66667C3.42355 20.1667 3.19039 20.0701 3.01849 19.8982C2.84658 19.7263 2.75 19.4932 2.75 19.25V10.0834C2.75 9.84026 2.84658 9.6071 3.01849 9.43519C3.19039 9.26328 3.42355 9.16671 3.66667 9.16671H4.58333V8.25004C4.58333 7.40739 4.74931 6.57299 5.07177 5.79449C5.39424 5.01598 5.86689 4.30861 6.46273 3.71277C7.05857 3.11693 7.76594 2.64428 8.54445 2.32181C9.32295 1.99935 10.1574 1.83337 11 1.83337C11.8426 1.83337 12.677 1.99935 13.4556 2.32181C14.2341 2.64428 14.9414 3.11693 15.5373 3.71277C16.1331 4.30861 16.6058 5.01598 16.9282 5.79449C17.2507 6.57299 17.4167 7.40739 17.4167 8.25004V9.16671ZM15.5833 9.16671V8.25004C15.5833 7.03447 15.1004 5.86868 14.2409 5.00913C13.3814 4.14959 12.2156 3.66671 11 3.66671C9.78442 3.66671 8.61864 4.14959 7.75909 5.00913C6.89955 5.86868 6.41667 7.03447 6.41667 8.25004V9.16671H15.5833ZM10.0833 12.8334V16.5H11.9167V12.8334H10.0833Z" fill="black"/>
</svg>
