<svg width="22" height="22" viewBox="0 0 22 22" fill="none" xmlns="http://www.w3.org/2000/svg">
<path d="M2.74967 2.75H19.2497C19.4928 2.75 19.7259 2.84658 19.8979 3.01849C20.0698 3.19039 20.1663 3.42355 20.1663 3.66667V18.3333C20.1663 18.5764 20.0698 18.8096 19.8979 18.9815C19.7259 19.1534 19.4928 19.25 19.2497 19.25H2.74967C2.50656 19.25 2.2734 19.1534 2.10149 18.9815C1.92958 18.8096 1.83301 18.5764 1.83301 18.3333V3.66667C1.83301 3.42355 1.92958 3.19039 2.10149 3.01849C2.2734 2.84658 2.50656 2.75 2.74967 2.75ZM11.0547 10.7094L5.17701 5.71817L3.98992 7.11517L11.0666 13.1239L18.0158 7.11058L16.8168 5.72367L11.0556 10.7094H11.0547Z" fill="black"/>
</svg>
