<svg width="20" height="20" viewBox="0 0 20 20" fill="none" xmlns="http://www.w3.org/2000/svg">
<path d="M18.4684 4.71376C17.8322 4.99517 17.1575 5.17999 16.4667 5.26209C17.1948 4.82662 17.7398 4.14127 18 3.33376C17.3167 3.74043 16.5675 4.02543 15.7867 4.17959C15.2622 3.61841 14.567 3.24623 13.8092 3.12091C13.0513 2.9956 12.2733 3.12417 11.5961 3.48664C10.9189 3.84911 10.3804 4.42516 10.0643 5.12525C9.74825 5.82534 9.67233 6.61024 9.84838 7.35793C8.46263 7.28847 7.10699 6.92836 5.86945 6.30098C4.63191 5.6736 3.54015 4.79297 2.66504 3.71626C2.35529 4.2483 2.19251 4.85312 2.19338 5.46876C2.19338 6.67709 2.80838 7.74459 3.74338 8.36959C3.19005 8.35217 2.6489 8.20274 2.16504 7.93376V7.97709C2.16521 8.78184 2.44369 9.56177 2.95325 10.1846C3.46282 10.8075 4.17211 11.235 4.96088 11.3946C4.44722 11.5338 3.90863 11.5543 3.38588 11.4546C3.60827 12.1473 4.04172 12.7531 4.62554 13.1872C5.20936 13.6213 5.91432 13.8619 6.64171 13.8754C5.91878 14.4432 5.09103 14.8629 4.20578 15.1106C3.32053 15.3582 2.39515 15.429 1.48254 15.3188C3.07563 16.3433 4.93012 16.8872 6.82421 16.8854C13.235 16.8854 16.7409 11.5746 16.7409 6.96876C16.7409 6.81876 16.7367 6.66709 16.73 6.51876C17.4124 6.02557 18.0014 5.41461 18.4692 4.71459L18.4684 4.71376Z" fill="black"/>
</svg>
