<?xml version="1.0" encoding="utf-8"?>
<!-- Generator: Adobe Illustrator 26.5.0, SVG Export Plug-In . SVG Version: 6.00 Build 0)  -->
<svg version="1.1" xmlns="http://www.w3.org/2000/svg" xmlns:xlink="http://www.w3.org/1999/xlink" x="0px" y="0px"
	 viewBox="0 0 491.7 951.3" style="enable-background:new 0 0 491.7 951.3;" xml:space="preserve">
<style type="text/css">
	.st0{display:none;}
	.st1{display:inline;fill:#BFBFBF;}
	.st2{fill:#333333;}
	.st3{fill:#FFFFFF;}
	.st4{fill:none;stroke:#C7C8CA;stroke-miterlimit:10;stroke-dasharray:4.1007,4.1007;}
	.st5{fill:#D1D3D4;}
	.st6{opacity:0.86;}
	.st7{fill:#0068FF;}
	.st8{fill:#7F7F7F;}
	.st9{fill:#188FFF;}
	.st10{fill:#FF007A;}
	.st11{fill-rule:evenodd;clip-rule:evenodd;fill:#FF007A;}
</style>
<g id="fondo" class="st0">
	<rect class="st1" width="491.7" height="951.3"/>
</g>
<g id="cuadros_blancos">
	<g>
		<path class="st2" d="M245.4,515.2c-0.1-0.4-3.5-9.2-2-36.4c0.5-8.7,1.6-16.4,2.6-23.2c2.1-14.2,3.6-24.5-2.7-32.4l3.9-3.1
			c7.7,9.6,6,21.4,3.8,36.3c-1,6.7-2.1,14.2-2.5,22.7c-1.4,25.8,1.7,34.3,1.7,34.4L245.4,515.2z"/>
	</g>
	<g>
		<circle class="st3" cx="245.9" cy="450" r="19.6"/>
		
			<ellipse transform="matrix(0.2298 -0.9732 0.9732 0.2298 -248.5762 585.9033)" class="st4" cx="245.9" cy="450" rx="19.6" ry="19.6"/>
	</g>
	<g>
		<g>
			<rect x="244.9" y="440.5" width="2" height="19.9"/>
		</g>
		<g>
			<rect x="236.7" y="449" width="18.3" height="2"/>
		</g>
	</g>
	<g>
		<path class="st2" d="M245.4,277.8c-0.1-0.4-3.5-9.2-2-36.4c0.5-8.7,1.6-16.4,2.6-23.2c2.1-14.2,3.6-24.5-2.7-32.4l3.9-3.1
			c7.7,9.6,6,21.4,3.8,36.3c-1,6.7-2.1,14.2-2.5,22.7c-1.4,25.8,1.7,34.3,1.7,34.4L245.4,277.8z"/>
	</g>
	<rect x="98.6" y="262.4" class="st3" width="296.6" height="161.3"/>
	<rect x="98.6" y="24.3" class="st3" width="296.6" height="161.3"/>
	<g>
		<g>
			<rect x="98.6" y="352" class="st5" width="296.6" height="2"/>
		</g>
		<g>
			<rect x="244.6" y="372.2" class="st5" width="4" height="40.2"/>
		</g>
		<g class="st6">
			<rect x="161.3" y="397.9" class="st7" width="16.5" height="3"/>
		</g>
		<g>
			<path class="st7" d="M168.9,397.2h-5.9v-5.5l10.4-10.2l5.3,5.3L168.9,397.2z M166.1,394.2h1.6l7-7.4l-1.1-1.1l-7.4,7.3V394.2z"/>
		</g>
		<g>
			<path class="st7" d="M330.7,400.8h-15.3v-15.3h15.3V400.8z M318.4,397.8h9.3v-9.3h-9.3V397.8z"/>
		</g>
		<g>
			<path class="st7" d="M332.1,388.5h-18v-3h3.3l0-3.5h11.5v3.5h3.2V388.5z M320.4,385.5h5.5V385h-5.5L320.4,385.5z"/>
		</g>
	</g>
	<g>
		<g>
			<rect x="98.6" y="113.7" class="st5" width="296.6" height="2"/>
		</g>
		<g>
			<rect x="244.6" y="134" class="st5" width="4" height="40.2"/>
		</g>
		<g class="st6">
			<rect x="161.3" y="159.7" class="st7" width="16.5" height="3"/>
		</g>
		<g>
			<path class="st7" d="M168.9,159h-5.9v-5.5l10.4-10.2l5.3,5.3L168.9,159z M166.1,156h1.6l7-7.4l-1.1-1.1l-7.4,7.3V156z"/>
		</g>
		<g>
			<path class="st7" d="M330.7,162.6h-15.3v-15.3h15.3V162.6z M318.4,159.6h9.3v-9.3h-9.3V159.6z"/>
		</g>
		<g>
			<path class="st7" d="M332.1,150.3h-18v-3h3.3l0-3.5h11.5v3.5h3.2V150.3z M320.4,147.3h5.5v-0.5h-5.5L320.4,147.3z"/>
		</g>
	</g>
	<g>
		<circle class="st3" cx="245.9" cy="212.6" r="19.6"/>
		
			<ellipse transform="matrix(0.2298 -0.9732 0.9732 0.2298 -17.4833 403.0122)" class="st4" cx="245.9" cy="212.6" rx="19.6" ry="19.6"/>
	</g>
	<g>
		<g>
			<rect x="244.9" y="203" width="2" height="19.9"/>
		</g>
		<g>
			<rect x="236.7" y="211.6" width="18.3" height="2"/>
		</g>
	</g>
	<g>
		<path d="M203,53.9c0,1.4-0.5,2.4-1.5,3.2c-1,0.8-2.3,1.2-4.1,1.2c-1.6,0-3-0.3-4.2-0.9v-3c1,0.5,1.9,0.8,2.6,1s1.3,0.3,1.9,0.3
			c0.7,0,1.2-0.1,1.6-0.4s0.6-0.7,0.6-1.2c0-0.3-0.1-0.6-0.2-0.8c-0.2-0.2-0.4-0.4-0.7-0.7c-0.3-0.2-1-0.6-1.9-1
			c-0.9-0.4-1.6-0.8-2.1-1.2s-0.8-0.9-1.1-1.4s-0.4-1.1-0.4-1.8c0-1.3,0.4-2.4,1.3-3.1s2.1-1.1,3.7-1.1c0.8,0,1.5,0.1,2.2,0.3
			c0.7,0.2,1.4,0.4,2.2,0.8l-1,2.5c-0.8-0.3-1.5-0.6-2-0.7c-0.5-0.1-1-0.2-1.5-0.2c-0.6,0-1.1,0.1-1.4,0.4s-0.5,0.6-0.5,1.1
			c0,0.3,0.1,0.5,0.2,0.7c0.1,0.2,0.3,0.4,0.6,0.6c0.3,0.2,1,0.5,2,1.1c1.4,0.7,2.4,1.3,2.9,2C202.7,52.1,203,53,203,53.9z"/>
		<path d="M209.1,58.3c-3.6,0-5.4-2-5.4-5.9c0-1.9,0.5-3.4,1.5-4.5s2.4-1.5,4.2-1.5c1.3,0,2.5,0.3,3.6,0.8l-0.9,2.4
			c-0.5-0.2-1-0.4-1.4-0.5s-0.8-0.2-1.3-0.2c-1.6,0-2.4,1.2-2.4,3.5c0,2.2,0.8,3.4,2.4,3.4c0.6,0,1.2-0.1,1.7-0.2s1-0.4,1.5-0.8v2.7
			c-0.5,0.3-1,0.5-1.5,0.7S209.9,58.3,209.1,58.3z"/>
		<path d="M224.7,58.1h-3.1v-6.7c0-1.7-0.6-2.5-1.8-2.5c-0.9,0-1.5,0.3-1.9,0.9s-0.6,1.6-0.6,2.9v5.4h-3.1v-16h3.1v3.3
			c0,0.3,0,0.8-0.1,1.8l-0.1,0.9h0.2c0.7-1.1,1.8-1.7,3.3-1.7c1.3,0,2.4,0.4,3.1,1.1s1,1.8,1,3.1V58.1z"/>
		<path d="M232.1,58.3c-1.8,0-3.3-0.5-4.3-1.5s-1.6-2.5-1.6-4.3c0-1.9,0.5-3.4,1.4-4.5c1-1,2.3-1.6,4-1.6c1.6,0,2.9,0.5,3.8,1.4
			s1.4,2.2,1.4,3.8v1.5h-7.4c0,0.9,0.3,1.6,0.8,2.1s1.2,0.7,2.1,0.7c0.7,0,1.3-0.1,2-0.2s1.3-0.4,1.9-0.7v2.4
			c-0.5,0.3-1.1,0.5-1.8,0.6C233.8,58.2,233,58.3,232.1,58.3z M231.7,48.7c-0.7,0-1.2,0.2-1.6,0.6c-0.4,0.4-0.6,1-0.6,1.8h4.4
			c0-0.8-0.2-1.4-0.6-1.8C232.8,48.9,232.3,48.7,231.7,48.7z"/>
		<path d="M241.9,58.3c-1.3,0-2.4-0.5-3.2-1.6c-0.8-1-1.2-2.5-1.2-4.3c0-1.9,0.4-3.3,1.2-4.4c0.8-1,1.9-1.6,3.2-1.6
			c1.4,0,2.5,0.6,3.3,1.7h0.1c-0.2-0.9-0.2-1.6-0.2-2.3v-3.7h3.1v16h-2.4l-0.6-1.5h-0.1C244.4,57.8,243.4,58.3,241.9,58.3z
			 M243,55.8c0.8,0,1.4-0.2,1.8-0.7c0.4-0.5,0.6-1.3,0.6-2.4v-0.3c0-1.2-0.2-2.1-0.6-2.6c-0.4-0.5-1-0.8-1.9-0.8
			c-0.7,0-1.2,0.3-1.6,0.9c-0.4,0.6-0.6,1.5-0.6,2.6s0.2,2,0.6,2.5C241.7,55.5,242.3,55.8,243,55.8z"/>
		<path d="M258.6,58.1l-0.4-1.5H258c-0.3,0.5-0.8,0.9-1.4,1.2c-0.6,0.3-1.3,0.4-2.1,0.4c-1.3,0-2.4-0.4-3-1.1c-0.7-0.7-1-1.8-1-3.1
			v-7.5h3.1v6.7c0,0.8,0.1,1.4,0.4,1.9c0.3,0.4,0.8,0.6,1.4,0.6c0.9,0,1.5-0.3,1.9-0.9c0.4-0.6,0.6-1.6,0.6-2.9v-5.4h3.1v11.5H258.6
			z"/>
		<path d="M266.4,58.1h-3.1v-16h3.1V58.1z"/>
		<path d="M273.8,58.3c-1.8,0-3.3-0.5-4.3-1.5s-1.6-2.5-1.6-4.3c0-1.9,0.5-3.4,1.4-4.5c1-1,2.3-1.6,4-1.6c1.6,0,2.9,0.5,3.8,1.4
			s1.4,2.2,1.4,3.8v1.5h-7.4c0,0.9,0.3,1.6,0.8,2.1s1.2,0.7,2.1,0.7c0.7,0,1.3-0.1,2-0.2s1.3-0.4,1.9-0.7v2.4
			c-0.5,0.3-1.1,0.5-1.8,0.6C275.5,58.2,274.7,58.3,273.8,58.3z M273.4,48.7c-0.7,0-1.2,0.2-1.6,0.6c-0.4,0.4-0.6,1-0.6,1.8h4.4
			c0-0.8-0.2-1.4-0.6-1.8C274.6,48.9,274,48.7,273.4,48.7z"/>
	</g>
	<g>
		<path class="st8" d="M201.2,96h-7.3V83.1h7.3v1.8H196v3.5h4.8v1.8H196v4h5.2V96z"/>
		<path class="st8" d="M205.1,96l-3.7-9.7h2.2l2,5.7c0.3,0.9,0.5,1.7,0.6,2.3h0.1c0.1-0.4,0.3-1.2,0.6-2.3l2-5.7h2.2l-3.7,9.7H205.1
			z"/>
		<path class="st8" d="M215.9,96.2c-1.5,0-2.7-0.4-3.5-1.3s-1.3-2.1-1.3-3.6c0-1.6,0.4-2.8,1.2-3.7s1.9-1.4,3.3-1.4
			c1.3,0,2.3,0.4,3,1.2s1.1,1.9,1.1,3.2v1.1h-6.5c0,0.9,0.3,1.7,0.8,2.2s1.2,0.8,2,0.8c0.6,0,1.1-0.1,1.6-0.2s1-0.3,1.6-0.5v1.7
			c-0.5,0.2-1,0.4-1.5,0.5S216.5,96.2,215.9,96.2z M215.5,87.7c-0.7,0-1.2,0.2-1.6,0.6s-0.6,1-0.7,1.8h4.4c0-0.8-0.2-1.4-0.6-1.8
			S216.1,87.7,215.5,87.7z"/>
		<path class="st8" d="M226,86.1c0.4,0,0.8,0,1,0.1l-0.2,1.9c-0.3-0.1-0.6-0.1-0.9-0.1c-0.8,0-1.5,0.3-2,0.8
			c-0.5,0.5-0.8,1.2-0.8,2.1V96h-2.1v-9.7h1.6L223,88h0.1c0.3-0.6,0.7-1,1.3-1.4C224.9,86.3,225.4,86.1,226,86.1z"/>
		<path class="st8" d="M226.5,86.3h2.2l2,5.5c0.3,0.8,0.5,1.5,0.6,2.2h0.1c0.1-0.3,0.1-0.7,0.3-1.2s0.9-2.6,2.2-6.6h2.2l-4.2,11
			c-0.8,2-2,3-3.8,3c-0.5,0-0.9,0-1.3-0.1v-1.6c0.3,0.1,0.7,0.1,1.1,0.1c1,0,1.7-0.6,2.1-1.7l0.4-0.9L226.5,86.3z"/>
		<path class="st8" d="M239.8,90.5c0-5,2-7.5,6.1-7.5c0.6,0,1.2,0,1.6,0.1v1.7c-0.4-0.1-1-0.2-1.5-0.2c-1.4,0-2.4,0.4-3.1,1.1
			s-1.1,1.9-1.1,3.6h0.1c0.3-0.5,0.7-0.8,1.2-1.1s1.1-0.4,1.8-0.4c1.2,0,2.1,0.4,2.7,1.1s1,1.7,1,2.9c0,1.3-0.4,2.4-1.1,3.2
			s-1.8,1.2-3.1,1.2c-0.9,0-1.7-0.2-2.4-0.7s-1.2-1.1-1.6-1.9S239.8,91.7,239.8,90.5z M244.3,94.5c0.7,0,1.3-0.2,1.6-0.7
			s0.6-1.1,0.6-2c0-0.7-0.2-1.3-0.5-1.7c-0.4-0.4-0.9-0.6-1.6-0.6c-0.4,0-0.9,0.1-1.2,0.3s-0.7,0.5-0.9,0.8s-0.3,0.7-0.3,1
			c0,0.8,0.2,1.5,0.7,2.1C243,94.2,243.6,94.5,244.3,94.5z"/>
		<path class="st8" d="M262.2,96h-2.1v-6c0-0.8-0.2-1.3-0.5-1.7c-0.3-0.4-0.8-0.6-1.4-0.6c-0.9,0-1.5,0.3-1.9,0.8
			c-0.4,0.5-0.6,1.4-0.6,2.6V96h-2.1V82.3h2.1v3.5c0,0.6,0,1.2-0.1,1.8h0.1c0.3-0.5,0.7-0.8,1.2-1.1c0.5-0.3,1.1-0.4,1.8-0.4
			c2.4,0,3.5,1.2,3.5,3.6V96z"/>
		<path class="st8" d="M272.8,91.1c0,1.6-0.4,2.8-1.2,3.7s-1.9,1.3-3.4,1.3c-0.9,0-1.7-0.2-2.4-0.6s-1.2-1-1.6-1.8s-0.6-1.7-0.6-2.7
			c0-1.6,0.4-2.8,1.2-3.7s1.9-1.3,3.4-1.3c1.4,0,2.5,0.5,3.3,1.4S272.8,89.6,272.8,91.1z M265.7,91.1c0,2.2,0.8,3.4,2.5,3.4
			c1.6,0,2.5-1.1,2.5-3.4c0-2.2-0.8-3.3-2.5-3.3c-0.9,0-1.5,0.3-1.9,0.9S265.7,90,265.7,91.1z"/>
		<path class="st8" d="M281.1,96l-0.3-1.3h-0.1c-0.3,0.5-0.7,0.8-1.2,1.1c-0.5,0.3-1.1,0.4-1.8,0.4c-1.2,0-2.1-0.3-2.6-0.9
			s-0.9-1.5-0.9-2.7v-6.4h2.1v6c0,0.7,0.2,1.3,0.5,1.7s0.8,0.6,1.4,0.6c0.9,0,1.5-0.3,1.9-0.8c0.4-0.5,0.6-1.4,0.6-2.6v-4.8h2.1V96
			H281.1z"/>
		<path class="st8" d="M289.7,86.1c0.4,0,0.8,0,1,0.1l-0.2,1.9c-0.3-0.1-0.6-0.1-0.9-0.1c-0.8,0-1.5,0.3-2,0.8s-0.8,1.2-0.8,2.1V96
			h-2.1v-9.7h1.6l0.3,1.7h0.1c0.3-0.6,0.7-1,1.3-1.4C288.5,86.3,289.1,86.1,289.7,86.1z"/>
		<path class="st8" d="M298.2,93.2c0,0.9-0.3,1.7-1,2.2s-1.7,0.8-3,0.8c-1.3,0-2.3-0.2-3.1-0.6v-1.8c1.1,0.5,2.2,0.8,3.2,0.8
			c1.3,0,1.9-0.4,1.9-1.2c0-0.2-0.1-0.5-0.2-0.6s-0.4-0.3-0.7-0.5s-0.8-0.4-1.3-0.6c-1.1-0.4-1.9-0.9-2.3-1.3
			c-0.4-0.4-0.6-1-0.6-1.7c0-0.8,0.3-1.5,1-1.9s1.6-0.7,2.7-0.7c1.1,0,2.2,0.2,3.2,0.7l-0.7,1.6c-1-0.4-1.9-0.7-2.6-0.7
			c-1.1,0-1.6,0.3-1.6,0.9c0,0.3,0.1,0.6,0.4,0.8s0.9,0.5,1.9,0.9c0.8,0.3,1.4,0.6,1.7,0.9s0.6,0.6,0.8,0.9S298.2,92.8,298.2,93.2z"
			/>
	</g>
	<g>
		<path d="M194.1,279.8h4.7c2.1,0,3.7,0.3,4.6,0.9c1,0.6,1.4,1.6,1.4,2.9c0,0.9-0.2,1.6-0.6,2.2c-0.4,0.6-1,0.9-1.7,1v0.1
			c1,0.2,1.6,0.6,2.1,1.2c0.4,0.6,0.6,1.4,0.6,2.3c0,1.4-0.5,2.4-1.5,3.2c-1,0.8-2.3,1.1-4,1.1h-5.6V279.8z M197.3,285.7h1.8
			c0.9,0,1.5-0.1,1.9-0.4s0.6-0.7,0.6-1.3c0-0.6-0.2-1-0.6-1.2c-0.4-0.2-1.1-0.4-2-0.4h-1.7V285.7z M197.3,288.2v3.9h2.1
			c0.9,0,1.5-0.2,1.9-0.5s0.6-0.8,0.6-1.5c0-1.2-0.9-1.9-2.7-1.9H197.3z"/>
		<path d="M210.1,294.8H207v-16h3.1V294.8z"/>
		<path d="M222.7,289c0,1.9-0.5,3.3-1.5,4.4s-2.4,1.6-4.1,1.6c-1.1,0-2.1-0.2-2.9-0.7c-0.8-0.5-1.5-1.2-1.9-2.1s-0.7-2-0.7-3.2
			c0-1.9,0.5-3.3,1.5-4.4s2.4-1.6,4.1-1.6c1.1,0,2.1,0.2,2.9,0.7s1.5,1.2,1.9,2.1S222.7,287.8,222.7,289z M214.8,289
			c0,1.1,0.2,2,0.6,2.6c0.4,0.6,1,0.9,1.8,0.9c0.8,0,1.4-0.3,1.8-0.9c0.4-0.6,0.5-1.4,0.5-2.6c0-1.1-0.2-2-0.6-2.6s-1-0.9-1.8-0.9
			c-0.8,0-1.4,0.3-1.8,0.8C215,287,214.8,287.9,214.8,289z"/>
		<path d="M228.9,295c-3.6,0-5.4-2-5.4-5.9c0-1.9,0.5-3.4,1.5-4.5s2.4-1.5,4.2-1.5c1.3,0,2.5,0.3,3.6,0.8l-0.9,2.4
			c-0.5-0.2-1-0.4-1.4-0.5s-0.8-0.2-1.3-0.2c-1.6,0-2.4,1.2-2.4,3.5c0,2.2,0.8,3.4,2.4,3.4c0.6,0,1.2-0.1,1.7-0.2
			c0.5-0.2,1-0.4,1.5-0.8v2.7c-0.5,0.3-1,0.5-1.5,0.7S229.7,295,228.9,295z"/>
		<path d="M237,288.5l1.4-1.7l3.2-3.5h3.5l-4.6,5l4.8,6.5h-3.6l-3.3-4.6l-1.3,1.1v3.6H234v-16h3.1v7.1L237,288.5L237,288.5z"/>
		<path d="M250.6,295c-3.6,0-5.4-2-5.4-5.9c0-1.9,0.5-3.4,1.5-4.5s2.4-1.5,4.2-1.5c1.3,0,2.5,0.3,3.6,0.8l-0.9,2.4
			c-0.5-0.2-1-0.4-1.4-0.5s-0.8-0.2-1.3-0.2c-1.6,0-2.4,1.2-2.4,3.5c0,2.2,0.8,3.4,2.4,3.4c0.6,0,1.2-0.1,1.7-0.2s1-0.4,1.5-0.8v2.7
			c-0.5,0.3-1,0.5-1.5,0.7C252.1,294.9,251.4,295,250.6,295z"/>
		<path d="M266.3,294.8h-3.1v-6.7c0-1.7-0.6-2.5-1.8-2.5c-0.9,0-1.5,0.3-1.9,0.9s-0.6,1.6-0.6,2.9v5.4h-3.1v-16h3.1v3.3
			c0,0.3,0,0.8-0.1,1.8l-0.1,0.9h0.2c0.7-1.1,1.8-1.7,3.3-1.7c1.3,0,2.4,0.4,3.1,1.1s1,1.8,1,3.1V294.8z"/>
		<path d="M275.8,294.8l-0.6-1.6h-0.1c-0.5,0.7-1.1,1.1-1.6,1.4c-0.6,0.3-1.3,0.4-2.2,0.4c-1.1,0-2-0.3-2.6-0.9
			c-0.6-0.6-0.9-1.5-0.9-2.7c0-1.2,0.4-2.1,1.3-2.7c0.9-0.6,2.1-0.9,3.9-1l2-0.1v-0.5c0-1.2-0.6-1.7-1.8-1.7c-0.9,0-2,0.3-3.2,0.8
			l-1-2.1c1.3-0.7,2.8-1,4.4-1c1.5,0,2.7,0.3,3.5,1s1.2,1.7,1.2,3.1v7.6H275.8z M274.8,289.5l-1.2,0c-0.9,0-1.6,0.2-2,0.5
			s-0.7,0.8-0.7,1.4c0,0.9,0.5,1.3,1.5,1.3c0.7,0,1.3-0.2,1.7-0.6c0.4-0.4,0.7-1,0.7-1.7V289.5z"/>
		<path d="M280,280.3c0-1,0.6-1.5,1.7-1.5s1.7,0.5,1.7,1.5c0,0.5-0.1,0.9-0.4,1.1c-0.3,0.3-0.7,0.4-1.3,0.4
			C280.5,281.9,280,281.4,280,280.3z M283.2,294.8h-3.1v-11.5h3.1V294.8z"/>
		<path d="M296.1,294.8h-3.1v-6.7c0-0.8-0.1-1.4-0.4-1.9s-0.8-0.6-1.4-0.6c-0.9,0-1.5,0.3-1.9,0.9c-0.4,0.6-0.6,1.6-0.6,2.9v5.4
			h-3.1v-11.5h2.4l0.4,1.5h0.2c0.3-0.6,0.8-1,1.4-1.3c0.6-0.3,1.3-0.4,2.1-0.4c1.3,0,2.3,0.4,3,1.1c0.7,0.7,1,1.8,1,3.1V294.8z"/>
	</g>
	<g>
		<path class="st8" d="M201.2,332.7h-7.3v-12.8h7.3v1.8H196v3.5h4.8v1.8H196v4h5.2V332.7z"/>
		<path class="st8" d="M205,327.7l-3.3-4.8h2.4l2.2,3.4l2.2-3.4h2.3l-3.3,4.8l3.4,5h-2.3l-2.4-3.6l-2.4,3.6h-2.3L205,327.7z"/>
		<path class="st8" d="M216.1,332.8c-1.5,0-2.7-0.4-3.5-1.3s-1.3-2.1-1.3-3.6c0-1.6,0.4-2.8,1.2-3.7s1.9-1.4,3.3-1.4
			c1.3,0,2.3,0.4,3,1.2s1.1,1.9,1.1,3.2v1.1h-6.5c0,0.9,0.3,1.7,0.8,2.2s1.2,0.8,2,0.8c0.6,0,1.1-0.1,1.6-0.2s1-0.3,1.6-0.5v1.7
			c-0.5,0.2-1,0.4-1.5,0.5S216.8,332.8,216.1,332.8z M215.8,324.3c-0.7,0-1.2,0.2-1.6,0.6s-0.6,1-0.7,1.8h4.4c0-0.8-0.2-1.4-0.6-1.8
			S216.4,324.3,215.8,324.3z"/>
		<path class="st8" d="M225.3,332.8c-1.5,0-2.6-0.4-3.4-1.3s-1.1-2.1-1.1-3.7c0-1.6,0.4-2.9,1.2-3.8s2-1.3,3.5-1.3
			c1,0,1.9,0.2,2.8,0.6l-0.6,1.7c-0.9-0.3-1.6-0.5-2.2-0.5c-1.7,0-2.5,1.1-2.5,3.3c0,1.1,0.2,1.9,0.6,2.5c0.4,0.5,1,0.8,1.8,0.8
			c0.9,0,1.8-0.2,2.6-0.7v1.8c-0.4,0.2-0.8,0.4-1.2,0.5C226.4,332.8,225.9,332.8,225.3,332.8z"/>
		<path class="st8" d="M236.2,332.7l-0.3-1.3h-0.1c-0.3,0.5-0.7,0.8-1.2,1.1c-0.5,0.3-1.1,0.4-1.8,0.4c-1.2,0-2.1-0.3-2.6-0.9
			s-0.9-1.5-0.9-2.7v-6.4h2.1v6c0,0.7,0.2,1.3,0.5,1.7s0.8,0.6,1.4,0.6c0.9,0,1.5-0.3,1.9-0.8c0.4-0.5,0.6-1.4,0.6-2.6v-4.8h2.1v9.7
			H236.2z"/>
		<path class="st8" d="M243.5,331.2c0.5,0,1-0.1,1.5-0.2v1.6c-0.2,0.1-0.5,0.2-0.9,0.3c-0.4,0.1-0.7,0.1-1.1,0.1c-2,0-2.9-1-2.9-3.1
			v-5.2h-1.3v-0.9l1.4-0.8l0.7-2.1h1.3v2.2h2.8v1.6h-2.8v5.2c0,0.5,0.1,0.9,0.4,1.1S243.1,331.2,243.5,331.2z"/>
		<path class="st8" d="M250.3,332.8c-1.5,0-2.7-0.4-3.5-1.3c-0.9-0.9-1.3-2.1-1.3-3.6c0-1.6,0.4-2.8,1.2-3.7s1.9-1.4,3.3-1.4
			c1.3,0,2.3,0.4,3,1.2s1.1,1.9,1.1,3.2v1.1h-6.5c0,0.9,0.3,1.7,0.8,2.2s1.2,0.8,2,0.8c0.6,0,1.1-0.1,1.6-0.2s1-0.3,1.6-0.5v1.7
			c-0.5,0.2-1,0.4-1.5,0.5S251,332.8,250.3,332.8z M249.9,324.3c-0.7,0-1.2,0.2-1.6,0.6c-0.4,0.4-0.6,1-0.7,1.8h4.4
			c0-0.8-0.2-1.4-0.6-1.8S250.6,324.3,249.9,324.3z"/>
		<path class="st8" d="M268,323.7c0,1.3-0.4,2.4-1.3,3.1s-2.1,1.1-3.8,1.1h-1.3v4.8h-2.1v-12.8h3.7c1.6,0,2.8,0.3,3.6,1
			C267.6,321.4,268,322.4,268,323.7z M261.6,326.1h1.1c1.1,0,1.9-0.2,2.4-0.6s0.8-1,0.8-1.8c0-0.7-0.2-1.3-0.7-1.7s-1.2-0.5-2.1-0.5
			h-1.5V326.1z"/>
		<path class="st8" d="M274.4,322.8c0.4,0,0.8,0,1,0.1l-0.2,1.9c-0.3-0.1-0.6-0.1-0.9-0.1c-0.8,0-1.5,0.3-2,0.8s-0.8,1.2-0.8,2.1
			v5.1h-2.1v-9.7h1.6l0.3,1.7h0.1c0.3-0.6,0.7-1,1.3-1.4C273.3,322.9,273.8,322.8,274.4,322.8z"/>
		<path class="st8" d="M285,327.8c0,1.6-0.4,2.8-1.2,3.7s-1.9,1.3-3.4,1.3c-0.9,0-1.7-0.2-2.4-0.6s-1.2-1-1.6-1.8s-0.6-1.7-0.6-2.7
			c0-1.6,0.4-2.8,1.2-3.7s1.9-1.3,3.4-1.3c1.4,0,2.5,0.5,3.3,1.4S285,326.2,285,327.8z M277.9,327.8c0,2.2,0.8,3.4,2.5,3.4
			c1.6,0,2.5-1.1,2.5-3.4c0-2.2-0.8-3.3-2.5-3.3c-0.9,0-1.5,0.3-1.9,0.9S277.9,326.7,277.9,327.8z"/>
		<path class="st8" d="M290.1,331.2c0.5,0,1-0.1,1.5-0.2v1.6c-0.2,0.1-0.5,0.2-0.9,0.3c-0.4,0.1-0.7,0.1-1.1,0.1c-2,0-2.9-1-2.9-3.1
			v-5.2h-1.3v-0.9l1.4-0.8l0.7-2.1h1.3v2.2h2.8v1.6h-2.8v5.2c0,0.5,0.1,0.9,0.4,1.1S289.7,331.2,290.1,331.2z"/>
		<path class="st8" d="M301.2,327.8c0,1.6-0.4,2.8-1.2,3.7s-1.9,1.3-3.4,1.3c-0.9,0-1.7-0.2-2.4-0.6s-1.2-1-1.6-1.8
			s-0.6-1.7-0.6-2.7c0-1.6,0.4-2.8,1.2-3.7s1.9-1.3,3.4-1.3c1.4,0,2.5,0.5,3.3,1.4S301.2,326.2,301.2,327.8z M294.2,327.8
			c0,2.2,0.8,3.4,2.5,3.4c1.6,0,2.5-1.1,2.5-3.4c0-2.2-0.8-3.3-2.5-3.3c-0.9,0-1.5,0.3-1.9,0.9S294.2,326.7,294.2,327.8z"/>
		<path class="st8" d="M306.6,332.8c-1.5,0-2.6-0.4-3.4-1.3c-0.8-0.9-1.1-2.1-1.1-3.7c0-1.6,0.4-2.9,1.2-3.8c0.8-0.9,2-1.3,3.5-1.3
			c1,0,1.9,0.2,2.8,0.6L309,325c-0.9-0.3-1.6-0.5-2.2-0.5c-1.7,0-2.5,1.1-2.5,3.3c0,1.1,0.2,1.9,0.6,2.5c0.4,0.5,1,0.8,1.8,0.8
			c0.9,0,1.8-0.2,2.6-0.7v1.8c-0.4,0.2-0.8,0.4-1.2,0.5C307.7,332.8,307.2,332.8,306.6,332.8z"/>
		<path class="st8" d="M319.4,327.8c0,1.6-0.4,2.8-1.2,3.7s-1.9,1.3-3.4,1.3c-0.9,0-1.7-0.2-2.4-0.6s-1.2-1-1.6-1.8
			s-0.6-1.7-0.6-2.7c0-1.6,0.4-2.8,1.2-3.7s1.9-1.3,3.4-1.3c1.4,0,2.5,0.5,3.3,1.4S319.4,326.2,319.4,327.8z M312.3,327.8
			c0,2.2,0.8,3.4,2.5,3.4c1.6,0,2.5-1.1,2.5-3.4c0-2.2-0.8-3.3-2.5-3.3c-0.9,0-1.5,0.3-1.9,0.9S312.3,326.7,312.3,327.8z"/>
		<path class="st8" d="M322.9,332.7h-2.1V319h2.1V332.7z"/>
		<path class="st8" d="M331,327.5v5.1h-2.1v-12.8h3.6c1.7,0,2.9,0.3,3.7,0.9s1.2,1.6,1.2,2.8c0,1.6-0.8,2.7-2.5,3.4l3.6,5.7h-2.4
			l-3.1-5.1H331z M331,325.8h1.5c1,0,1.7-0.2,2.1-0.5s0.7-0.9,0.7-1.6c0-0.7-0.2-1.2-0.7-1.6s-1.2-0.5-2.1-0.5H331V325.8z"/>
		<path class="st8" d="M343.6,332.8c-1.5,0-2.7-0.4-3.5-1.3c-0.9-0.9-1.3-2.1-1.3-3.6c0-1.6,0.4-2.8,1.2-3.7s1.9-1.4,3.3-1.4
			c1.3,0,2.3,0.4,3,1.2s1.1,1.9,1.1,3.2v1.1h-6.5c0,0.9,0.3,1.7,0.8,2.2s1.2,0.8,2,0.8c0.6,0,1.1-0.1,1.6-0.2s1-0.3,1.6-0.5v1.7
			c-0.5,0.2-1,0.4-1.5,0.5S344.2,332.8,343.6,332.8z M343.2,324.3c-0.7,0-1.2,0.2-1.6,0.6c-0.4,0.4-0.6,1-0.7,1.8h4.4
			c0-0.8-0.2-1.4-0.6-1.8S343.8,324.3,343.2,324.3z"/>
		<path class="st8" d="M353.8,322.8c1.2,0,2.2,0.4,2.8,1.3c0.7,0.9,1,2.1,1,3.7c0,1.6-0.3,2.8-1,3.7s-1.6,1.3-2.9,1.3
			c-1.2,0-2.2-0.4-2.9-1.3h-0.1l-0.4,1.2h-1.5V319h2.1v3.3c0,0.2,0,0.6,0,1.1s0,0.8-0.1,0.9h0.1
			C351.5,323.2,352.5,322.8,353.8,322.8z M353.2,324.4c-0.8,0-1.4,0.2-1.8,0.7c-0.4,0.5-0.6,1.3-0.6,2.5v0.1c0,1.2,0.2,2,0.6,2.6
			s1,0.8,1.8,0.8c0.7,0,1.3-0.3,1.7-0.9c0.4-0.6,0.6-1.4,0.6-2.5C355.5,325.5,354.7,324.4,353.2,324.4z"/>
		<path class="st8" d="M365.2,332.7l-0.4-1.4h-0.1c-0.5,0.6-0.9,1-1.4,1.2s-1.1,0.3-1.8,0.3c-1,0-1.7-0.3-2.2-0.8
			c-0.5-0.5-0.8-1.2-0.8-2.2c0-1,0.4-1.8,1.1-2.3s1.9-0.8,3.4-0.8l1.7-0.1v-0.5c0-0.6-0.1-1.1-0.4-1.4c-0.3-0.3-0.7-0.5-1.3-0.5
			c-0.5,0-1,0.1-1.4,0.2s-0.9,0.3-1.3,0.5l-0.7-1.5c0.5-0.3,1.1-0.5,1.7-0.6s1.2-0.2,1.8-0.2c1.2,0,2.2,0.3,2.8,0.8s0.9,1.4,0.9,2.5
			v6.5H365.2z M362.1,331.2c0.8,0,1.4-0.2,1.8-0.6c0.5-0.4,0.7-1,0.7-1.8V328l-1.2,0.1c-1,0-1.7,0.2-2.1,0.5
			c-0.4,0.3-0.7,0.7-0.7,1.3c0,0.4,0.1,0.8,0.4,1S361.6,331.2,362.1,331.2z"/>
		<path class="st8" d="M375.2,329.9c0,0.9-0.3,1.7-1,2.2s-1.7,0.8-3,0.8c-1.3,0-2.3-0.2-3.1-0.6v-1.8c1.1,0.5,2.2,0.8,3.2,0.8
			c1.3,0,1.9-0.4,1.9-1.2c0-0.2-0.1-0.5-0.2-0.6s-0.4-0.3-0.7-0.5s-0.8-0.4-1.3-0.6c-1.1-0.4-1.9-0.9-2.3-1.3
			c-0.4-0.4-0.6-1-0.6-1.7c0-0.8,0.3-1.5,1-1.9s1.6-0.7,2.7-0.7c1.1,0,2.2,0.2,3.2,0.7l-0.7,1.6c-1-0.4-1.9-0.7-2.6-0.7
			c-1.1,0-1.6,0.3-1.6,0.9c0,0.3,0.1,0.6,0.4,0.8s0.9,0.5,1.9,0.9c0.8,0.3,1.4,0.6,1.7,0.9s0.6,0.6,0.8,0.9S375.2,329.4,375.2,329.9
			z"/>
		<path class="st8" d="M380.8,332.8c-1.5,0-2.7-0.4-3.5-1.3c-0.9-0.9-1.3-2.1-1.3-3.6c0-1.6,0.4-2.8,1.2-3.7s1.9-1.4,3.3-1.4
			c1.3,0,2.3,0.4,3,1.2s1.1,1.9,1.1,3.2v1.1h-6.5c0,0.9,0.3,1.7,0.8,2.2s1.2,0.8,2,0.8c0.6,0,1.1-0.1,1.6-0.2s1-0.3,1.6-0.5v1.7
			c-0.5,0.2-1,0.4-1.5,0.5S381.4,332.8,380.8,332.8z M380.4,324.3c-0.7,0-1.2,0.2-1.6,0.6c-0.4,0.4-0.6,1-0.7,1.8h4.4
			c0-0.8-0.2-1.4-0.6-1.8S381,324.3,380.4,324.3z"/>
	</g>
	<g>
		<g>
			<path class="st9" d="M144,282.2c-0.1,0-0.1,0-0.2,0l-1.8-1.1c-0.1-0.1-0.2-0.2-0.2-0.3v-2.1c0-0.1,0.1-0.3,0.2-0.3l1.8-1.1
				c0.1-0.1,0.3-0.1,0.4,0l1.8,1.1c0.1,0.1,0.2,0.2,0.2,0.3v2.1c0,0.1-0.1,0.3-0.2,0.3l-1.8,1.1C144.1,282.2,144.1,282.2,144,282.2z
				 M142.5,280.6l1.5,0.8l1.5-0.8v-1.7l-1.5-0.8l-1.5,0.8V280.6z"/>
			<path class="st9" d="M157.3,287.8c-0.1,0-0.1,0-0.2,0l-0.2-0.1c-0.2-0.1-0.2-0.3-0.1-0.5c0.1-0.2,0.3-0.2,0.5-0.1l0.2,0.1
				c0.2,0.1,0.2,0.3,0.1,0.5C157.6,287.7,157.4,287.8,157.3,287.8L157.3,287.8z M155.4,286.7c-0.1,0-0.1,0-0.2,0l-0.8-0.5
				c0,0,0,0,0,0l-0.2-0.1c-0.2-0.1-0.2-0.3-0.1-0.5c0.1-0.2,0.3-0.2,0.5-0.1l0.2,0.1c0,0,0,0,0,0l0.8,0.5c0.2,0.1,0.2,0.3,0.1,0.5
				C155.7,286.6,155.5,286.7,155.4,286.7L155.4,286.7z M152.7,285.1c-0.1,0-0.1,0-0.2,0l-0.8-0.5l-0.2-0.1c-0.2-0.1-0.2-0.3-0.1-0.5
				c0.1-0.2,0.3-0.2,0.5-0.1l0.2,0.1c0,0,0,0,0,0l0.8,0.5c0.2,0.1,0.2,0.3,0.1,0.5C152.9,285,152.8,285.1,152.7,285.1L152.7,285.1z
				 M149.9,283.5c-0.1,0-0.1,0-0.2,0l-0.8-0.5c0,0,0,0,0,0l-0.2-0.1c-0.2-0.1-0.2-0.3-0.1-0.5c0.1-0.2,0.3-0.2,0.5-0.1l0.2,0.1
				c0,0,0,0,0,0l0.8,0.5c0.2,0.1,0.2,0.3,0.1,0.5C150.2,283.4,150.1,283.5,149.9,283.5L149.9,283.5z M147.2,281.9
				c-0.1,0-0.1,0-0.2,0l-0.8-0.5c0,0,0,0,0,0l-0.2-0.1c-0.2-0.1-0.2-0.3-0.1-0.5c0.1-0.2,0.3-0.2,0.5-0.1l0.2,0.1l0.8,0.5
				c0.2,0.1,0.2,0.3,0.1,0.5C147.5,281.8,147.3,281.9,147.2,281.9L147.2,281.9z"/>
			<path class="st9" d="M159.1,304.4c-0.2,0-0.4-0.2-0.4-0.4v-0.2c0-0.2,0.2-0.4,0.4-0.4s0.4,0.2,0.4,0.4v0.2
				C159.4,304.2,159.3,304.4,159.1,304.4z M159.1,302.2c-0.2,0-0.4-0.2-0.4-0.4v-1.2c0-0.2,0.2-0.4,0.4-0.4s0.4,0.2,0.4,0.4v1.2
				C159.4,302,159.3,302.2,159.1,302.2z M159.1,299c-0.2,0-0.4-0.2-0.4-0.4v-1.2c0-0.2,0.2-0.4,0.4-0.4s0.4,0.2,0.4,0.4v1.2
				C159.4,298.8,159.3,299,159.1,299z M159.1,295.8c-0.2,0-0.4-0.2-0.4-0.4v-1.2c0-0.2,0.2-0.4,0.4-0.4s0.4,0.2,0.4,0.4v1.2
				C159.4,295.7,159.3,295.8,159.1,295.8z M159.1,292.7c-0.2,0-0.4-0.2-0.4-0.4v-1.2c0-0.2,0.2-0.4,0.4-0.4s0.4,0.2,0.4,0.4v1.2
				C159.4,292.5,159.3,292.7,159.1,292.7z"/>
			<path class="st9" d="M145.8,313.7c-0.1,0-0.2-0.1-0.3-0.2c-0.1-0.2,0-0.4,0.1-0.5l0.2-0.1c0.2-0.1,0.4,0,0.5,0.1
				c0.1,0.2,0,0.4-0.1,0.5l-0.2,0.1C145.9,313.7,145.9,313.7,145.8,313.7L145.8,313.7z M147.7,312.6c-0.1,0-0.2-0.1-0.3-0.2
				c-0.1-0.2,0-0.4,0.1-0.5l0.8-0.5c0,0,0,0,0,0l0.2-0.1c0.2-0.1,0.4,0,0.5,0.1c0.1,0.2,0,0.4-0.1,0.5l-0.2,0.1c0,0,0,0,0,0
				l-0.8,0.5C147.8,312.6,147.8,312.6,147.7,312.6L147.7,312.6z M150.5,311c-0.1,0-0.2-0.1-0.3-0.2c-0.1-0.2,0-0.4,0.1-0.5l0.8-0.5
				c0,0,0,0,0,0l0.2-0.1c0.2-0.1,0.4,0,0.5,0.1c0.1,0.2,0,0.4-0.1,0.5l-0.2,0.1c0,0,0,0,0,0l-0.8,0.5C150.6,311,150.5,311,150.5,311
				L150.5,311z M153.2,309.5c-0.1,0-0.2-0.1-0.3-0.2c-0.1-0.2,0-0.4,0.1-0.5l0.8-0.5c0,0,0,0,0,0l0.2-0.1c0.2-0.1,0.4,0,0.5,0.1
				c0.1,0.2,0,0.4-0.1,0.5l-0.2,0.1h0l-0.8,0.5C153.3,309.4,153.3,309.5,153.2,309.5L153.2,309.5z M155.9,307.9
				c-0.1,0-0.2-0.1-0.3-0.2c-0.1-0.2,0-0.4,0.1-0.5l0.8-0.5c0,0,0,0,0,0l0.2-0.1c0.2-0.1,0.4,0,0.5,0.1c0.1,0.2,0,0.4-0.1,0.5
				l-0.2,0.1c0,0,0,0,0,0l-0.8,0.5C156.1,307.9,156,307.9,155.9,307.9L155.9,307.9z"/>
			<path class="st9" d="M142.2,313.6c-0.1,0-0.1,0-0.2,0l-0.2-0.1l0,0l-0.8-0.5c-0.2-0.1-0.2-0.3-0.1-0.5c0.1-0.2,0.3-0.2,0.5-0.1
				l0.8,0.5c0,0,0,0,0,0l0.2,0.1c0.2,0.1,0.2,0.3,0.1,0.5C142.4,313.5,142.3,313.6,142.2,313.6L142.2,313.6z M139.4,312
				c-0.1,0-0.1,0-0.2,0l-0.2-0.1l0,0l-0.8-0.5c-0.2-0.1-0.2-0.3-0.1-0.5c0.1-0.2,0.3-0.2,0.5-0.1l0.8,0.5l0.2,0.1
				c0.2,0.1,0.2,0.3,0.1,0.5C139.7,312,139.5,312,139.4,312L139.4,312z M136.7,310.4c-0.1,0-0.1,0-0.2,0l-0.2-0.1c0,0,0,0,0,0
				l-0.8-0.5c-0.2-0.1-0.2-0.3-0.1-0.5c0.1-0.2,0.3-0.2,0.5-0.1l0.8,0.5c0,0,0,0,0,0l0.2,0.1c0.2,0.1,0.2,0.3,0.1,0.5
				C136.9,310.4,136.8,310.4,136.7,310.4L136.7,310.4z M133.9,308.9c-0.1,0-0.1,0-0.2,0l-0.2-0.1l0,0l-0.8-0.5
				c-0.2-0.1-0.2-0.3-0.1-0.5c0.1-0.2,0.3-0.2,0.5-0.1l0.8,0.5c0,0,0,0,0,0l0.2,0.1c0.2,0.1,0.2,0.3,0.1,0.5
				C134.2,308.8,134.1,308.9,133.9,308.9L133.9,308.9z M131.2,307.3c-0.1,0-0.1,0-0.2,0l-0.2-0.1c-0.2-0.1-0.2-0.3-0.1-0.5
				c0.1-0.2,0.3-0.2,0.5-0.1l0.2,0.1c0.2,0.1,0.2,0.3,0.1,0.5C131.5,307.2,131.3,307.3,131.2,307.3L131.2,307.3z"/>
			<path class="st9" d="M129.1,304.4c-0.2,0-0.4-0.2-0.4-0.4v-0.1c0-0.2,0.2-0.4,0.4-0.4s0.4,0.2,0.4,0.4v0.1
				C129.5,304.2,129.3,304.4,129.1,304.4z M129.1,302.3c-0.2,0-0.4-0.2-0.4-0.4v-1.2c0-0.2,0.2-0.4,0.4-0.4s0.4,0.2,0.4,0.4v1.2
				C129.5,302.2,129.3,302.3,129.1,302.3z M129.1,299.2c-0.2,0-0.4-0.2-0.4-0.4v-1.2c0-0.2,0.2-0.4,0.4-0.4s0.4,0.2,0.4,0.4v1.2
				C129.5,299,129.3,299.2,129.1,299.2z M129.1,296c-0.2,0-0.4-0.2-0.4-0.4v-1.2c0-0.2,0.2-0.4,0.4-0.4s0.4,0.2,0.4,0.4v1.2
				C129.5,295.9,129.3,296,129.1,296z M129.1,292.9c-0.2,0-0.4-0.2-0.4-0.4v-1.2c0-0.2,0.2-0.4,0.4-0.4s0.4,0.2,0.4,0.4v1.2
				C129.5,292.7,129.3,292.9,129.1,292.9z M129.1,289.7c-0.2,0-0.4-0.2-0.4-0.4v-1.1l0.4-0.2c0.2-0.1,0.4,0,0.5,0.1
				c0.1,0.2,0,0.4-0.1,0.5l-0.1,0v0.7C129.5,289.5,129.3,289.7,129.1,289.7L129.1,289.7z M131,287.6c-0.1,0-0.2-0.1-0.3-0.2
				c-0.1-0.2,0-0.4,0.1-0.5l0.2-0.1c0,0,0,0,0,0l0.8-0.5c0.2-0.1,0.4,0,0.5,0.1s0,0.4-0.1,0.5l-0.8,0.5c0,0,0,0,0,0l-0.2,0.1
				C131.2,287.6,131.1,287.6,131,287.6L131,287.6z M133.8,286.1c-0.1,0-0.2-0.1-0.3-0.2c-0.1-0.2,0-0.4,0.1-0.5l0.2-0.1c0,0,0,0,0,0
				l0.8-0.5c0.2-0.1,0.4,0,0.5,0.1s0,0.4-0.1,0.5l-0.8,0.5c0,0,0,0,0,0L134,286C133.9,286.1,133.8,286.1,133.8,286.1L133.8,286.1z
				 M136.5,284.5c-0.1,0-0.2-0.1-0.3-0.2c-0.1-0.2,0-0.4,0.1-0.5l0.2-0.1c0,0,0,0,0,0l0.8-0.5c0.2-0.1,0.4,0,0.5,0.1
				c0.1,0.2,0,0.4-0.1,0.5l-0.8,0.5c0,0,0,0,0,0l-0.2,0.1C136.6,284.5,136.6,284.5,136.5,284.5L136.5,284.5z M139.2,282.9
				c-0.1,0-0.2-0.1-0.3-0.2c-0.1-0.2,0-0.4,0.1-0.5l0.2-0.1c0,0,0,0,0,0l0.8-0.5c0.2-0.1,0.4,0,0.5,0.1c0.1,0.2,0,0.4-0.1,0.5
				l-0.8,0.5c0,0,0,0,0,0l-0.2,0.1C139.4,282.9,139.3,282.9,139.2,282.9L139.2,282.9z M142,281.3c-0.1,0-0.2-0.1-0.3-0.2
				c-0.1-0.2,0-0.4,0.1-0.5l0.2-0.1c0.2-0.1,0.4,0,0.5,0.1c0.1,0.2,0,0.4-0.1,0.5l-0.2,0.1C142.1,281.3,142,281.3,142,281.3
				L142,281.3z"/>
			<path class="st9" d="M144,280c-0.1,0-0.1,0-0.2,0l-1.8-1c-0.2-0.1-0.2-0.3-0.1-0.5c0.1-0.2,0.3-0.2,0.5-0.1l1.8,1
				c0.2,0.1,0.2,0.3,0.1,0.5C144.3,280,144.1,280,144,280L144,280z"/>
			<path class="st9" d="M144,280c-0.1,0-0.3-0.1-0.3-0.2c-0.1-0.2,0-0.4,0.1-0.5l1.8-1c0.2-0.1,0.4,0,0.5,0.1c0.1,0.2,0,0.4-0.1,0.5
				l-1.8,1C144.1,280,144.1,280,144,280L144,280z"/>
			<path class="st9" d="M144,282.2c-0.2,0-0.4-0.2-0.4-0.4v-2.2c0-0.2,0.2-0.4,0.4-0.4s0.4,0.2,0.4,0.4v2.2
				C144.4,282.1,144.2,282.2,144,282.2L144,282.2z"/>
			<path class="st9" d="M144,308.3c-0.1,0-0.1,0-0.2,0l-9.2-5.3c-0.1-0.1-0.2-0.2-0.2-0.3V292c0-0.1,0.1-0.3,0.2-0.3l9.2-5.3
				c0.1-0.1,0.3-0.1,0.4,0l9.2,5.3c0.1,0.1,0.2,0.2,0.2,0.3v10.6c0,0.1-0.1,0.3-0.2,0.3l-9.2,5.3C144.1,308.3,144.1,308.3,144,308.3
				L144,308.3z M135.2,302.4l8.8,5.1l8.8-5.1v-10.2l-8.8-5.1l-8.8,5.1V302.4z"/>
			<path class="st9" d="M144,297.3c-0.1,0-0.1,0-0.2,0l-9.2-4.9c-0.2-0.1-0.2-0.3-0.1-0.5c0.1-0.2,0.3-0.2,0.5-0.1l9.2,4.9
				c0.2,0.1,0.2,0.3,0.1,0.5C144.3,297.2,144.1,297.3,144,297.3L144,297.3z"/>
			<path class="st9" d="M144,297.3c-0.1,0-0.3-0.1-0.3-0.2c-0.1-0.2,0-0.4,0.1-0.5l9.2-4.9c0.2-0.1,0.4,0,0.5,0.1
				c0.1,0.2,0,0.4-0.1,0.5l-9.2,4.9C144.1,297.3,144.1,297.3,144,297.3L144,297.3z"/>
			<path class="st9" d="M144,308.3c-0.2,0-0.4-0.2-0.4-0.4v-11c0-0.2,0.2-0.4,0.4-0.4s0.4,0.2,0.4,0.4v11
				C144.4,308.1,144.2,308.3,144,308.3z"/>
			<path class="st9" d="M144,316.3c-0.1,0-0.1,0-0.2,0l-1.8-1.1c-0.1-0.1-0.2-0.2-0.2-0.3v-2.1c0-0.1,0.1-0.3,0.2-0.3l1.8-1.1
				c0.1-0.1,0.3-0.1,0.4,0l1.8,1.1c0.1,0.1,0.2,0.2,0.2,0.3v2.1c0,0.1-0.1,0.3-0.2,0.3l-1.8,1.1C144.1,316.3,144.1,316.3,144,316.3z
				 M142.5,314.6l1.5,0.8l1.5-0.8V313l-1.5-0.8l-1.5,0.8V314.6z"/>
			<path class="st9" d="M144,314.1c-0.1,0-0.1,0-0.2,0l-1.8-1c-0.2-0.1-0.2-0.3-0.1-0.5c0.1-0.2,0.3-0.2,0.5-0.1l1.8,1
				c0.2,0.1,0.2,0.3,0.1,0.5C144.3,314,144.1,314.1,144,314.1L144,314.1z"/>
			<path class="st9" d="M144,314.1c-0.1,0-0.3-0.1-0.3-0.2c-0.1-0.2,0-0.4,0.1-0.5l1.8-1c0.2-0.1,0.4,0,0.5,0.1
				c0.1,0.2,0,0.4-0.1,0.5l-1.8,1C144.1,314.1,144.1,314.1,144,314.1L144,314.1z"/>
			<path class="st9" d="M144,316.3c-0.2,0-0.4-0.2-0.4-0.4v-2.2c0-0.2,0.2-0.4,0.4-0.4s0.4,0.2,0.4,0.4v2.2
				C144.4,316.1,144.2,316.3,144,316.3z"/>
			<path class="st9" d="M159.1,291c-0.1,0-0.1,0-0.2,0l-1.8-1.1c-0.1-0.1-0.2-0.2-0.2-0.3v-2.1c0-0.1,0.1-0.3,0.2-0.3l1.8-1.1
				c0.1-0.1,0.3-0.1,0.4,0l1.8,1.1c0.1,0.1,0.2,0.2,0.2,0.3v2.1c0,0.1-0.1,0.3-0.2,0.3l-1.8,1.1C159.2,291,159.1,291,159.1,291
				L159.1,291z M157.6,289.4l1.5,0.8l1.5-0.8v-1.7l-1.5-0.8l-1.5,0.8V289.4z"/>
			<path class="st9" d="M159.1,288.9c-0.1,0-0.1,0-0.2,0l-1.8-1c-0.2-0.1-0.2-0.3-0.1-0.5c0.1-0.2,0.3-0.2,0.5-0.1l1.8,1
				c0.2,0.1,0.2,0.3,0.1,0.5C159.3,288.8,159.2,288.9,159.1,288.9L159.1,288.9z"/>
			<path class="st9" d="M159.1,288.9c-0.1,0-0.3-0.1-0.3-0.2c-0.1-0.2,0-0.4,0.1-0.5l1.8-1c0.2-0.1,0.4,0,0.5,0.1
				c0.1,0.2,0,0.4-0.1,0.5l-1.8,1C159.2,288.8,159.1,288.9,159.1,288.9L159.1,288.9z"/>
			<path class="st9" d="M159.1,291c-0.2,0-0.4-0.2-0.4-0.4v-2.2c0-0.2,0.2-0.4,0.4-0.4s0.4,0.2,0.4,0.4v2.2
				C159.4,290.9,159.3,291,159.1,291z"/>
			<path class="st9" d="M159.1,308.6c-0.1,0-0.1,0-0.2,0l-1.8-1.1c-0.1-0.1-0.2-0.2-0.2-0.3l0-2.1c0-0.1,0.1-0.3,0.2-0.3l1.8-1.1
				c0.1-0.1,0.3-0.1,0.4,0l1.8,1.1c0.1,0.1,0.2,0.2,0.2,0.3v2.1c0,0.1-0.1,0.3-0.2,0.3l-1.8,1.1
				C159.2,308.5,159.1,308.6,159.1,308.6z M157.6,306.9l1.5,0.8l1.5-0.8v-1.7l-1.5-0.8l-1.5,0.8V306.9z"/>
			<path class="st9" d="M159.1,306.4c-0.1,0-0.1,0-0.2,0l-1.8-1c-0.2-0.1-0.2-0.3-0.1-0.5c0.1-0.2,0.3-0.2,0.5-0.1l1.8,1
				c0.2,0.1,0.2,0.3,0.1,0.5C159.3,306.3,159.2,306.4,159.1,306.4L159.1,306.4z"/>
			<path class="st9" d="M159.1,306.4c-0.1,0-0.3-0.1-0.3-0.2c-0.1-0.2,0-0.4,0.1-0.5l1.8-1c0.2-0.1,0.4,0,0.5,0.1
				c0.1,0.2,0,0.4-0.1,0.5l-1.8,1C159.2,306.4,159.1,306.4,159.1,306.4L159.1,306.4z"/>
			<path class="st9" d="M159.1,308.6c-0.2,0-0.4-0.2-0.4-0.4V306c0-0.2,0.2-0.4,0.4-0.4s0.4,0.2,0.4,0.4v2.2
				C159.4,308.4,159.3,308.6,159.1,308.6z"/>
			<path class="st9" d="M129.1,291c-0.1,0-0.1,0-0.2,0l-1.8-1.1c-0.1-0.1-0.2-0.2-0.2-0.3v-2.1c0-0.1,0.1-0.3,0.2-0.3l1.8-1.1
				c0.1-0.1,0.3-0.1,0.4,0l1.8,1.1c0.1,0.1,0.2,0.2,0.2,0.3v2.1c0,0.1-0.1,0.3-0.2,0.3l-1.8,1.1C129.2,291,129.2,291,129.1,291
				L129.1,291z M127.6,289.4l1.5,0.8l1.5-0.8v-1.7l-1.5-0.8l-1.5,0.8V289.4z"/>
			<path class="st9" d="M129.1,288.9c-0.1,0-0.1,0-0.2,0l-1.8-1c-0.2-0.1-0.2-0.3-0.1-0.5c0.1-0.2,0.3-0.2,0.5-0.1l1.8,1
				c0.2,0.1,0.2,0.3,0.1,0.5C129.4,288.8,129.2,288.9,129.1,288.9L129.1,288.9z"/>
			<path class="st9" d="M129.1,288.9c-0.1,0-0.3-0.1-0.3-0.2c-0.1-0.2,0-0.4,0.1-0.5l1.8-1c0.2-0.1,0.4,0,0.5,0.1
				c0.1,0.2,0,0.4-0.1,0.5l-1.8,1C129.2,288.8,129.2,288.9,129.1,288.9L129.1,288.9z"/>
			<path class="st9" d="M129.1,291c-0.2,0-0.4-0.2-0.4-0.4v-2.2c0-0.2,0.2-0.4,0.4-0.4s0.4,0.2,0.4,0.4v2.2
				C129.5,290.9,129.3,291,129.1,291z"/>
			<path class="st9" d="M129.1,308.6c-0.1,0-0.1,0-0.2,0l-1.8-1.1c-0.1-0.1-0.2-0.2-0.2-0.3V305c0-0.1,0.1-0.3,0.2-0.3l1.8-1.1
				c0.1-0.1,0.3-0.1,0.4,0l1.8,1.1c0.1,0.1,0.2,0.2,0.2,0.3v2.1c0,0.1-0.1,0.3-0.2,0.3l-1.8,1.1
				C129.2,308.5,129.2,308.6,129.1,308.6L129.1,308.6z M127.7,306.9l1.5,0.8l1.5-0.8v-1.7l-1.5-0.8l-1.5,0.8V306.9z"/>
			<path class="st9" d="M129.1,306.4c-0.1,0-0.1,0-0.2,0l-1.8-1c-0.2-0.1-0.2-0.3-0.1-0.5c0.1-0.2,0.3-0.2,0.5-0.1l1.8,1
				c0.2,0.1,0.2,0.3,0.1,0.5C129.4,306.3,129.2,306.4,129.1,306.4L129.1,306.4z"/>
			<path class="st9" d="M129.1,306.4c-0.1,0-0.3-0.1-0.3-0.2c-0.1-0.2,0-0.4,0.1-0.5l1.8-1c0.2-0.1,0.4,0,0.5,0.1
				c0.1,0.2,0,0.4-0.1,0.5l-1.8,1C129.2,306.4,129.2,306.4,129.1,306.4L129.1,306.4z"/>
			<path class="st9" d="M129.1,308.6c-0.2,0-0.4-0.2-0.4-0.4V306c0-0.2,0.2-0.4,0.4-0.4s0.4,0.2,0.4,0.4v2.2
				C129.5,308.4,129.3,308.6,129.1,308.6z"/>
		</g>
	</g>
	<g>
		<path class="st2" d="M245.4,748.3c-0.1-0.4-3.5-9.2-2-36.4c0.5-8.7,1.6-16.4,2.6-23.2c2.1-14.2,3.6-24.5-2.7-32.4l3.9-3.1
			c7.7,9.6,6,21.4,3.8,36.3c-1,6.7-2.1,14.2-2.5,22.7c-1.4,25.8,1.7,34.3,1.7,34.4L245.4,748.3z"/>
	</g>
	<g>
		<circle class="st3" cx="245.9" cy="683.1" r="19.6"/>
		
			<ellipse transform="matrix(0.2298 -0.9732 0.9732 0.2298 -475.4258 765.4362)" class="st4" cx="245.9" cy="683.1" rx="19.6" ry="19.6"/>
	</g>
	<g>
		<g>
			<rect x="244.9" y="673.6" width="2" height="19.9"/>
		</g>
		<g>
			<rect x="236.7" y="682.1" width="18.3" height="2"/>
		</g>
	</g>
	<rect x="98.6" y="495.5" class="st3" width="296.6" height="161.3"/>
	<g>
		<g>
			<rect x="98.6" y="585.1" class="st5" width="296.6" height="2"/>
		</g>
		<g>
			<rect x="244.6" y="605.3" class="st5" width="4" height="40.2"/>
		</g>
		<g class="st6">
			<rect x="161.3" y="631" class="st7" width="16.5" height="3"/>
		</g>
		<g>
			<path class="st7" d="M168.9,630.3h-5.9v-5.5l10.4-10.2l5.3,5.3L168.9,630.3z M166.1,627.3h1.6l7-7.4l-1.1-1.1l-7.4,7.3V627.3z"/>
		</g>
		<g>
			<path class="st7" d="M330.7,633.9h-15.3v-15.3h15.3V633.9z M318.4,630.9h9.3v-9.3h-9.3V630.9z"/>
		</g>
		<g>
			<path class="st7" d="M332.1,621.6h-18v-3h3.3l0-3.5h11.5v3.5h3.2V621.6z M320.4,618.6h5.5v-0.5h-5.5L320.4,618.6z"/>
		</g>
	</g>
	<g>
		<path d="M206.3,512.9v9.7c0,1.1-0.2,2.1-0.7,2.9c-0.5,0.8-1.2,1.5-2.1,1.9s-2,0.7-3.3,0.7c-1.9,0-3.4-0.5-4.5-1.5
			c-1.1-1-1.6-2.3-1.6-4.1v-9.7h3.2v9.2c0,1.2,0.2,2,0.7,2.5s1.2,0.8,2.3,0.8c1,0,1.8-0.3,2.3-0.8c0.5-0.5,0.7-1.4,0.7-2.6v-9.2
			H206.3z"/>
		<path d="M219.3,527.9h-3.1v-6.7c0-0.8-0.1-1.4-0.4-1.9c-0.3-0.4-0.8-0.6-1.4-0.6c-0.9,0-1.5,0.3-1.9,0.9c-0.4,0.6-0.6,1.6-0.6,2.9
			v5.4h-3.1v-11.5h2.4l0.4,1.5h0.2c0.3-0.6,0.8-1,1.4-1.3c0.6-0.3,1.3-0.4,2.1-0.4c1.3,0,2.3,0.4,3,1.1c0.7,0.7,1,1.8,1,3.1V527.9z"
			/>
		<path d="M221.3,513.4c0-1,0.6-1.5,1.7-1.5c1.1,0,1.7,0.5,1.7,1.5c0,0.5-0.1,0.9-0.4,1.1c-0.3,0.3-0.7,0.4-1.3,0.4
			C221.9,515,221.3,514.5,221.3,513.4z M224.6,527.9h-3.1v-11.5h3.1V527.9z"/>
		<path d="M234.8,524.5c0,1.2-0.4,2.1-1.2,2.7c-0.8,0.6-2,0.9-3.7,0.9c-0.8,0-1.5-0.1-2.1-0.2c-0.6-0.1-1.1-0.3-1.7-0.5v-2.6
			c0.6,0.3,1.2,0.5,2,0.7c0.7,0.2,1.4,0.3,1.9,0.3c1.1,0,1.7-0.3,1.7-1c0-0.2-0.1-0.4-0.2-0.6c-0.2-0.2-0.4-0.3-0.8-0.5
			c-0.4-0.2-0.9-0.4-1.5-0.7c-0.9-0.4-1.5-0.7-1.9-1c-0.4-0.3-0.7-0.7-0.9-1.1c-0.2-0.4-0.3-0.9-0.3-1.5c0-1,0.4-1.8,1.2-2.4
			c0.8-0.6,1.9-0.8,3.4-0.8c1.4,0,2.7,0.3,4,0.9l-0.9,2.3c-0.6-0.2-1.1-0.4-1.6-0.6c-0.5-0.2-1-0.2-1.5-0.2c-0.9,0-1.4,0.2-1.4,0.7
			c0,0.3,0.1,0.5,0.4,0.7c0.3,0.2,0.9,0.5,2,0.9c0.9,0.4,1.6,0.7,2,1s0.7,0.7,0.9,1.1C234.7,523.4,234.8,523.9,234.8,524.5z"/>
		<path d="M245.6,527.9l-0.9-4l-1.2-5.1h-0.1l-2.1,9.1H238l-3.3-11.5h3.1l1.3,5.1c0.2,0.9,0.4,2.2,0.6,3.8h0.1
			c0-0.5,0.1-1.3,0.4-2.5l0.2-0.9l1.4-5.5h3.4l1.3,5.5c0,0.2,0.1,0.4,0.1,0.7c0.1,0.3,0.1,0.6,0.2,0.9c0.1,0.3,0.1,0.7,0.1,1
			c0,0.3,0.1,0.6,0.1,0.8h0.1c0.1-0.5,0.2-1.2,0.3-2c0.2-0.9,0.3-1.4,0.3-1.7l1.4-5.1h3.1l-3.3,11.5H245.6z"/>
		<path d="M260.4,527.9l-0.6-1.6h-0.1c-0.5,0.7-1.1,1.1-1.6,1.4c-0.6,0.3-1.3,0.4-2.2,0.4c-1.1,0-2-0.3-2.6-0.9
			c-0.6-0.6-0.9-1.5-0.9-2.7c0-1.2,0.4-2.1,1.3-2.7c0.9-0.6,2.1-0.9,3.9-1l2-0.1v-0.5c0-1.2-0.6-1.7-1.8-1.7c-0.9,0-2,0.3-3.2,0.8
			l-1-2.1c1.3-0.7,2.8-1,4.4-1c1.5,0,2.7,0.3,3.5,1s1.2,1.7,1.2,3.1v7.6H260.4z M259.5,522.5l-1.2,0c-0.9,0-1.6,0.2-2,0.5
			c-0.4,0.3-0.7,0.8-0.7,1.4c0,0.9,0.5,1.3,1.5,1.3c0.7,0,1.3-0.2,1.7-0.6c0.4-0.4,0.7-1,0.7-1.7V522.5z"/>
		<path d="M271.1,528.1c-1.3,0-2.4-0.5-3.2-1.5h-0.2c0.1,1,0.2,1.5,0.2,1.7v4.6h-3.1v-16.5h2.5l0.4,1.5h0.1c0.7-1.1,1.8-1.7,3.3-1.7
			c1.4,0,2.4,0.5,3.2,1.6s1.1,2.5,1.1,4.4c0,1.2-0.2,2.3-0.5,3.2c-0.4,0.9-0.9,1.6-1.5,2.1S272,528.1,271.1,528.1z M270.1,518.7
			c-0.8,0-1.3,0.2-1.7,0.7c-0.4,0.5-0.5,1.3-0.6,2.4v0.3c0,1.2,0.2,2.1,0.5,2.6c0.4,0.5,0.9,0.8,1.7,0.8c1.4,0,2.1-1.2,2.1-3.5
			c0-1.1-0.2-2-0.5-2.5C271.4,519,270.9,518.7,270.1,518.7z"/>
		<path d="M290.2,512.9h3.2l-5.1,15h-3.5l-5.1-15h3.2l2.8,8.9c0.2,0.5,0.3,1.1,0.5,1.8c0.2,0.7,0.3,1.2,0.3,1.5
			c0.1-0.6,0.3-1.7,0.8-3.3L290.2,512.9z"/>
		<path d="M303.1,516.2c0,0.9-0.3,1.7-0.9,2.4s-1.4,1.1-2.4,1.4v0.1c1.2,0.2,2.1,0.5,2.7,1.1c0.6,0.6,0.9,1.4,0.9,2.4
			c0,1.4-0.5,2.6-1.6,3.4c-1,0.8-2.5,1.2-4.5,1.2c-1.6,0-3.1-0.3-4.3-0.8v-2.7c0.6,0.3,1.2,0.5,1.9,0.7s1.4,0.3,2.1,0.3
			c1,0,1.8-0.2,2.3-0.5s0.7-0.9,0.7-1.7c0-0.7-0.3-1.2-0.9-1.5s-1.5-0.4-2.7-0.4h-1.1v-2.4h1.2c1.2,0,2-0.2,2.5-0.5
			c0.5-0.3,0.8-0.8,0.8-1.6c0-1.1-0.7-1.7-2.1-1.7c-0.5,0-1,0.1-1.5,0.2c-0.5,0.2-1.1,0.4-1.7,0.9l-1.5-2.2c1.4-1,3-1.5,4.9-1.5
			c1.6,0,2.8,0.3,3.7,0.9C302.7,514.2,303.1,515.1,303.1,516.2z"/>
	</g>
	<g>
		<path class="st8" d="M201.4,562.2c0,1.1-0.4,2-1.2,2.7s-2,1-3.4,1s-2.6-0.2-3.6-0.7v-2c0.6,0.3,1.2,0.5,1.9,0.7s1.3,0.2,1.8,0.2
			c0.8,0,1.4-0.2,1.8-0.5s0.6-0.7,0.6-1.3c0-0.5-0.2-0.9-0.5-1.2s-1.1-0.7-2.2-1.2c-1.2-0.5-2-1-2.5-1.6s-0.7-1.3-0.7-2.2
			c0-1.1,0.4-1.9,1.1-2.5s1.8-0.9,3.1-0.9c1.2,0,2.5,0.3,3.7,0.8l-0.7,1.7c-1.1-0.5-2.2-0.7-3.1-0.7c-0.7,0-1.2,0.1-1.5,0.4
			s-0.5,0.7-0.5,1.2c0,0.3,0.1,0.6,0.2,0.9s0.4,0.5,0.7,0.7s0.9,0.5,1.7,0.8c0.9,0.4,1.6,0.8,2.1,1.1s0.8,0.7,1,1.2
			S201.4,561.7,201.4,562.2z"/>
		<path class="st8" d="M210.7,565.7l-1.3-4.5c-0.2-0.5-0.4-1.6-0.8-3.3h-0.1c-0.3,1.6-0.6,2.7-0.8,3.4l-1.3,4.5h-2.3l-2.7-9.7h2.1
			l1.2,4.8c0.3,1.2,0.5,2.2,0.6,3h0.1c0.1-0.4,0.1-0.9,0.3-1.5s0.2-1,0.3-1.2l1.5-5.1h2.3l1.4,5.1c0.1,0.3,0.2,0.7,0.3,1.3
			s0.2,1.1,0.2,1.4h0.1c0.1-0.7,0.3-1.7,0.6-3l1.3-4.8h2.1l-2.7,9.7H210.7z"/>
		<path class="st8" d="M222.6,565.7l-0.4-1.4h-0.1c-0.5,0.6-0.9,1-1.4,1.2s-1.1,0.3-1.8,0.3c-1,0-1.7-0.3-2.2-0.8s-0.8-1.2-0.8-2.2
			c0-1,0.4-1.8,1.1-2.3s1.9-0.8,3.4-0.8l1.7-0.1v-0.5c0-0.6-0.1-1.1-0.4-1.4s-0.7-0.5-1.3-0.5c-0.5,0-1,0.1-1.4,0.2
			s-0.9,0.3-1.3,0.5l-0.7-1.5c0.5-0.3,1.1-0.5,1.7-0.6s1.2-0.2,1.8-0.2c1.2,0,2.2,0.3,2.8,0.8c0.6,0.5,0.9,1.4,0.9,2.5v6.5H222.6z
			 M219.5,564.3c0.8,0,1.4-0.2,1.8-0.6s0.7-1,0.7-1.8v-0.8l-1.2,0.1c-1,0-1.7,0.2-2.1,0.5s-0.7,0.7-0.7,1.3c0,0.4,0.1,0.8,0.4,1
			S219,564.3,219.5,564.3z"/>
		<path class="st8" d="M231,565.9c-1.2,0-2.2-0.4-2.9-1.3H228c0.1,0.8,0.1,1.3,0.1,1.5v4h-2.1v-14h1.7c0,0.2,0.1,0.6,0.3,1.3h0.1
			c0.6-1,1.6-1.5,2.9-1.5c1.2,0,2.2,0.4,2.8,1.3c0.7,0.9,1,2.1,1,3.7s-0.3,2.8-1,3.7C233.2,565.5,232.2,565.9,231,565.9z
			 M230.5,557.5c-0.8,0-1.4,0.2-1.8,0.7c-0.4,0.5-0.6,1.2-0.6,2.3v0.3c0,1.2,0.2,2,0.6,2.6s1,0.8,1.8,0.8c0.7,0,1.3-0.3,1.7-0.9
			s0.6-1.4,0.6-2.5c0-1.1-0.2-1.9-0.6-2.5S231.2,557.5,230.5,557.5z"/>
		<path class="st8" d="M242.5,565.7h-2.1v-12.8h7.3v1.8h-5.2v4h4.8v1.8h-4.8V565.7z"/>
		<path class="st8" d="M253.1,565.9c-1.5,0-2.7-0.4-3.5-1.3c-0.9-0.9-1.3-2.1-1.3-3.6c0-1.6,0.4-2.8,1.2-3.7s1.9-1.4,3.3-1.4
			c1.3,0,2.3,0.4,3,1.2c0.7,0.8,1.1,1.9,1.1,3.2v1.1h-6.5c0,0.9,0.3,1.7,0.8,2.2s1.2,0.8,2,0.8c0.6,0,1.1-0.1,1.6-0.2s1-0.3,1.6-0.5
			v1.7c-0.5,0.2-1,0.4-1.5,0.5S253.7,565.9,253.1,565.9z M252.7,557.4c-0.7,0-1.2,0.2-1.6,0.6c-0.4,0.4-0.6,1-0.7,1.8h4.4
			c0-0.8-0.2-1.4-0.6-1.8S253.4,557.4,252.7,557.4z"/>
		<path class="st8" d="M262.6,565.9c-1.5,0-2.7-0.4-3.5-1.3c-0.9-0.9-1.3-2.1-1.3-3.6c0-1.6,0.4-2.8,1.2-3.7s1.9-1.4,3.3-1.4
			c1.3,0,2.3,0.4,3,1.2s1.1,1.9,1.1,3.2v1.1h-6.5c0,0.9,0.3,1.7,0.8,2.2s1.2,0.8,2,0.8c0.6,0,1.1-0.1,1.6-0.2s1-0.3,1.6-0.5v1.7
			c-0.5,0.2-1,0.4-1.5,0.5S263.2,565.9,262.6,565.9z M262.2,557.4c-0.7,0-1.2,0.2-1.6,0.6c-0.4,0.4-0.6,1-0.7,1.8h4.4
			c0-0.8-0.2-1.4-0.6-1.8S262.8,557.4,262.2,557.4z"/>
		<path class="st8" d="M274.3,563c0,0.9-0.3,1.7-1,2.2s-1.7,0.8-3,0.8c-1.3,0-2.3-0.2-3.1-0.6v-1.8c1.1,0.5,2.2,0.8,3.2,0.8
			c1.3,0,1.9-0.4,1.9-1.2c0-0.2-0.1-0.5-0.2-0.6s-0.4-0.3-0.7-0.5s-0.8-0.4-1.3-0.6c-1.1-0.4-1.9-0.9-2.3-1.3
			c-0.4-0.4-0.6-1-0.6-1.7c0-0.8,0.3-1.5,1-1.9s1.6-0.7,2.7-0.7c1.1,0,2.2,0.2,3.2,0.7l-0.7,1.6c-1-0.4-1.9-0.7-2.6-0.7
			c-1.1,0-1.6,0.3-1.6,0.9c0,0.3,0.1,0.6,0.4,0.8s0.9,0.5,1.9,0.9c0.8,0.3,1.4,0.6,1.7,0.9s0.6,0.6,0.8,0.9S274.3,562.5,274.3,563z"
			/>
		<path class="st8" d="M281.7,565.7h-2.1v-12.8h7.3v1.8h-5.2v4h4.8v1.8h-4.8V565.7z"/>
		<path class="st8" d="M296.7,560.9c0,1.6-0.4,2.8-1.2,3.7s-1.9,1.3-3.4,1.3c-0.9,0-1.7-0.2-2.4-0.6s-1.2-1-1.6-1.8
			s-0.6-1.7-0.6-2.7c0-1.6,0.4-2.8,1.2-3.7s1.9-1.3,3.4-1.3c1.4,0,2.5,0.5,3.3,1.4S296.7,559.3,296.7,560.9z M289.6,560.9
			c0,2.2,0.8,3.4,2.5,3.4c1.6,0,2.5-1.1,2.5-3.4c0-2.2-0.8-3.3-2.5-3.3c-0.9,0-1.5,0.3-1.9,0.9S289.6,559.8,289.6,560.9z"/>
		<path class="st8" d="M303.1,555.8c0.4,0,0.8,0,1,0.1l-0.2,1.9c-0.3-0.1-0.6-0.1-0.9-0.1c-0.8,0-1.5,0.3-2,0.8s-0.8,1.2-0.8,2.1
			v5.1h-2.1V556h1.6l0.3,1.7h0.1c0.3-0.6,0.7-1,1.3-1.4C302,556,302.5,555.8,303.1,555.8z"/>
		<path class="st8" d="M316.3,565.7h-7.3v-12.8h7.3v1.8h-5.2v3.5h4.8v1.8h-4.8v4h5.2V565.7z"/>
		<path class="st8" d="M322.6,565.7h-2.1v-11h-3.8v-1.8h9.7v1.8h-3.8V565.7z"/>
		<path class="st8" d="M337.6,565.7h-2.1v-5.8h-5.9v5.8h-2.1v-12.8h2.1v5.3h5.9v-5.3h2.1V565.7z"/>
	</g>
	<g>
		<circle class="st3" cx="245.9" cy="912.6" r="19.6"/>
		
			<ellipse transform="matrix(0.2298 -0.9732 0.9732 0.2298 -698.7625 942.1888)" class="st4" cx="245.9" cy="912.6" rx="19.6" ry="19.6"/>
	</g>
	<g>
		<g>
			<rect x="244.9" y="903" width="2" height="19.9"/>
		</g>
		<g>
			<rect x="236.7" y="911.6" width="18.3" height="2"/>
		</g>
	</g>
	<rect x="98.6" y="725" class="st3" width="296.6" height="161.3"/>
	<g>
		<g>
			<rect x="98.6" y="814.5" class="st5" width="296.6" height="2"/>
		</g>
		<g>
			<rect x="244.6" y="834.8" class="st5" width="4" height="40.2"/>
		</g>
		<g class="st6">
			<rect x="161.3" y="860.5" class="st7" width="16.5" height="3"/>
		</g>
		<g>
			<path class="st7" d="M168.9,859.8h-5.9v-5.5l10.4-10.2l5.3,5.3L168.9,859.8z M166.1,856.8h1.6l7-7.4l-1.1-1.1l-7.4,7.3V856.8z"/>
		</g>
		<g>
			<path class="st7" d="M330.7,863.4h-15.3v-15.3h15.3V863.4z M318.4,860.4h9.3v-9.3h-9.3V860.4z"/>
		</g>
		<g>
			<path class="st7" d="M332.1,851.1h-18v-3h3.3l0-3.5h11.5v3.5h3.2V851.1z M320.4,848.1h5.5v-0.5h-5.5L320.4,848.1z"/>
		</g>
	</g>
	<g>
		<path d="M194.1,742.3h4.7c2.1,0,3.7,0.3,4.6,0.9c1,0.6,1.4,1.6,1.4,2.9c0,0.9-0.2,1.6-0.6,2.2c-0.4,0.6-1,0.9-1.7,1v0.1
			c1,0.2,1.6,0.6,2.1,1.2c0.4,0.6,0.6,1.4,0.6,2.3c0,1.4-0.5,2.4-1.5,3.2c-1,0.8-2.3,1.1-4,1.1h-5.6V742.3z M197.3,748.3h1.8
			c0.9,0,1.5-0.1,1.9-0.4s0.6-0.7,0.6-1.3c0-0.6-0.2-1-0.6-1.2c-0.4-0.2-1.1-0.4-2-0.4h-1.7V748.3z M197.3,750.8v3.9h2.1
			c0.9,0,1.5-0.2,1.9-0.5s0.6-0.8,0.6-1.5c0-1.2-0.9-1.9-2.7-1.9H197.3z"/>
		<path d="M210.1,757.3H207v-16h3.1V757.3z"/>
		<path d="M222.7,751.6c0,1.9-0.5,3.3-1.5,4.4s-2.4,1.6-4.1,1.6c-1.1,0-2.1-0.2-2.9-0.7c-0.8-0.5-1.5-1.2-1.9-2.1s-0.7-2-0.7-3.2
			c0-1.9,0.5-3.3,1.5-4.4s2.4-1.6,4.1-1.6c1.1,0,2.1,0.2,2.9,0.7s1.5,1.2,1.9,2.1S222.7,750.4,222.7,751.6z M214.8,751.6
			c0,1.1,0.2,2,0.6,2.6c0.4,0.6,1,0.9,1.8,0.9c0.8,0,1.4-0.3,1.8-0.9c0.4-0.6,0.5-1.4,0.5-2.6c0-1.1-0.2-2-0.6-2.6s-1-0.9-1.8-0.9
			c-0.8,0-1.4,0.3-1.8,0.8C215,749.6,214.8,750.4,214.8,751.6z"/>
		<path d="M228.9,757.5c-3.6,0-5.4-2-5.4-5.9c0-1.9,0.5-3.4,1.5-4.5c1-1,2.4-1.5,4.2-1.5c1.3,0,2.5,0.3,3.6,0.8l-0.9,2.4
			c-0.5-0.2-1-0.4-1.4-0.5c-0.4-0.1-0.8-0.2-1.3-0.2c-1.6,0-2.4,1.2-2.4,3.5c0,2.2,0.8,3.4,2.4,3.4c0.6,0,1.2-0.1,1.7-0.2
			c0.5-0.2,1-0.4,1.5-0.8v2.7c-0.5,0.3-1,0.5-1.5,0.7S229.7,757.5,228.9,757.5z"/>
		<path d="M237,751.1l1.4-1.7l3.2-3.5h3.5l-4.6,5l4.8,6.5h-3.6l-3.3-4.6l-1.3,1.1v3.6H234v-16h3.1v7.1L237,751.1L237,751.1z"/>
		<path d="M250.6,757.5c-3.6,0-5.4-2-5.4-5.9c0-1.9,0.5-3.4,1.5-4.5c1-1,2.4-1.5,4.2-1.5c1.3,0,2.5,0.3,3.6,0.8l-0.9,2.4
			c-0.5-0.2-1-0.4-1.4-0.5c-0.4-0.1-0.8-0.2-1.3-0.2c-1.6,0-2.4,1.2-2.4,3.5c0,2.2,0.8,3.4,2.4,3.4c0.6,0,1.2-0.1,1.7-0.2
			c0.5-0.2,1-0.4,1.5-0.8v2.7c-0.5,0.3-1,0.5-1.5,0.7C252.1,757.5,251.4,757.5,250.6,757.5z"/>
		<path d="M266.3,757.3h-3.1v-6.7c0-1.7-0.6-2.5-1.8-2.5c-0.9,0-1.5,0.3-1.9,0.9s-0.6,1.6-0.6,2.9v5.4h-3.1v-16h3.1v3.3
			c0,0.3,0,0.8-0.1,1.8l-0.1,0.9h0.2c0.7-1.1,1.8-1.7,3.3-1.7c1.3,0,2.4,0.4,3.1,1.1s1,1.8,1,3.1V757.3z"/>
		<path d="M275.8,757.3l-0.6-1.6h-0.1c-0.5,0.7-1.1,1.1-1.6,1.4c-0.6,0.3-1.3,0.4-2.2,0.4c-1.1,0-2-0.3-2.6-0.9
			c-0.6-0.6-0.9-1.5-0.9-2.7c0-1.2,0.4-2.1,1.3-2.7c0.9-0.6,2.1-0.9,3.9-1l2-0.1v-0.5c0-1.2-0.6-1.7-1.8-1.7c-0.9,0-2,0.3-3.2,0.8
			l-1-2.1c1.3-0.7,2.8-1,4.4-1c1.5,0,2.7,0.3,3.5,1s1.2,1.7,1.2,3.1v7.6H275.8z M274.8,752l-1.2,0c-0.9,0-1.6,0.2-2,0.5
			s-0.7,0.8-0.7,1.4c0,0.9,0.5,1.3,1.5,1.3c0.7,0,1.3-0.2,1.7-0.6c0.4-0.4,0.7-1,0.7-1.7V752z"/>
		<path d="M280,742.9c0-1,0.6-1.5,1.7-1.5s1.7,0.5,1.7,1.5c0,0.5-0.1,0.9-0.4,1.1c-0.3,0.3-0.7,0.4-1.3,0.4
			C280.5,744.4,280,743.9,280,742.9z M283.2,757.3h-3.1v-11.5h3.1V757.3z"/>
		<path d="M296.1,757.3h-3.1v-6.7c0-0.8-0.1-1.4-0.4-1.9c-0.3-0.4-0.8-0.6-1.4-0.6c-0.9,0-1.5,0.3-1.9,0.9c-0.4,0.6-0.6,1.6-0.6,2.9
			v5.4h-3.1v-11.5h2.4l0.4,1.5h0.2c0.3-0.6,0.8-1,1.4-1.3c0.6-0.3,1.3-0.4,2.1-0.4c1.3,0,2.3,0.4,3,1.1c0.7,0.7,1,1.8,1,3.1V757.3z"
			/>
	</g>
	<g>
		<path class="st8" d="M201.4,791.7c0,1.1-0.4,2-1.2,2.7s-2,1-3.4,1s-2.6-0.2-3.6-0.7v-2c0.6,0.3,1.2,0.5,1.9,0.7s1.3,0.2,1.8,0.2
			c0.8,0,1.4-0.2,1.8-0.5s0.6-0.7,0.6-1.3c0-0.5-0.2-0.9-0.5-1.2s-1.1-0.7-2.2-1.2c-1.2-0.5-2-1-2.5-1.6s-0.7-1.3-0.7-2.2
			c0-1.1,0.4-1.9,1.1-2.5s1.8-0.9,3.1-0.9c1.2,0,2.5,0.3,3.7,0.8l-0.7,1.7c-1.1-0.5-2.2-0.7-3.1-0.7c-0.7,0-1.2,0.1-1.5,0.4
			s-0.5,0.7-0.5,1.2c0,0.3,0.1,0.6,0.2,0.9s0.4,0.5,0.7,0.7s0.9,0.5,1.7,0.8c0.9,0.4,1.6,0.8,2.1,1.1s0.8,0.7,1,1.2
			S201.4,791.1,201.4,791.7z"/>
		<path class="st8" d="M207,795.4c-1.5,0-2.7-0.4-3.5-1.3s-1.3-2.1-1.3-3.6c0-1.6,0.4-2.8,1.2-3.7s1.9-1.4,3.3-1.4
			c1.3,0,2.3,0.4,3,1.2s1.1,1.9,1.1,3.2v1.1h-6.5c0,0.9,0.3,1.7,0.8,2.2s1.2,0.8,2,0.8c0.6,0,1.1-0.1,1.6-0.2s1-0.3,1.6-0.5v1.7
			c-0.5,0.2-1,0.4-1.5,0.5S207.6,795.4,207,795.4z M206.6,786.9c-0.7,0-1.2,0.2-1.6,0.6s-0.6,1-0.7,1.8h4.4c0-0.8-0.2-1.4-0.6-1.8
			S207.2,786.9,206.6,786.9z"/>
		<path class="st8" d="M220.7,795.2h-2.1v-6c0-0.8-0.2-1.3-0.5-1.7s-0.8-0.6-1.4-0.6c-0.9,0-1.5,0.3-1.9,0.8s-0.6,1.4-0.6,2.6v4.8
			h-2.1v-9.7h1.6l0.3,1.3h0.1c0.3-0.5,0.7-0.8,1.2-1.1s1.1-0.4,1.8-0.4c2.3,0,3.5,1.2,3.5,3.6V795.2z"/>
		<path class="st8" d="M226,795.4c-1.2,0-2.2-0.4-2.8-1.3s-1-2.1-1-3.7c0-1.6,0.3-2.8,1-3.7c0.7-0.9,1.6-1.3,2.9-1.3
			c1.3,0,2.2,0.5,2.9,1.4h0.1c-0.1-0.7-0.1-1.2-0.1-1.7v-3.5h2.1v13.7h-1.6l-0.4-1.3h-0.1C228.2,794.9,227.3,795.4,226,795.4z
			 M226.6,793.7c0.8,0,1.5-0.2,1.9-0.7s0.6-1.3,0.6-2.3v-0.3c0-1.2-0.2-2.1-0.6-2.6s-1-0.8-1.9-0.8c-0.7,0-1.3,0.3-1.7,0.9
			s-0.6,1.4-0.6,2.5c0,1.1,0.2,1.9,0.6,2.5S225.8,793.7,226.6,793.7z"/>
		<path class="st8" d="M244.3,795.2H237v-12.8h7.3v1.8h-5.2v3.5h4.8v1.8h-4.8v4h5.2V795.2z"/>
		<path class="st8" d="M250.6,795.2h-2.1v-11h-3.8v-1.8h9.7v1.8h-3.8V795.2z"/>
		<path class="st8" d="M265.6,795.2h-2.1v-5.8h-5.9v5.8h-2.1v-12.8h2.1v5.3h5.9v-5.3h2.1V795.2z"/>
		<path class="st8" d="M275.3,793.7c0.5,0,1-0.1,1.5-0.2v1.6c-0.2,0.1-0.5,0.2-0.9,0.3c-0.4,0.1-0.7,0.1-1.1,0.1c-2,0-2.9-1-2.9-3.1
			v-5.2h-1.3v-0.9l1.4-0.8l0.7-2.1h1.3v2.2h2.8v1.6h-2.8v5.2c0,0.5,0.1,0.9,0.4,1.1S274.9,793.7,275.3,793.7z"/>
		<path class="st8" d="M286.4,790.3c0,1.6-0.4,2.8-1.2,3.7s-1.9,1.3-3.4,1.3c-0.9,0-1.7-0.2-2.4-0.6s-1.2-1-1.6-1.8
			s-0.6-1.7-0.6-2.7c0-1.6,0.4-2.8,1.2-3.7s1.9-1.3,3.4-1.3c1.4,0,2.5,0.5,3.3,1.4S286.4,788.8,286.4,790.3z M279.4,790.3
			c0,2.2,0.8,3.4,2.5,3.4c1.6,0,2.5-1.1,2.5-3.4c0-2.2-0.8-3.3-2.5-3.3c-0.9,0-1.5,0.3-1.9,0.9S279.4,789.3,279.4,790.3z"/>
		<path class="st8" d="M296.3,795.2h-2.1v-11h-3.8v-1.8h9.7v1.8h-3.8V795.2z"/>
		<path class="st8" d="M305.9,785.3c0.4,0,0.8,0,1,0.1l-0.2,1.9c-0.3-0.1-0.6-0.1-0.9-0.1c-0.8,0-1.5,0.3-2,0.8s-0.8,1.2-0.8,2.1
			v5.1H301v-9.7h1.6l0.3,1.7h0.1c0.3-0.6,0.7-1,1.3-1.4C304.7,785.5,305.3,785.3,305.9,785.3z"/>
		<path class="st8" d="M312.1,795.4c-1.5,0-2.7-0.4-3.5-1.3c-0.9-0.9-1.3-2.1-1.3-3.6c0-1.6,0.4-2.8,1.2-3.7s1.9-1.4,3.3-1.4
			c1.3,0,2.3,0.4,3,1.2s1.1,1.9,1.1,3.2v1.1h-6.5c0,0.9,0.3,1.7,0.8,2.2s1.2,0.8,2,0.8c0.6,0,1.1-0.1,1.6-0.2s1-0.3,1.6-0.5v1.7
			c-0.5,0.2-1,0.4-1.5,0.5S312.7,795.4,312.1,795.4z M311.7,786.9c-0.7,0-1.2,0.2-1.6,0.6c-0.4,0.4-0.6,1-0.7,1.8h4.4
			c0-0.8-0.2-1.4-0.6-1.8S312.4,786.9,311.7,786.9z"/>
		<path class="st8" d="M323.4,795.2l-0.4-1.4h-0.1c-0.5,0.6-0.9,1-1.4,1.2s-1.1,0.3-1.8,0.3c-1,0-1.7-0.3-2.2-0.8
			c-0.5-0.5-0.8-1.2-0.8-2.2c0-1,0.4-1.8,1.1-2.3s1.9-0.8,3.4-0.8l1.7-0.1v-0.5c0-0.6-0.1-1.1-0.4-1.4c-0.3-0.3-0.7-0.5-1.3-0.5
			c-0.5,0-1,0.1-1.4,0.2s-0.9,0.3-1.3,0.5l-0.7-1.5c0.5-0.3,1.1-0.5,1.7-0.6s1.2-0.2,1.8-0.2c1.2,0,2.2,0.3,2.8,0.8s0.9,1.4,0.9,2.5
			v6.5H323.4z M320.3,793.8c0.8,0,1.4-0.2,1.8-0.6c0.5-0.4,0.7-1,0.7-1.8v-0.8l-1.2,0.1c-1,0-1.7,0.2-2.1,0.5
			c-0.4,0.3-0.7,0.7-0.7,1.3c0,0.4,0.1,0.8,0.4,1S319.8,793.8,320.3,793.8z"/>
		<path class="st8" d="M333.4,792.4c0,0.9-0.3,1.7-1,2.2s-1.7,0.8-3,0.8c-1.3,0-2.3-0.2-3.1-0.6V793c1.1,0.5,2.2,0.8,3.2,0.8
			c1.3,0,1.9-0.4,1.9-1.2c0-0.2-0.1-0.5-0.2-0.6s-0.4-0.3-0.7-0.5s-0.8-0.4-1.3-0.6c-1.1-0.4-1.9-0.9-2.3-1.3
			c-0.4-0.4-0.6-1-0.6-1.7c0-0.8,0.3-1.5,1-1.9s1.6-0.7,2.7-0.7c1.1,0,2.2,0.2,3.2,0.7l-0.7,1.6c-1-0.4-1.9-0.7-2.6-0.7
			c-1.1,0-1.6,0.3-1.6,0.9c0,0.3,0.1,0.6,0.4,0.8s0.9,0.5,1.9,0.9c0.8,0.3,1.4,0.6,1.7,0.9s0.6,0.6,0.8,0.9S333.4,792,333.4,792.4z"
			/>
		<path class="st8" d="M341.6,795.2l-0.3-1.3h-0.1c-0.3,0.5-0.7,0.8-1.2,1.1c-0.5,0.3-1.1,0.4-1.8,0.4c-1.2,0-2.1-0.3-2.6-0.9
			s-0.9-1.5-0.9-2.7v-6.4h2.1v6c0,0.7,0.2,1.3,0.5,1.7s0.8,0.6,1.4,0.6c0.9,0,1.5-0.3,1.9-0.8c0.4-0.5,0.6-1.4,0.6-2.6v-4.8h2.1v9.7
			H341.6z"/>
		<path class="st8" d="M350.2,785.3c0.4,0,0.8,0,1,0.1l-0.2,1.9c-0.3-0.1-0.6-0.1-0.9-0.1c-0.8,0-1.5,0.3-2,0.8s-0.8,1.2-0.8,2.1
			v5.1h-2.1v-9.7h1.6l0.3,1.7h0.1c0.3-0.6,0.7-1,1.3-1.4C349,785.5,349.6,785.3,350.2,785.3z"/>
		<path class="st8" d="M350.6,785.5h2.2l2,5.5c0.3,0.8,0.5,1.5,0.6,2.2h0.1c0.1-0.3,0.1-0.7,0.3-1.2s0.9-2.6,2.2-6.6h2.2l-4.2,11
			c-0.8,2-2,3-3.8,3c-0.5,0-0.9,0-1.3-0.1v-1.6c0.3,0.1,0.7,0.1,1.1,0.1c1,0,1.7-0.6,2.1-1.7l0.4-0.9L350.6,785.5z"/>
	</g>
	<g>
		<g>
			<path class="st9" d="M144,744.8c-0.1,0-0.1,0-0.2,0l-1.8-1.1c-0.1-0.1-0.2-0.2-0.2-0.3v-2.1c0-0.1,0.1-0.3,0.2-0.3l1.8-1.1
				c0.1-0.1,0.3-0.1,0.4,0l1.8,1.1c0.1,0.1,0.2,0.2,0.2,0.3v2.1c0,0.1-0.1,0.3-0.2,0.3l-1.8,1.1C144.1,744.8,144.1,744.8,144,744.8z
				 M142.5,743.1l1.5,0.8l1.5-0.8v-1.7l-1.5-0.8l-1.5,0.8V743.1z"/>
			<path class="st9" d="M157.3,750.3c-0.1,0-0.1,0-0.2,0l-0.2-0.1c-0.2-0.1-0.2-0.3-0.1-0.5c0.1-0.2,0.3-0.2,0.5-0.1l0.2,0.1
				c0.2,0.1,0.2,0.3,0.1,0.5C157.6,750.2,157.4,750.3,157.3,750.3L157.3,750.3z M155.4,749.2c-0.1,0-0.1,0-0.2,0l-0.8-0.5
				c0,0,0,0,0,0l-0.2-0.1c-0.2-0.1-0.2-0.3-0.1-0.5c0.1-0.2,0.3-0.2,0.5-0.1l0.2,0.1c0,0,0,0,0,0l0.8,0.5c0.2,0.1,0.2,0.3,0.1,0.5
				C155.7,749.2,155.5,749.2,155.4,749.2L155.4,749.2z M152.7,747.6c-0.1,0-0.1,0-0.2,0l-0.8-0.5l-0.2-0.1c-0.2-0.1-0.2-0.3-0.1-0.5
				c0.1-0.2,0.3-0.2,0.5-0.1l0.2,0.1c0,0,0,0,0,0l0.8,0.5c0.2,0.1,0.2,0.3,0.1,0.5C152.9,747.6,152.8,747.6,152.7,747.6L152.7,747.6
				z M149.9,746.1c-0.1,0-0.1,0-0.2,0l-0.8-0.5c0,0,0,0,0,0l-0.2-0.1c-0.2-0.1-0.2-0.3-0.1-0.5c0.1-0.2,0.3-0.2,0.5-0.1l0.2,0.1
				c0,0,0,0,0,0l0.8,0.5c0.2,0.1,0.2,0.3,0.1,0.5C150.2,746,150.1,746.1,149.9,746.1L149.9,746.1z M147.2,744.5c-0.1,0-0.1,0-0.2,0
				l-0.8-0.5c0,0,0,0,0,0l-0.2-0.1c-0.2-0.1-0.2-0.3-0.1-0.5c0.1-0.2,0.3-0.2,0.5-0.1l0.2,0.1l0.8,0.5c0.2,0.1,0.2,0.3,0.1,0.5
				C147.5,744.4,147.3,744.5,147.2,744.5L147.2,744.5z"/>
			<path class="st9" d="M159.1,766.9c-0.2,0-0.4-0.2-0.4-0.4v-0.2c0-0.2,0.2-0.4,0.4-0.4s0.4,0.2,0.4,0.4v0.2
				C159.4,766.7,159.3,766.9,159.1,766.9z M159.1,764.7c-0.2,0-0.4-0.2-0.4-0.4v-1.2c0-0.2,0.2-0.4,0.4-0.4s0.4,0.2,0.4,0.4v1.2
				C159.4,764.6,159.3,764.7,159.1,764.7z M159.1,761.6c-0.2,0-0.4-0.2-0.4-0.4V760c0-0.2,0.2-0.4,0.4-0.4s0.4,0.2,0.4,0.4v1.2
				C159.4,761.4,159.3,761.6,159.1,761.6z M159.1,758.4c-0.2,0-0.4-0.2-0.4-0.4v-1.2c0-0.2,0.2-0.4,0.4-0.4s0.4,0.2,0.4,0.4v1.2
				C159.4,758.2,159.3,758.4,159.1,758.4z M159.1,755.2c-0.2,0-0.4-0.2-0.4-0.4v-1.2c0-0.2,0.2-0.4,0.4-0.4s0.4,0.2,0.4,0.4v1.2
				C159.4,755.1,159.3,755.2,159.1,755.2z"/>
			<path class="st9" d="M145.8,776.3c-0.1,0-0.2-0.1-0.3-0.2c-0.1-0.2,0-0.4,0.1-0.5l0.2-0.1c0.2-0.1,0.4,0,0.5,0.1
				c0.1,0.2,0,0.4-0.1,0.5l-0.2,0.1C145.9,776.3,145.9,776.3,145.8,776.3L145.8,776.3z M147.7,775.2c-0.1,0-0.2-0.1-0.3-0.2
				c-0.1-0.2,0-0.4,0.1-0.5l0.8-0.5c0,0,0,0,0,0l0.2-0.1c0.2-0.1,0.4,0,0.5,0.1c0.1,0.2,0,0.4-0.1,0.5l-0.2,0.1c0,0,0,0,0,0
				l-0.8,0.5C147.8,775.2,147.8,775.2,147.7,775.2L147.7,775.2z M150.5,773.6c-0.1,0-0.2-0.1-0.3-0.2c-0.1-0.2,0-0.4,0.1-0.5
				l0.8-0.5c0,0,0,0,0,0l0.2-0.1c0.2-0.1,0.4,0,0.5,0.1c0.1,0.2,0,0.4-0.1,0.5l-0.2,0.1c0,0,0,0,0,0l-0.8,0.5
				C150.6,773.6,150.5,773.6,150.5,773.6L150.5,773.6z M153.2,772c-0.1,0-0.2-0.1-0.3-0.2c-0.1-0.2,0-0.4,0.1-0.5l0.8-0.5
				c0,0,0,0,0,0l0.2-0.1c0.2-0.1,0.4,0,0.5,0.1c0.1,0.2,0,0.4-0.1,0.5l-0.2,0.1h0l-0.8,0.5C153.3,772,153.3,772,153.2,772L153.2,772
				z M155.9,770.4c-0.1,0-0.2-0.1-0.3-0.2c-0.1-0.2,0-0.4,0.1-0.5l0.8-0.5c0,0,0,0,0,0l0.2-0.1c0.2-0.1,0.4,0,0.5,0.1
				c0.1,0.2,0,0.4-0.1,0.5l-0.2,0.1c0,0,0,0,0,0l-0.8,0.5C156.1,770.4,156,770.4,155.9,770.4L155.9,770.4z"/>
			<path class="st9" d="M142.2,776.2c-0.1,0-0.1,0-0.2,0l-0.2-0.1l0,0l-0.8-0.5c-0.2-0.1-0.2-0.3-0.1-0.5c0.1-0.2,0.3-0.2,0.5-0.1
				l0.8,0.5c0,0,0,0,0,0l0.2,0.1c0.2,0.1,0.2,0.3,0.1,0.5C142.4,776.1,142.3,776.2,142.2,776.2L142.2,776.2z M139.4,774.6
				c-0.1,0-0.1,0-0.2,0l-0.2-0.1l0,0l-0.8-0.5c-0.2-0.1-0.2-0.3-0.1-0.5c0.1-0.2,0.3-0.2,0.5-0.1l0.8,0.5l0.2,0.1
				c0.2,0.1,0.2,0.3,0.1,0.5C139.7,774.5,139.5,774.6,139.4,774.6L139.4,774.6z M136.7,773c-0.1,0-0.1,0-0.2,0l-0.2-0.1c0,0,0,0,0,0
				l-0.8-0.5c-0.2-0.1-0.2-0.3-0.1-0.5c0.1-0.2,0.3-0.2,0.5-0.1l0.8,0.5c0,0,0,0,0,0l0.2,0.1c0.2,0.1,0.2,0.3,0.1,0.5
				C136.9,772.9,136.8,773,136.7,773L136.7,773z M133.9,771.4c-0.1,0-0.1,0-0.2,0l-0.2-0.1l0,0l-0.8-0.5c-0.2-0.1-0.2-0.3-0.1-0.5
				c0.1-0.2,0.3-0.2,0.5-0.1l0.8,0.5c0,0,0,0,0,0l0.2,0.1c0.2,0.1,0.2,0.3,0.1,0.5C134.2,771.4,134.1,771.4,133.9,771.4L133.9,771.4
				z M131.2,769.8c-0.1,0-0.1,0-0.2,0l-0.2-0.1c-0.2-0.1-0.2-0.3-0.1-0.5s0.3-0.2,0.5-0.1l0.2,0.1c0.2,0.1,0.2,0.3,0.1,0.5
				C131.5,769.8,131.3,769.8,131.2,769.8L131.2,769.8z"/>
			<path class="st9" d="M129.1,766.9c-0.2,0-0.4-0.2-0.4-0.4v-0.1c0-0.2,0.2-0.4,0.4-0.4s0.4,0.2,0.4,0.4v0.1
				C129.5,766.7,129.3,766.9,129.1,766.9z M129.1,764.9c-0.2,0-0.4-0.2-0.4-0.4v-1.2c0-0.2,0.2-0.4,0.4-0.4s0.4,0.2,0.4,0.4v1.2
				C129.5,764.7,129.3,764.9,129.1,764.9z M129.1,761.7c-0.2,0-0.4-0.2-0.4-0.4v-1.2c0-0.2,0.2-0.4,0.4-0.4s0.4,0.2,0.4,0.4v1.2
				C129.5,761.6,129.3,761.7,129.1,761.7z M129.1,758.6c-0.2,0-0.4-0.2-0.4-0.4V757c0-0.2,0.2-0.4,0.4-0.4s0.4,0.2,0.4,0.4v1.2
				C129.5,758.4,129.3,758.6,129.1,758.6z M129.1,755.4c-0.2,0-0.4-0.2-0.4-0.4v-1.2c0-0.2,0.2-0.4,0.4-0.4s0.4,0.2,0.4,0.4v1.2
				C129.5,755.3,129.3,755.4,129.1,755.4z M129.1,752.3c-0.2,0-0.4-0.2-0.4-0.4v-1.1l0.4-0.2c0.2-0.1,0.4,0,0.5,0.1
				c0.1,0.2,0,0.4-0.1,0.5l-0.1,0v0.7C129.5,752.1,129.3,752.3,129.1,752.3L129.1,752.3z M131,750.2c-0.1,0-0.2-0.1-0.3-0.2
				c-0.1-0.2,0-0.4,0.1-0.5l0.2-0.1c0,0,0,0,0,0l0.8-0.5c0.2-0.1,0.4,0,0.5,0.1c0.1,0.2,0,0.4-0.1,0.5l-0.8,0.5c0,0,0,0,0,0
				l-0.2,0.1C131.2,750.2,131.1,750.2,131,750.2L131,750.2z M133.8,748.6c-0.1,0-0.2-0.1-0.3-0.2c-0.1-0.2,0-0.4,0.1-0.5l0.2-0.1
				c0,0,0,0,0,0l0.8-0.5c0.2-0.1,0.4,0,0.5,0.1c0.1,0.2,0,0.4-0.1,0.5l-0.8,0.5c0,0,0,0,0,0l-0.2,0.1
				C133.9,748.6,133.8,748.6,133.8,748.6L133.8,748.6z M136.5,747c-0.1,0-0.2-0.1-0.3-0.2c-0.1-0.2,0-0.4,0.1-0.5l0.2-0.1
				c0,0,0,0,0,0l0.8-0.5c0.2-0.1,0.4,0,0.5,0.1c0.1,0.2,0,0.4-0.1,0.5l-0.8,0.5c0,0,0,0,0,0l-0.2,0.1C136.6,747,136.6,747,136.5,747
				L136.5,747z M139.2,745.5c-0.1,0-0.2-0.1-0.3-0.2c-0.1-0.2,0-0.4,0.1-0.5l0.2-0.1c0,0,0,0,0,0l0.8-0.5c0.2-0.1,0.4,0,0.5,0.1
				c0.1,0.2,0,0.4-0.1,0.5l-0.8,0.5c0,0,0,0,0,0l-0.2,0.1C139.4,745.5,139.3,745.5,139.2,745.5L139.2,745.5z M142,743.9
				c-0.1,0-0.2-0.1-0.3-0.2c-0.1-0.2,0-0.4,0.1-0.5l0.2-0.1c0.2-0.1,0.4,0,0.5,0.1c0.1,0.2,0,0.4-0.1,0.5l-0.2,0.1
				C142.1,743.9,142,743.9,142,743.9L142,743.9z"/>
			<path class="st9" d="M144,742.6c-0.1,0-0.1,0-0.2,0l-1.8-1c-0.2-0.1-0.2-0.3-0.1-0.5c0.1-0.2,0.3-0.2,0.5-0.1l1.8,1
				c0.2,0.1,0.2,0.3,0.1,0.5C144.3,742.5,144.1,742.6,144,742.6L144,742.6z"/>
			<path class="st9" d="M144,742.6c-0.1,0-0.3-0.1-0.3-0.2c-0.1-0.2,0-0.4,0.1-0.5l1.8-1c0.2-0.1,0.4,0,0.5,0.1
				c0.1,0.2,0,0.4-0.1,0.5l-1.8,1C144.1,742.6,144.1,742.6,144,742.6L144,742.6z"/>
			<path class="st9" d="M144,744.8c-0.2,0-0.4-0.2-0.4-0.4v-2.2c0-0.2,0.2-0.4,0.4-0.4s0.4,0.2,0.4,0.4v2.2
				C144.4,744.6,144.2,744.8,144,744.8L144,744.8z"/>
			<path class="st9" d="M144,770.8c-0.1,0-0.1,0-0.2,0l-9.2-5.3c-0.1-0.1-0.2-0.2-0.2-0.3v-10.6c0-0.1,0.1-0.3,0.2-0.3l9.2-5.3
				c0.1-0.1,0.3-0.1,0.4,0l9.2,5.3c0.1,0.1,0.2,0.2,0.2,0.3v10.6c0,0.1-0.1,0.3-0.2,0.3l-9.2,5.3C144.1,770.8,144.1,770.8,144,770.8
				L144,770.8z M135.2,765l8.8,5.1l8.8-5.1v-10.2l-8.8-5.1l-8.8,5.1V765z"/>
			<path class="st9" d="M144,759.9c-0.1,0-0.1,0-0.2,0l-9.2-4.9c-0.2-0.1-0.2-0.3-0.1-0.5c0.1-0.2,0.3-0.2,0.5-0.1l9.2,4.9
				c0.2,0.1,0.2,0.3,0.1,0.5C144.3,759.8,144.1,759.9,144,759.9L144,759.9z"/>
			<path class="st9" d="M144,759.9c-0.1,0-0.3-0.1-0.3-0.2c-0.1-0.2,0-0.4,0.1-0.5l9.2-4.9c0.2-0.1,0.4,0,0.5,0.1
				c0.1,0.2,0,0.4-0.1,0.5l-9.2,4.9C144.1,759.9,144.1,759.9,144,759.9L144,759.9z"/>
			<path class="st9" d="M144,770.8c-0.2,0-0.4-0.2-0.4-0.4v-11c0-0.2,0.2-0.4,0.4-0.4s0.4,0.2,0.4,0.4v11
				C144.4,770.7,144.2,770.8,144,770.8z"/>
			<path class="st9" d="M144,778.8c-0.1,0-0.1,0-0.2,0l-1.8-1.1c-0.1-0.1-0.2-0.2-0.2-0.3v-2.1c0-0.1,0.1-0.3,0.2-0.3l1.8-1.1
				c0.1-0.1,0.3-0.1,0.4,0l1.8,1.1c0.1,0.1,0.2,0.2,0.2,0.3v2.1c0,0.1-0.1,0.3-0.2,0.3l-1.8,1.1C144.1,778.8,144.1,778.8,144,778.8z
				 M142.5,777.2l1.5,0.8l1.5-0.8v-1.7l-1.5-0.8l-1.5,0.8V777.2z"/>
			<path class="st9" d="M144,776.6c-0.1,0-0.1,0-0.2,0l-1.8-1c-0.2-0.1-0.2-0.3-0.1-0.5c0.1-0.2,0.3-0.2,0.5-0.1l1.8,1
				c0.2,0.1,0.2,0.3,0.1,0.5C144.3,776.6,144.1,776.6,144,776.6L144,776.6z"/>
			<path class="st9" d="M144,776.6c-0.1,0-0.3-0.1-0.3-0.2c-0.1-0.2,0-0.4,0.1-0.5l1.8-1c0.2-0.1,0.4,0,0.5,0.1
				c0.1,0.2,0,0.4-0.1,0.5l-1.8,1C144.1,776.6,144.1,776.6,144,776.6L144,776.6z"/>
			<path class="st9" d="M144,778.8c-0.2,0-0.4-0.2-0.4-0.4v-2.2c0-0.2,0.2-0.4,0.4-0.4s0.4,0.2,0.4,0.4v2.2
				C144.4,778.7,144.2,778.8,144,778.8z"/>
			<path class="st9" d="M159.1,753.6c-0.1,0-0.1,0-0.2,0l-1.8-1.1c-0.1-0.1-0.2-0.2-0.2-0.3v-2.1c0-0.1,0.1-0.3,0.2-0.3l1.8-1.1
				c0.1-0.1,0.3-0.1,0.4,0l1.8,1.1c0.1,0.1,0.2,0.2,0.2,0.3v2.1c0,0.1-0.1,0.3-0.2,0.3l-1.8,1.1
				C159.2,753.6,159.1,753.6,159.1,753.6L159.1,753.6z M157.6,752l1.5,0.8l1.5-0.8v-1.7l-1.5-0.8l-1.5,0.8V752z"/>
			<path class="st9" d="M159.1,751.4c-0.1,0-0.1,0-0.2,0l-1.8-1c-0.2-0.1-0.2-0.3-0.1-0.5c0.1-0.2,0.3-0.2,0.5-0.1l1.8,1
				c0.2,0.1,0.2,0.3,0.1,0.5C159.3,751.3,159.2,751.4,159.1,751.4L159.1,751.4z"/>
			<path class="st9" d="M159.1,751.4c-0.1,0-0.3-0.1-0.3-0.2c-0.1-0.2,0-0.4,0.1-0.5l1.8-1c0.2-0.1,0.4,0,0.5,0.1
				c0.1,0.2,0,0.4-0.1,0.5l-1.8,1C159.2,751.4,159.1,751.4,159.1,751.4L159.1,751.4z"/>
			<path class="st9" d="M159.1,753.6c-0.2,0-0.4-0.2-0.4-0.4V751c0-0.2,0.2-0.4,0.4-0.4s0.4,0.2,0.4,0.4v2.2
				C159.4,753.4,159.3,753.6,159.1,753.6z"/>
			<path class="st9" d="M159.1,771.1c-0.1,0-0.1,0-0.2,0l-1.8-1.1c-0.1-0.1-0.2-0.2-0.2-0.3l0-2.1c0-0.1,0.1-0.3,0.2-0.3l1.8-1.1
				c0.1-0.1,0.3-0.1,0.4,0l1.8,1.1c0.1,0.1,0.2,0.2,0.2,0.3v2.1c0,0.1-0.1,0.3-0.2,0.3l-1.8,1.1
				C159.2,771.1,159.1,771.1,159.1,771.1z M157.6,769.5l1.5,0.8l1.5-0.8v-1.7l-1.5-0.8l-1.5,0.8V769.5z"/>
			<path class="st9" d="M159.1,768.9c-0.1,0-0.1,0-0.2,0l-1.8-1c-0.2-0.1-0.2-0.3-0.1-0.5c0.1-0.2,0.3-0.2,0.5-0.1l1.8,1
				c0.2,0.1,0.2,0.3,0.1,0.5C159.3,768.9,159.2,768.9,159.1,768.9L159.1,768.9z"/>
			<path class="st9" d="M159.1,768.9c-0.1,0-0.3-0.1-0.3-0.2c-0.1-0.2,0-0.4,0.1-0.5l1.8-1c0.2-0.1,0.4,0,0.5,0.1
				c0.1,0.2,0,0.4-0.1,0.5l-1.8,1C159.2,768.9,159.1,768.9,159.1,768.9L159.1,768.9z"/>
			<path class="st9" d="M159.1,771.1c-0.2,0-0.4-0.2-0.4-0.4v-2.2c0-0.2,0.2-0.4,0.4-0.4s0.4,0.2,0.4,0.4v2.2
				C159.4,771,159.3,771.1,159.1,771.1z"/>
			<path class="st9" d="M129.1,753.6c-0.1,0-0.1,0-0.2,0l-1.8-1.1c-0.1-0.1-0.2-0.2-0.2-0.3v-2.1c0-0.1,0.1-0.3,0.2-0.3l1.8-1.1
				c0.1-0.1,0.3-0.1,0.4,0l1.8,1.1c0.1,0.1,0.2,0.2,0.2,0.3v2.1c0,0.1-0.1,0.3-0.2,0.3l-1.8,1.1
				C129.2,753.6,129.2,753.6,129.1,753.6L129.1,753.6z M127.6,752l1.5,0.8l1.5-0.8v-1.7l-1.5-0.8l-1.5,0.8V752z"/>
			<path class="st9" d="M129.1,751.4c-0.1,0-0.1,0-0.2,0l-1.8-1c-0.2-0.1-0.2-0.3-0.1-0.5c0.1-0.2,0.3-0.2,0.5-0.1l1.8,1
				c0.2,0.1,0.2,0.3,0.1,0.5C129.4,751.3,129.2,751.4,129.1,751.4L129.1,751.4z"/>
			<path class="st9" d="M129.1,751.4c-0.1,0-0.3-0.1-0.3-0.2c-0.1-0.2,0-0.4,0.1-0.5l1.8-1c0.2-0.1,0.4,0,0.5,0.1
				c0.1,0.2,0,0.4-0.1,0.5l-1.8,1C129.2,751.4,129.2,751.4,129.1,751.4L129.1,751.4z"/>
			<path class="st9" d="M129.1,753.6c-0.2,0-0.4-0.2-0.4-0.4V751c0-0.2,0.2-0.4,0.4-0.4s0.4,0.2,0.4,0.4v2.2
				C129.5,753.4,129.3,753.6,129.1,753.6z"/>
			<path class="st9" d="M129.1,771.1c-0.1,0-0.1,0-0.2,0l-1.8-1.1c-0.1-0.1-0.2-0.2-0.2-0.3v-2.1c0-0.1,0.1-0.3,0.2-0.3l1.8-1.1
				c0.1-0.1,0.3-0.1,0.4,0l1.8,1.1c0.1,0.1,0.2,0.2,0.2,0.3v2.1c0,0.1-0.1,0.3-0.2,0.3l-1.8,1.1
				C129.2,771.1,129.2,771.1,129.1,771.1L129.1,771.1z M127.7,769.5l1.5,0.8l1.5-0.8v-1.7l-1.5-0.8l-1.5,0.8V769.5z"/>
			<path class="st9" d="M129.1,768.9c-0.1,0-0.1,0-0.2,0l-1.8-1c-0.2-0.1-0.2-0.3-0.1-0.5c0.1-0.2,0.3-0.2,0.5-0.1l1.8,1
				c0.2,0.1,0.2,0.3,0.1,0.5C129.4,768.9,129.2,768.9,129.1,768.9L129.1,768.9z"/>
			<path class="st9" d="M129.1,768.9c-0.1,0-0.3-0.1-0.3-0.2c-0.1-0.2,0-0.4,0.1-0.5l1.8-1c0.2-0.1,0.4,0,0.5,0.1
				c0.1,0.2,0,0.4-0.1,0.5l-1.8,1C129.2,768.9,129.2,768.9,129.1,768.9L129.1,768.9z"/>
			<path class="st9" d="M129.1,771.1c-0.2,0-0.4-0.2-0.4-0.4v-2.2c0-0.2,0.2-0.4,0.4-0.4s0.4,0.2,0.4,0.4v2.2
				C129.5,771,129.3,771.1,129.1,771.1z"/>
		</g>
	</g>
	<g>
		<path class="st10" d="M142.3,522.1c-0.6-0.1-0.6-0.1-0.3-0.1c0.5-0.1,1.8,0,2.7,0.2c2.1,0.5,4,1.8,6,4l0.5,0.6l0.8-0.1
			c3.2-0.5,6.5-0.1,9.3,1.2c0.8,0.4,2,1,2.1,1.2c0,0.1,0.1,0.4,0.2,0.8c0.2,1.4,0.1,2.4-0.3,3.2c-0.2,0.4-0.2,0.6-0.1,0.9
			c0.1,0.3,0.5,0.5,0.8,0.5c0.7,0,1.4-1.1,1.8-2.6l0.1-0.6l0.3,0.3c1.5,1.7,2.6,3.9,2.8,5.6l0.1,0.4l-0.2-0.4
			c-0.4-0.7-0.9-1.1-1.4-1.5c-1-0.7-2-0.9-4.8-1c-2.5-0.1-3.9-0.3-5.3-0.8c-2.4-0.8-3.6-1.8-6.4-5.5c-1.3-1.7-2-2.6-2.8-3.3
			C146.3,523.4,144.5,522.5,142.3,522.1z"/>
		<path class="st10" d="M163.9,525.8c0.1-1.1,0.2-1.8,0.5-2.5c0.1-0.3,0.2-0.5,0.2-0.5s0,0.2-0.1,0.4c-0.2,0.6-0.3,1.5-0.1,2.6
			c0.2,1.3,0.3,1.5,1.7,2.9c0.6,0.7,1.4,1.5,1.7,1.9l0.5,0.7l-0.5-0.5c-0.6-0.6-2-1.7-2.3-1.8c-0.2-0.1-0.2-0.1-0.4,0
			c-0.1,0.1-0.1,0.3-0.2,1.1c0,1.3-0.2,2.1-0.6,3c-0.2,0.4-0.3,0.4-0.1-0.2c0.2-0.4,0.2-0.5,0.2-1.8c0-2.5-0.3-3.1-2.1-4.2
			c-0.4-0.3-1.2-0.6-1.6-0.8c-0.5-0.2-0.8-0.4-0.8-0.4c0,0,1.8,0.5,2.5,0.7c1,0.4,1.2,0.4,1.3,0.4
			C163.9,526.8,163.9,526.5,163.9,525.8z"/>
		<path class="st10" d="M143.5,530.1c-1.2-1.7-2-4.3-1.8-6.2l0.1-0.6l0.3,0.1c0.5,0.1,1.4,0.4,1.9,0.7c1.2,0.7,1.7,1.6,2.2,4
			c0.2,0.7,0.3,1.5,0.4,1.8c0.1,0.4,0.7,1.4,1.1,2.1c0.3,0.5,0.1,0.7-0.6,0.6C145.9,532.5,144.4,531.5,143.5,530.1z"/>
		<path class="st10" d="M162.5,542.8c-5.8-2.3-7.8-4.3-7.8-7.7c0-0.5,0-0.9,0-0.9c0,0,0.2,0.2,0.5,0.4c1.2,0.9,2.5,1.3,6.1,1.9
			c2.1,0.3,3.3,0.6,4.4,0.9c3.5,1.2,5.7,3.5,6.2,6.8c0.2,0.9,0.1,2.7-0.2,3.6c-0.2,0.7-0.8,2.1-0.9,2.1c0,0-0.1-0.2-0.1-0.4
			c-0.1-1.2-0.7-2.4-1.7-3.3C167.9,545.1,166.3,544.3,162.5,542.8z"/>
		<path class="st10" d="M158.4,543.7c-0.1-0.4-0.2-1-0.3-1.2l-0.1-0.4l0.3,0.3c0.4,0.4,0.7,1,0.9,1.7c0.2,0.6,0.2,0.7,0.2,1.6
			c0,0.9,0,1.1-0.2,1.6c-0.3,0.8-0.6,1.3-1.2,1.9c-1.1,1.1-2.4,1.7-4.4,1.9c-0.3,0-1.3,0.1-2.2,0.2c-2.2,0.1-3.6,0.3-4.9,0.8
			c-0.2,0.1-0.4,0.1-0.4,0.1c-0.1-0.1,0.8-0.6,1.6-0.9c1-0.5,2.1-0.8,4.3-1.1c1.1-0.2,2.3-0.4,2.6-0.5
			C157.4,548.7,158.9,546.5,158.4,543.7z"/>
		<path class="st10" d="M161,548.4c-0.8-1.6-0.9-3.2-0.5-4.7c0-0.2,0.1-0.3,0.2-0.3c0,0,0.2,0.1,0.4,0.2c0.4,0.2,1.1,0.6,2.9,1.7
			c2.4,1.3,3.7,2.3,4.6,3.4c0.8,1,1.3,2.1,1.5,3.5c0.1,0.8,0.1,2.7-0.1,3.5c-0.6,2.5-2.1,4.4-4.2,5.6c-0.3,0.2-0.6,0.3-0.6,0.3
			c0,0,0.1-0.3,0.2-0.6c0.7-1.5,0.8-2.9,0.3-4.5c-0.3-1-1-2.2-2.3-4.2C161.8,549.9,161.4,549.3,161,548.4z"/>
		<path class="st10" d="M139.4,557.3c2.1-1.8,4.8-3.1,7.2-3.5c1-0.2,2.8-0.1,3.8,0.1c1.6,0.4,2.9,1.3,3.7,2.3c0.7,1,1,1.9,1.3,3.9
			c0.1,0.8,0.3,1.6,0.3,1.8c0.2,1,0.7,1.9,1.3,2.3c0.9,0.7,2.5,0.7,4,0.1c0.3-0.1,0.5-0.2,0.5-0.2c0.1,0.1-0.7,0.6-1.3,0.8
			c-0.7,0.4-1.3,0.5-2.1,0.5c-1.4,0-2.6-0.7-3.5-2.2c-0.2-0.3-0.6-1.1-1-1.9c-1-2.3-1.5-3.1-2.7-3.8c-1-0.7-2.4-0.8-3.4-0.3
			c-1.3,0.6-1.7,2.3-0.7,3.4c0.4,0.4,1.1,0.8,1.7,0.9c1.1,0.1,2-0.7,2-1.8c0-0.7-0.3-1.1-1-1.4c-0.9-0.4-1.9,0.1-1.9,0.9
			c0,0.4,0.2,0.6,0.5,0.8c0.2,0.1,0.2,0.1,0,0.1c-0.9-0.2-1.1-1.2-0.4-1.9c0.8-0.8,2.5-0.5,3.1,0.7c0.2,0.5,0.3,1.4,0.1,2
			c-0.5,1.3-1.9,1.9-3.3,1.6c-1-0.2-1.4-0.5-2.5-1.7c-2-2.1-2.8-2.5-5.7-2.9l-0.6-0.1L139.4,557.3z"/>
		<path class="st11" d="M124.1,510.6c6.8,8.2,17.2,21,17.7,21.7c0.4,0.6,0.3,1.1-0.5,1.5c-0.4,0.2-1.2,0.5-1.7,0.5
			c-0.5,0-1-0.2-1.4-0.6c-0.3-0.3-1.4-1.9-3.9-5.9c-2-3-3.6-5.6-3.6-5.6c-0.1-0.1-0.1-0.1,3.4,6.3c2.2,4,3,5.4,3,5.6
			c0,0.4-0.1,0.6-0.6,1.1c-0.8,0.9-1.1,1.9-1.4,3.9c-0.3,2.3-1.1,3.9-3.3,6.7c-1.3,1.6-1.5,1.9-1.8,2.6c-0.4,0.8-0.5,1.3-0.6,2.3
			c0,1.1,0,1.8,0.4,2.9c0.3,0.9,0.6,1.5,1.4,2.7c0.7,1,1.1,1.8,1.1,2.1c0,0.2,0,0.2,1.1,0c2.5-0.6,4.5-1.6,5.7-2.8
			c0.7-0.8,0.9-1.2,0.9-2.2c0-0.7,0-0.8-0.2-1.2c-0.3-0.6-0.8-1.2-2-2c-1.6-1.1-2.2-1.9-2.4-3.1c-0.2-1,0-1.7,0.9-3.5
			c0.9-1.9,1.1-2.7,1.3-4.6c0.1-1.2,0.2-1.7,0.6-2.1c0.4-0.4,0.7-0.5,1.6-0.7c1.5-0.2,2.4-0.6,3.2-1.3c0.7-0.6,1-1.2,1-2.1l0-0.7
			l-0.4-0.4c-1.4-1.6-20.3-22.4-20.4-22.4C123.1,509.3,123.6,509.9,124.1,510.6z M133,551.9c0.3-0.5,0.1-1.2-0.4-1.6
			c-0.5-0.3-1.2-0.2-1.2,0.3c0,0.1,0.1,0.2,0.2,0.3c0.3,0.1,0.3,0.3,0.1,0.6c-0.2,0.3-0.2,0.6,0,0.8
			C132.2,552.6,132.8,552.4,133,551.9z"/>
		<path class="st11" d="M144.8,536.6c-0.7,0.2-1.4,1-1.6,1.7c-0.1,0.5-0.1,1.3,0.1,1.6c0.3,0.4,0.6,0.5,1.4,0.5c1.6,0,3-0.7,3.1-1.5
			c0.1-0.7-0.5-1.7-1.3-2.1C146.2,536.5,145.3,536.5,144.8,536.6z M146.7,538c0.2-0.3,0.1-0.7-0.3-1c-0.8-0.5-2-0.1-2,0.7
			c0,0.4,0.6,0.8,1.2,0.8C146,538.5,146.5,538.3,146.7,538z"/>
	</g>
</g>
<g id="Layer_5">
	<g>
		<g>
			<polygon class="st7" points="163.7,60.8 160.7,60.8 160.7,49.5 156.1,49.5 156.1,46.5 163.7,46.5 			"/>
		</g>
		<g>
			<polygon class="st7" points="146,78.9 137.6,78.9 128.3,70.8 128.3,46.5 136.4,46.5 136.4,49.5 131.3,49.5 131.3,69.4 
				138.8,75.9 146,75.9 			"/>
		</g>
		<g>
			<rect x="141.1" y="46.5" class="st7" width="10.3" height="3"/>
		</g>
		<g>
			<polygon class="st7" points="140,77.4 137,77.4 137,71.6 129.8,71.6 129.8,68.6 140,68.6 			"/>
		</g>
		<g>
			<rect x="129.8" y="54.6" class="st7" width="32.4" height="3"/>
		</g>
		<g>
			<path class="st7" d="M142.6,52.9h-7.7V42.3h7.7V52.9z M137.9,49.9h1.7v-4.6h-1.7V49.9z"/>
		</g>
		<g>
			<path class="st7" d="M157.6,52.9h-7.7V42.3h7.7V52.9z M152.9,49.9h1.7v-4.6h-1.7V49.9z"/>
		</g>
		<g>
			<path class="st7" d="M159.8,84.7c-6,0-10.9-4.9-10.9-10.9s4.9-10.9,10.9-10.9s10.9,4.9,10.9,10.9S165.9,84.7,159.8,84.7z
				 M159.8,65.8c-4.4,0-7.9,3.5-7.9,7.9s3.5,7.9,7.9,7.9s7.9-3.5,7.9-7.9S164.2,65.8,159.8,65.8z"/>
		</g>
		<g>
			<polygon class="st7" points="162,78.4 158.3,74.3 158.3,68.9 161.3,68.9 161.3,73.2 164.3,76.4 			"/>
		</g>
	</g>
</g>
<g id="Layer_4" class="st0">
	
		<image style="display:inline;overflow:visible;opacity:0.82;" width="305" height="807" xlink:href="109B10D5.jpg"  transform="matrix(1 0 0 1 431.7691 9.8617)">
	</image>
</g>
<g id="Layer_1" class="st0">
	
		<image style="display:inline;overflow:visible;opacity:0.86;" width="435" height="520" xlink:href="109B10D7.jpg"  transform="matrix(2.4838 0 0 2.4838 -293.9652 -205.7783)">
	</image>
</g>
</svg>
