<?xml version="1.0" encoding="utf-8"?>
<!-- Generator: Adobe Illustrator 26.5.0, SVG Export Plug-In . SVG Version: 6.00 Build 0)  -->
<svg version="1.1" xmlns="http://www.w3.org/2000/svg" xmlns:xlink="http://www.w3.org/1999/xlink" x="0px" y="0px"
	 viewBox="0 0 1920 1060.52" style="enable-background:new 0 0 1920 1060.52;" xml:space="preserve">
<style type="text/css">
	.st0{display:none;}
	.st1{display:inline;fill:#6700E7;}
	.st2{fill:#FF9C00;}
	.st3{fill:#FFFFFF;}
</style>
<g id="Layer_2" class="st0">
	<rect x="-0.94" class="st1" width="1921.89" height="1060.52"/>
</g>
<g id="Layer_1">
	<g>
		<g>
			<path class="st2" d="M795.3,707.31c27.48-0.04,113.15,0.09,113.15,0.09v70.06H766.64c-15.48,0-30.73-5.21-42.94-14.66
				c-20.08-15.53-28.09-41.64-25.45-67.37l13.47-131.05h-70.45l7.28-70.06H719l15.27-147.05l0.4-1.82
				c6.91-32.48,18.05-64.19,70.71-64.19h217.71v70.06l-198.14,0.02c-20.47,0-21.3,7.97-24.08,35.2l-29.74,285.53
				C768.16,702.23,767.82,707.34,795.3,707.31z"/>
		</g>
		<g>
			<path class="st3" d="M1283.24,494.32l-7.28,70.06l-70.61-0.15l-15.33,147.85c-4.81,45.95-33.3,65.38-77.27,65.38H978.69V707.4
				l120.75-0.13c20.43,0,21.55-10.48,24.12-35.2l29.67-285.83c3.12-31.55,3.61-34.93-24.15-34.93h-35.25v-70.06h140.89
				l-22.09,213.06H1283.24z"/>
		</g>
	</g>
</g>
</svg>
