<?xml version="1.0" encoding="utf-8"?>
<!-- Generator: Adobe Illustrator 26.4.1, SVG Export Plug-In . SVG Version: 6.00 Build 0)  -->
<svg version="1.1" id="Layer_1" xmlns="http://www.w3.org/2000/svg" xmlns:xlink="http://www.w3.org/1999/xlink" x="0px" y="0px"
	 viewBox="0 0 1920 1080" style="enable-background:new 0 0 1920 1080;" xml:space="preserve">
<style type="text/css">
	.st0{fill:#484EB9;}
	.st1{fill:#FF9C00;}
</style>
<g>
	<path class="st0" d="M1330.87,636h-54.25l0.16,140.44c-5.77,27.17-17.33,95.56-109.92,95.56l-151.62,0.26l-0.78-111.87
		c0,0,41.52,0,60.16,0h14.95c19.14,0,33.7-13.45,37.54-32.19l-2.35-339.82l-110.3-0.99l0.78-114l261,0.99l0.31,285.42h54.32V636z"/>
</g>
<g>
	<path class="st1" d="M842.98,419.89l-3.11,301.55c0.83,28.66,27.27,38.15,52.7,38.15l74.57,0.42v115.78h-150.4
		c-25.13,0-49.9-8.45-69.77-23.81c-33.65-26-40.83-36.08-41.4-112.61L705.39,636h-71.77v-76.2h71.63l-0.31-186.07
		c1.2-60.75,38.48-99.35,104.2-99.35h160l-1.67,113.17h-84.99C863.28,387.55,846.75,401.09,842.98,419.89z"/>
</g>
</svg>
