<?xml version="1.0" encoding="utf-8"?>
<!-- Generator: Adobe Illustrator 26.5.0, SVG Export Plug-In . SVG Version: 6.00 Build 0)  -->
<svg version="1.1" id="Layer_1" xmlns="http://www.w3.org/2000/svg" xmlns:xlink="http://www.w3.org/1999/xlink" x="0px" y="0px"
	 viewBox="0 0 1920 484.79" style="enable-background:new 0 0 1920 484.79;" xml:space="preserve">
<style type="text/css">
	.st0{fill:#FF9C00;}
	.st1{fill:#FFFFFF;}
</style>
<g>
	<g>
		<path class="st0" d="M202.34,317.47c11.59-0.02,47.74,0.04,47.74,0.04v29.56h-59.83c-6.53,0-12.97-2.2-18.12-6.19
			c-8.47-6.55-11.85-17.57-10.74-28.42l5.68-55.29h-29.72l3.07-29.56h29.72l6.44-62.04l0.17-0.77c2.92-13.7,7.62-27.08,29.83-27.08
			h91.85v29.56l-83.6,0.01c-8.64,0-8.99,3.36-10.16,14.85L192.14,302.6C190.89,315.33,190.75,317.49,202.34,317.47z"/>
	</g>
	<g>
		<path class="st1" d="M408.21,227.61l-3.07,29.56l-29.79-0.06l-6.47,62.38c-2.03,19.39-14.05,27.59-32.6,27.59h-56.56v-29.56
			l50.94-0.05c8.62,0,9.09-4.42,10.18-14.85l12.52-120.59c1.32-13.31,1.52-14.74-10.19-14.74h-14.87v-29.56h59.44l-9.32,89.89
			H408.21z"/>
	</g>
</g>
<g>
	<path class="st0" d="M661.33,347.48h-86.37c-6.53,0-12.96-1.92-18.11-5.91c-8.47-6.55-12.66-17.63-10.8-28.42l15.26-146.89
		l0.16-0.77c1.4-14.33,7.62-27.08,29.83-27.08h91.71l-3.05,29.36c0,0-68.51,0-74.28,0c-5.02,0-15.26,3.78-16.35,14.46
		c0,0-11.8,113.62-12.53,121.11c-1.19,12.14,2.96,14.48,13.1,14.48c8.04,0,74.47,0,74.47,0L661.33,347.48z"/>
</g>
<g>
	<path class="st0" d="M842.68,317.81l-3.03,29.66c-1.31,0-3.2,0.1-4.71,0.1c-9.6,0-20.46-1.01-28.37-9.65
		c-6.04-6.59-8.48-15.99-7.23-27.93c0.66-6.35,2.25-21.76,4.22-40.92c0.01-0.06,0.01-0.11,0.01-0.17c0.24-2.86-0.92-6.16-2.99-8.44
		c-1.86-2.06-4.15-3.06-7-3.06h-31.55c-17.3,0-19.21,16.57-19.22,16.74h-0.01c-1.88,18.2-3.4,32.74-4.04,38.91
		c-1.54,14.83-7.69,25.06-18.3,30.43c-6.83,3.46-13.41,3.96-14.66,3.93c-1.05-0.02-13.79-0.05-14.78-0.05l3.12-29.56
		c12.26,0,15-4.55,15.94-14.86c3.2-34.92,15.39-147.96,17.13-164.72h29.66c0,0-4.8,46.65-9.48,91.61c4.36-1.32,9.11-2.08,14.23-2.18
		l0.19-0.01l31.84-0.01c4.84,0,9.51,1.08,13.86,2.72c4.16-40.41,8.48-82.42,9.48-92.13h29.61c-0.12,1.09-16.26,158.36-16.87,164.73
		C828.77,313.26,828.25,317.81,842.68,317.81z"/>
</g>
<g>
	<path class="st0" d="M922.69,243.01l0.02-0.11c-0.01,0.08-0.01,0.12-0.01,0.13L922.69,243.01z"/>
</g>
<g>
	<path class="st0" d="M1125.69,167.77c-10.6,0-14.35,5.18-14.73,8.19l-11.21,111.42c-1.19,11.8-2.12,20.99-2.6,25.68
		c-1.93,18.59-11.38,26.88-18.96,30.55c-6.91,3.35-14.17,3.87-20.22,3.87c-1.45,0-7.44-0.03-8.73-0.06
		c-1.06-0.02-0.56,0.06-1.54,0.06l3.08-29.66c15.28,0,16.83-4.55,17.72-14.86l13.05-130.01c1.95-18.77,11.71-27.09,19.56-30.77
		c8.7-4.08,17.92-3.9,24.65-3.77c1.03,0.02,2.02,0.04,2.97,0.04L1125.69,167.77z"/>
</g>
<g>
	<path class="st0" d="M1021.35,172.95c2.05-20.11,3.23-34.54-26.08-34.54c-9.02,0-47.89,0-47.89,0c-6.73-0.13-15.95-0.31-24.65,3.77
		c-7.85,3.68-17.62,12-19.56,30.78c0,0-12.47,125.36-13.09,130.01c-1.37,10.3-5.9,14.59-17.68,14.85l-3.09,29.66
		c0.99,0,0.48-0.08,1.54-0.05c1.28,0.02,7.28,0.05,8.73,0.05c6.03,0,13.3-0.52,20.21-3.87c7.59-3.67,17.03-11.96,18.96-30.55
		c0.49-4.69,1.42-13.88,2.6-25.68l1.32-13.17l0.02-0.11l0.01-0.08l0.02-0.23v-0.02c0.32-2.71,2.68-16.36,18.3-16.36h31.55
		c2.84,0,5.13,1.01,6.99,3.07c2.07,2.28,2.46,5.58,2.22,8.44c0,0,0.01-0.01,0.03-0.02c-2.25,21.88-4.05,39.42-4.22,41.11
		c-1.25,11.94,1.19,21.34,7.23,27.93c7.91,8.63,18.78,9.65,28.37,9.65c1.5,0,3.4-0.1,4.71-0.1l3.06-29.56
		c-14.85-0.11-14.33-4.66-12.95-14.96C1008.87,296.62,1018.46,201.3,1021.35,172.95z M972.66,227.65l-30.82,0.01l-1.21,0.02
		c-5.1,0.1-9.12,0.86-13.48,2.17l5.42-53.89c0.76-7.32,0.86-8.18,14.74-8.18h29.85c14.94,0,14.69,1.02,14.22,8.18
		c0,0-2.63,25.58-5.58,54.4C981.44,228.72,977.48,227.65,972.66,227.65z"/>
</g>
<g>
	<path class="st0" d="M1300.26,317.81l-3.02,29.66l-20.16-0.11c-0.81,0-1.63,0.01-2.44,0.03c-0.8,0.01-1.66,0.02-2.56,0.02
		c-11.78,0-32.33-1.88-40.87-31.84c-1.65-5.77-25.27-104.8-31.81-132.21c-4.03,39.77-16.16,162.74-16.29,164.11h-29.55
		c0.15-1.5,16.73-171.72,16.73-171.72c0.03-2.81-0.83-8.26-14.88-7.85l3.09-29.56h28.6c6.9,0,14.71,0,22.35,5.18
		c6.82,4.61,12.97,11.66,16.81,25.49l33.67,137.42c3.34-32.13,17.46-168.03,17.46-168.03h29.72c-0.16,1.5-17.1,164.55-17.1,164.55
		C1288.93,313.26,1288.52,317.81,1300.26,317.81z"/>
</g>
<g>
	<path class="st1" d="M1485.41,138.41l-3.05,29.36h-29.72l-15.7,151.21l0,0c-1.53,14.68-8.96,28.42-31.05,28.42h-79l3.04-29.56
		l47.67-0.03c29.72,0,30.24-4.67,31.3-14.85s14.01-135.19,14.01-135.19h-59.43l3.06-29.36H1485.41z"/>
</g>
<g>
	<path class="st1" d="M1555.47,167.77l-6.61,63.47c3.44-2.43,10.26-3.21,18.18-3.29h27.89l-3.06,29.56l-24.4-0.1
		c-13.24,0-21.49,3.65-23.25,18.96l-2.74,26.6c-1.09,9.72-1.17,14.85,14.43,14.85h59.44l-3.08,29.66h-69.46
		c-10.92-0.37-19.3-3.58-24.9-9.94c-5.65-6.39-8-15.2-6.98-26.18l0.02-0.15l14.72-143.45h-13.59l3.05-29.36H1634l-3.05,29.36
		H1555.47z"/>
</g>
<g>
	<polygon class="st1" points="1714.9,347.48 1734.4,167.77 1779.54,167.77 1782.59,138.41 1663.72,138.41 1660.67,167.77 
		1704.68,167.77 1686.25,347.48 	"/>
</g>
</svg>
