<?xml version="1.0" encoding="utf-8"?>
<!-- Generator: Adobe Illustrator 26.4.1, SVG Export Plug-In . SVG Version: 6.00 Build 0)  -->
<svg version="1.1" id="Layer_1" xmlns="http://www.w3.org/2000/svg" xmlns:xlink="http://www.w3.org/1999/xlink" x="0px" y="0px"
	 viewBox="0 0 1920 471.83" style="enable-background:new 0 0 1920 471.83;" xml:space="preserve">
<style type="text/css">
	.st0{fill:#484EB9;}
	.st1{fill:#FF9C00;}
</style>
<g>
	<g>
		<path class="st0" d="M1471.76,266.34h-22.81l0.06,54.5c-2.43,11.43-7.29,40.21-46.25,40.21l-63.78,0.11l-0.33-47.06
			c0,0,17.47,0,25.31,0h6.29c8.05,0,14.18-5.67,15.79-13.55l-0.99-142.97l-46.4-0.42l0.33-47.96l109.8,0.42l0.12,115.5h22.86V266.34
			z"/>
	</g>
</g>
<g>
	<path class="st1" d="M897.18,300.64c0,30.14-0.27,61.07-0.27,61.38l-41.23-0.37c0-0.31,0.27-31.06,0.27-61.02
		c0-18.98-15.44-34.42-34.42-34.42h-34.43v94.94h-41.23V109.61h41.23v115.38h34.43C863.24,224.99,897.18,258.92,897.18,300.64z"/>
</g>
<g>
	<rect x="1086.93" y="170.66" class="st1" width="41.23" height="190.49"/>
</g>
<g>
	<path class="st1" d="M982.26,167.84H942.9v41.23h39.36c12.21,0,22.96,6.39,29.07,16.01c-10.89-0.05-23.53-0.09-34.35-0.09
		c-35.63,0-64.8,28.21-66.32,63.48c-0.04,0.97-0.06,1.94-0.06,2.91v3.49c0,0.98,0.02,1.94,0.06,2.91
		c1.53,35.26,30.69,63.48,66.32,63.48c12.55,0,27.55-0.06,39.44-0.11v0.63l41.23,0.13c0-0.87,0.27-88.32,0.27-118.4
		C1057.91,201.78,1023.98,167.84,982.26,167.84z M976.97,320.02c-13.87,0-25.16-11.29-25.16-25.16v-3.49
		c0-13.88,11.29-25.16,25.16-25.16c12.64,0,27.78,0.06,39.68,0.11c-0.03,16.31-0.08,36.19-0.13,53.58
		C1004.64,319.97,989.56,320.02,976.97,320.02z"/>
</g>
<g>
	<path class="st1" d="M910.65,297.78h-0.06v-2.91C910.59,295.84,910.61,296.81,910.65,297.78z"/>
</g>
<g>
	<path class="st1" d="M910.65,288.46c-0.04,0.97-0.06,1.94-0.06,2.91v-2.91H910.65z"/>
</g>
<g>
	<g>
		<path class="st0" d="M1535.52,307.77c0-13.88,0.06-29.06,0.12-41.39c7.32,0.04,16.06,0.07,25.42,0.07v-0.11
			c26.94-0.06,48.85-22.01,48.85-48.96c0-27-21.97-48.96-48.97-48.96c-36.6,0-66.38,29.78-66.38,66.38v6.41h0.01
			c-0.03,2.65-0.28,37.46-0.28,66.57c0,33.48,26.25,53.48,51.62,53.48h55.55v-41.23h-55.55
			C1542.06,320.02,1535.52,317.44,1535.52,307.77z M1560.94,209.65c4.27,0,7.74,3.46,7.74,7.73c0,4.26-3.47,7.73-7.74,7.73v0.11
			c-8.46,0-16.41-0.03-23.23-0.06C1541.5,216.06,1550.48,209.65,1560.94,209.65z"/>
	</g>
</g>
<g>
	<polygon class="st0" points="1751.32,167.98 1751.32,209.21 1699.71,209.21 1699.71,361.15 1658.48,361.15 1658.48,209.21 
		1625.82,209.21 1625.82,167.98 	"/>
</g>
<g>
	<path class="st1" d="M1304.77,361.22l-41.23-0.13c0-0.87,0.28-87.57,0.28-117.59c0-18.98-15.44-34.43-34.43-34.43h-34.43v152.08
		h-41.23V167.84h75.66c41.72,0,75.66,33.94,75.66,75.66C1305.05,273.58,1304.77,360.34,1304.77,361.22z"/>
</g>
<g>
	<path class="st1" d="M667.2,170.83l-1.31,126.87c0.35,12.06,11.47,16.05,22.17,16.05l31.38,0.18v48.71h-63.28
		c-10.57,0-20.99-3.56-29.35-10.02c-14.16-10.94-17.18-15.18-17.42-47.38l-0.06-38.91h-30.21v-41.23h30.14l-0.13-73.7
		c0.5-25.56,16.19-41.8,43.84-41.8h67.31l-0.7,47.61H683.8C675.73,157.22,668.78,162.91,667.2,170.83z"/>
</g>
<g>
	<g>
		<path class="st0" d="M489.31,266.34h-22.81l0.06,54.5c-2.43,11.43-7.29,40.21-46.25,40.21l-63.78,0.11l-0.33-47.06
			c0,0,17.47,0,25.31,0h6.29c8.05,0,14.18-5.67,15.79-13.55l-0.99-142.97l-46.4-0.42l0.33-47.96l109.8,0.42l0.12,115.5h22.86V266.34
			z"/>
	</g>
</g>
<g>
	<path class="st1" d="M273,170.83l-1.31,126.87c0.35,12.06,11.47,16.05,22.17,16.05l31.38,0.18v48.71h-63.28
		c-10.57,0-20.99-3.56-29.35-10.02c-14.16-10.94-17.18-15.18-17.42-47.38l-0.06-38.91h-30.21v-41.23h30.14l-0.13-73.7
		c0.5-25.56,16.19-41.8,43.84-41.8h67.31l-0.7,47.61h-35.76C281.53,157.22,274.58,162.91,273,170.83z"/>
</g>
</svg>
