<?xml version="1.0" encoding="UTF-8" standalone="no"?>
<svg
   xmlns:dc="http://purl.org/dc/elements/1.1/"
   xmlns:cc="http://creativecommons.org/ns#"
   xmlns:rdf="http://www.w3.org/1999/02/22-rdf-syntax-ns#"
   xmlns:svg="http://www.w3.org/2000/svg"
   xmlns="http://www.w3.org/2000/svg"
   viewBox="0 0 733.33331 553.33331"
   height="553.33331"
   width="733.33331"
   xml:space="preserve"
   id="svg2"
   version="1.1"><metadata
     id="metadata8"><rdf:RDF><cc:Work
         rdf:about=""><dc:format>image/svg+xml</dc:format><dc:type
           rdf:resource="http://purl.org/dc/dcmitype/StillImage" /></cc:Work></rdf:RDF></metadata><defs
     id="defs6"><clipPath
       id="clipPath18"
       clipPathUnits="userSpaceOnUse"><path
         id="path16"
         d="M 0,415 H 550 V 0 H 0 Z" /></clipPath><linearGradient
       id="linearGradient64"
       spreadMethod="pad"
       gradientTransform="matrix(180.68059,133.27353,133.27353,-180.68059,227.63525,126.14355)"
       gradientUnits="userSpaceOnUse"
       y2="0"
       x2="1"
       y1="0"
       x1="0"><stop
         id="stop48"
         offset="0"
         style="stop-opacity:1;stop-color:#ffffff" /><stop
         id="stop50"
         offset="0.0109863"
         style="stop-opacity:1;stop-color:#ffffff" /><stop
         id="stop52"
         offset="0.06397351"
         style="stop-opacity:1;stop-color:#fff100" /><stop
         id="stop54"
         offset="0.274719"
         style="stop-opacity:1;stop-color:#fff100" /><stop
         id="stop56"
         offset="0.46184317"
         style="stop-opacity:1;stop-color:#ed1e61" /><stop
         id="stop58"
         offset="0.62088"
         style="stop-opacity:1;stop-color:#ed1e61" /><stop
         id="stop60"
         offset="0.75833758"
         style="stop-opacity:1;stop-color:#ed1e61" /><stop
         id="stop62"
         offset="1"
         style="stop-opacity:1;stop-color:#054282" /></linearGradient><clipPath
       id="clipPath74"
       clipPathUnits="userSpaceOnUse"><path
         id="path72"
         d="M 0,415 H 550 V 0 H 0 Z" /></clipPath><linearGradient
       id="linearGradient112"
       spreadMethod="pad"
       gradientTransform="matrix(180.67755,133.27129,133.27129,-180.67755,261.94238,79.633789)"
       gradientUnits="userSpaceOnUse"
       y2="0"
       x2="1"
       y1="0"
       x1="0"><stop
         id="stop96"
         offset="0"
         style="stop-opacity:1;stop-color:#ffffff" /><stop
         id="stop98"
         offset="0.0109863"
         style="stop-opacity:1;stop-color:#ffffff" /><stop
         id="stop100"
         offset="0.06397351"
         style="stop-opacity:1;stop-color:#fff100" /><stop
         id="stop102"
         offset="0.274719"
         style="stop-opacity:1;stop-color:#fff100" /><stop
         id="stop104"
         offset="0.46184317"
         style="stop-opacity:1;stop-color:#ed1e61" /><stop
         id="stop106"
         offset="0.62088"
         style="stop-opacity:1;stop-color:#ed1e61" /><stop
         id="stop108"
         offset="0.75833758"
         style="stop-opacity:1;stop-color:#ed1e61" /><stop
         id="stop110"
         offset="1"
         style="stop-opacity:1;stop-color:#054282" /></linearGradient><linearGradient
       id="linearGradient144"
       spreadMethod="pad"
       gradientTransform="matrix(180.6833,133.27554,133.27554,-180.6833,270.46045,68.082031)"
       gradientUnits="userSpaceOnUse"
       y2="0"
       x2="1"
       y1="0"
       x1="0"><stop
         id="stop128"
         offset="0"
         style="stop-opacity:1;stop-color:#ffffff" /><stop
         id="stop130"
         offset="0.0109863"
         style="stop-opacity:1;stop-color:#ffffff" /><stop
         id="stop132"
         offset="0.06397351"
         style="stop-opacity:1;stop-color:#fff100" /><stop
         id="stop134"
         offset="0.274719"
         style="stop-opacity:1;stop-color:#fff100" /><stop
         id="stop136"
         offset="0.46184317"
         style="stop-opacity:1;stop-color:#ed1e61" /><stop
         id="stop138"
         offset="0.62088"
         style="stop-opacity:1;stop-color:#ed1e61" /><stop
         id="stop140"
         offset="0.75833758"
         style="stop-opacity:1;stop-color:#ed1e61" /><stop
         id="stop142"
         offset="1"
         style="stop-opacity:1;stop-color:#054282" /></linearGradient><linearGradient
       id="linearGradient176"
       spreadMethod="pad"
       gradientTransform="matrix(180.68033,133.27333,133.27333,-180.68033,225.72949,128.72656)"
       gradientUnits="userSpaceOnUse"
       y2="0"
       x2="1"
       y1="0"
       x1="0"><stop
         id="stop160"
         offset="0"
         style="stop-opacity:1;stop-color:#ffffff" /><stop
         id="stop162"
         offset="0.0109863"
         style="stop-opacity:1;stop-color:#ffffff" /><stop
         id="stop164"
         offset="0.06397351"
         style="stop-opacity:1;stop-color:#fff100" /><stop
         id="stop166"
         offset="0.274719"
         style="stop-opacity:1;stop-color:#fff100" /><stop
         id="stop168"
         offset="0.46184317"
         style="stop-opacity:1;stop-color:#ed1e61" /><stop
         id="stop170"
         offset="0.62088"
         style="stop-opacity:1;stop-color:#ed1e61" /><stop
         id="stop172"
         offset="0.75833758"
         style="stop-opacity:1;stop-color:#ed1e61" /><stop
         id="stop174"
         offset="1"
         style="stop-opacity:1;stop-color:#054282" /></linearGradient><linearGradient
       id="linearGradient208"
       spreadMethod="pad"
       gradientTransform="matrix(180.68327,133.27551,133.27551,-180.68327,235.87305,114.97363)"
       gradientUnits="userSpaceOnUse"
       y2="0"
       x2="1"
       y1="0"
       x1="0"><stop
         id="stop192"
         offset="0"
         style="stop-opacity:1;stop-color:#ffffff" /><stop
         id="stop194"
         offset="0.0109863"
         style="stop-opacity:1;stop-color:#ffffff" /><stop
         id="stop196"
         offset="0.06397351"
         style="stop-opacity:1;stop-color:#fff100" /><stop
         id="stop198"
         offset="0.274719"
         style="stop-opacity:1;stop-color:#fff100" /><stop
         id="stop200"
         offset="0.46184317"
         style="stop-opacity:1;stop-color:#ed1e61" /><stop
         id="stop202"
         offset="0.62088"
         style="stop-opacity:1;stop-color:#ed1e61" /><stop
         id="stop204"
         offset="0.75833758"
         style="stop-opacity:1;stop-color:#ed1e61" /><stop
         id="stop206"
         offset="1"
         style="stop-opacity:1;stop-color:#054282" /></linearGradient></defs><g
     transform="matrix(1.3333333,0,0,-1.3333333,0,553.33333)"
     id="g10"><g
       id="g12"><g
         clip-path="url(#clipPath18)"
         id="g14"><g
           transform="translate(161.0005,222.5532)"
           id="g20"><path
             id="path22"
             style="fill:#231f20;fill-opacity:1;fill-rule:nonzero;stroke:none"
             d="m 0,0 c 2.916,2.742 11.956,20.259 27.122,52.554 8.665,25.616 12.843,41.748 12.534,48.402 l -1.108,5.164 -0.867,-0.04 C 21.022,87.192 9.297,58.827 2.503,20.982 Z m -2.165,-47.054 -0.827,-0.905 0.04,-0.868 c 1.859,-40.054 7.954,-65.272 18.292,-75.661 l 6.154,-1.456 c 7.808,0.363 15.527,8.842 23.164,25.422 l 2.827,14.041 c -0.853,18.36 -17.405,31.503 -49.65,39.427 m 41.097,163.625 c 5.848,-1.177 8.997,-6.538 9.441,-16.081 C 46.286,70.54 29.878,30.655 -0.849,-19.169 c -1.302,-0.062 -1.875,-6.465 -1.718,-19.208 38.03,-7.657 57.593,-23.265 58.687,-46.834 l 0.081,-1.736 c 0.677,-14.604 -6.765,-29.149 -22.32,-43.637 l -11.118,-3.993 -1.735,-0.081 c -19.086,-0.884 -29.997,28.168 -32.735,87.161 l -0.041,0.869 c -2.588,2.63 -11.919,3.938 -28.003,3.919 -19.809,-0.92 -32.91,-5.872 -39.305,-14.867 l -1.533,-4.417 -1.736,-0.079 c -0.255,5.491 5.261,11.544 16.547,18.155 7.938,3.845 20.872,6.184 38.799,7.017 l 15.657,-0.142 -0.041,0.867 c 1.778,46.015 5.655,74.887 11.632,86.614 9.91,33.064 21.367,54.751 34.366,65.063 z" /></g><g
           transform="translate(222.3105,305.0957)"
           id="g24"><path
             id="path26"
             style="fill:#231f20;fill-opacity:1;fill-rule:nonzero;stroke:none"
             d="m 0,0 c 1.302,0 2.459,-2.318 3.473,-6.949 -8.108,-54.138 -12.158,-91.485 -12.158,-112.036 1.879,-19.689 6.222,-29.532 13.027,-29.532 l 0.868,-0.867 v -0.869 l -6.947,-1.738 c -8.108,0 -13.32,8.973 -15.634,26.926 v 6.08 c 0,29.527 4.631,68.899 13.896,118.115 L -2.605,0 Z" /></g><g
           transform="translate(407.4971,258.8467)"
           id="g28"><path
             id="path30"
             style="fill:#231f20;fill-opacity:1;fill-rule:nonzero;stroke:none"
             d="m 0,0 h 1.738 c 3.475,0 6.657,-2.605 9.553,-7.816 v -4.342 c 0,-3.187 -2.029,-6.081 -6.078,-8.686 H 2.605 c -5.79,0.869 -8.683,3.474 -8.683,7.818 v 3.473 c 0,3.474 2.024,6.657 6.078,9.553 m -3.907,-34.088 h 0.868 l 3.475,-3.475 v -0.868 l -3.475,-36.477 1.739,-19.107 -2.607,-0.869 c -5.21,1.738 -7.818,6.657 -7.818,14.765 v 7.815 c 1.74,25.477 4.344,38.216 7.818,38.216" /></g><g
           transform="translate(425.9531,183.5029)"
           id="g32"><path
             id="path34"
             style="fill:#231f20;fill-opacity:1;fill-rule:nonzero;stroke:none"
             d="m 0,0 c 0.722,-4.633 2.749,-6.945 6.078,-6.945 4.485,0 9.12,2.024 13.898,6.078 v 6.078 l -0.869,3.475 0.869,0.868 -0.869,4.342 v 0.869 l 0.869,0.871 -0.869,3.471 H 16.504 C 7.671,19.107 2.172,12.737 0,0 m 34.74,118.986 h 0.869 L 38.213,116.38 29.53,39.952 28.66,11.292 V 5.211 c 10.566,8.106 15.853,14.767 15.853,19.977 H 45.38 V 24.319 C 45.38,17.66 40.095,7.526 29.53,-6.078 l 6.297,-21.495 -0.87,-0.868 h -0.869 c -8.684,6.367 -12.81,11.795 -12.375,16.283 H 20.846 C 14.619,-14.474 9.695,-15.631 6.078,-15.631 H 5.211 c -8.108,0 -12.74,4.92 -13.897,14.764 v 1.736 c 0,13.027 6.368,21.421 19.107,25.187 h 5.211 l 4.344,-0.868 c 4.63,62.532 9.554,93.798 14.764,93.798" /></g></g></g><g
       id="g36"><g
         id="g38"><g
           id="g44"><g
             id="g46"><path
               id="path66"
               style="fill:url(#linearGradient64);stroke:none"
               d="m 392.72,267.036 c -1.757,-4.877 -5.313,-3.633 -8.951,-2.388 v 0 c -4.719,1.612 -9.576,3.226 -10.829,-8.511 v 0 c -2.219,-20.788 -3.883,-16.295 -15.591,-2.371 v 0 c -11.708,13.925 -23.917,0.757 -26.693,-33.959 v 0 c -2.519,-31.531 -4.438,-51.065 -8.475,-56.314 v 0 c -4.036,-5.249 2.485,41.846 -6.611,54.851 v 0 c -8.225,11.756 -18.167,-4.541 -27.399,-25.28 v 0 c -8.86,-19.898 -3.484,4.894 0.756,15.592 v 0 c 4.238,10.697 3.784,21.293 -4.087,12.11 v 0 c -13.962,-16.29 -15.491,-86.536 8.325,-35.27 v 0 c 23.819,51.264 15.566,16.816 17.106,-16.804 v 0 c 1.817,-39.66 20.383,-41.931 27.248,36.785 v 0 c 6.864,78.716 20.185,28.661 31.89,27.853 v 0 c 5.497,-0.379 6.333,6.912 6.984,14.201 v 0 c 0.737,8.235 1.237,16.47 7.953,13.653 v 0 c 6.925,-2.907 9.016,1.695 10.857,6.297 v 0 c 1.996,4.987 3.698,9.974 10.942,5.408 v 0 c -1.756,1.965 -3.667,3.22 -5.591,3.219 v 0 c -2.721,0 -5.468,-2.51 -7.834,-9.072" /></g></g></g></g><g
       id="g68"><g
         clip-path="url(#clipPath74)"
         id="g70"><g
           transform="translate(250.2266,177.7236)"
           id="g76"><path
             id="path78"
             style="fill:#231f20;fill-opacity:1;fill-rule:nonzero;stroke:none"
             d="m 0,0 c -13.522,-7.972 -21.192,-1.312 -17.661,8.479 3.534,9.79 12.396,19.893 15.743,20.989 C 3.934,31.385 8.174,28.862 12.009,21.597 15.845,14.332 13.521,7.972 0,0 m -12.72,29.12 c -0.05,0.008 -0.087,0.018 -0.136,0.024 -9.197,-9.106 -13.82,-17.548 -13.82,-25.318 V 1.22 c 0,-6.226 4.05,-10.281 12.159,-12.158 h 5.21 c 14.185,0 24.319,7.816 30.397,23.45 v 6.078 c 0,2.282 -1.47,5.464 -4.409,9.544 -2.794,3.628 -14.326,16.065 -29.401,0.986" /></g><g
           transform="translate(367.3916,177.7236)"
           id="g80"><path
             id="path82"
             style="fill:#231f20;fill-opacity:1;fill-rule:nonzero;stroke:none"
             d="m 0,0 c -13.524,-7.972 -21.193,-1.312 -17.661,8.479 3.531,9.79 12.396,19.893 15.74,20.989 5.856,1.917 10.096,-0.606 13.93,-7.871 C 15.842,14.332 13.521,7.972 0,0 m -12.72,29.12 c -0.052,0.008 -0.089,0.018 -0.137,0.024 C -22.054,20.038 -26.678,11.596 -26.678,3.826 V 1.22 c 0,-6.226 4.051,-10.281 12.159,-12.158 h 5.212 c 14.185,0 24.317,7.816 30.395,23.45 v 6.078 c 0,2.282 -1.471,5.464 -4.407,9.544 -2.795,3.628 -14.326,16.065 -29.401,0.986" /></g></g></g><g
       id="g84"><g
         id="g86"><g
           id="g92"><g
             id="g94"><path
               id="path114"
               style="fill:url(#linearGradient112);stroke:none"
               d="m 319.18,119.525 c -3.456,-7.371 1.992,-11.742 5.897,-7.348 v 0 c 6.571,7.392 -6.861,13.243 -2.419,26.448 v 0 c -3.938,-9.218 -0.024,-11.734 -3.478,-19.1" /></g></g></g></g><g
       id="g116"><g
         id="g118"><g
           id="g124"><g
             id="g126"><path
               id="path146"
               style="fill:url(#linearGradient144);stroke:none"
               d="m 320.798,104.324 c -1.328,-2.833 0.766,-4.512 2.264,-2.826 v 0 c 2.524,2.841 -2.632,5.088 -0.927,10.155 v 0 c -1.515,-3.537 -0.01,-4.502 -1.337,-7.329" /></g></g></g></g><g
       id="g148"><g
         id="g150"><g
           id="g156"><g
             id="g158"><path
               id="path178"
               style="fill:url(#linearGradient176);stroke:none"
               d="m 272.587,160.188 c -2.721,-7.671 3.127,-11.491 6.585,-6.738 v 0 c 5.82,7.997 -8.118,12.513 -4.985,26.087 v 0 c -3.023,-9.556 1.119,-11.681 -1.6,-19.349" /></g></g></g></g><g
       id="g180"><g
         id="g182"><g
           id="g188"><g
             id="g190"><path
               id="path210"
               style="fill:url(#linearGradient208);stroke:none"
               d="m 280.422,143.299 c 1.846,-2.541 4.971,-0.497 3.519,3.603 v 0 c -1.454,4.098 0.76,5.229 -0.859,10.336 v 0 c 1.677,-7.254 -5.769,-9.666 -2.66,-13.939" /></g></g></g></g></g></svg>