<?xml version="1.0" encoding="UTF-8" standalone="no"?>
<!DOCTYPE svg PUBLIC "-//W3C//DTD SVG 1.1//EN" "http://www.w3.org/Graphics/SVG/1.1/DTD/svg11.dtd">
<svg version="1.1" xmlns="http://www.w3.org/2000/svg" xmlns:xlink="http://www.w3.org/1999/xlink" preserveAspectRatio="xMidYMid meet" viewBox="0 0 640 640" width="640" height="640"><defs><path d="M214.59 256.44C218.48 252.79 230.52 229.45 250.73 186.41C262.28 152.28 267.85 130.78 267.44 121.91C267.34 121.46 266.84 119.16 265.96 115.03C265.27 115.07 264.88 115.08 264.8 115.09C242.6 140.26 226.98 178.05 217.93 228.48C217.26 234.07 215.26 250.85 214.59 256.44ZM211.71 319.14L210.61 320.35C210.64 321.04 210.66 321.43 210.66 321.5C213.14 374.88 221.26 408.48 235.03 422.33C235.85 422.52 242.41 424.07 243.23 424.27C253.64 423.78 263.92 412.48 274.1 390.39C274.48 388.52 277.49 373.55 277.87 371.68C276.73 347.21 254.67 329.7 211.71 319.14M266.47 101.11C274.26 102.68 278.46 109.82 279.05 122.54C276.27 162.44 254.41 215.59 213.46 281.98C211.73 282.07 210.96 290.6 211.17 307.58C261.85 317.78 287.92 338.58 289.37 369.99C289.38 370.22 289.47 372.07 289.48 372.3C290.38 391.76 280.47 411.14 259.74 430.45C258.75 430.8 253.81 432.58 244.92 435.77C243.54 435.83 242.77 435.87 242.61 435.88C217.18 437.05 202.64 398.34 198.99 319.73C198.99 319.62 198.94 318.69 198.94 318.57C195.49 315.07 183.06 313.33 161.62 313.35C135.23 314.58 117.77 321.18 109.25 333.16C109.11 333.56 108.43 335.52 107.2 339.05C105.82 339.11 105.05 339.15 104.89 339.15C104.55 331.84 111.9 323.77 126.94 314.96C137.52 309.84 154.75 306.72 178.64 305.61C180.03 305.62 186.99 305.69 199.51 305.8C199.47 305.11 199.45 304.72 199.45 304.65C201.82 243.33 206.99 204.86 214.95 189.23C228.16 145.17 243.42 116.27 260.74 102.53C261.89 102.25 265.33 101.39 266.47 101.11Z" id="e4W7MQCtMa"></path><path d="M296.29 146.45C298.02 146.45 299.57 149.54 300.92 155.71C290.11 227.85 284.72 277.62 284.72 305C287.22 331.24 293.01 344.35 302.08 344.35C302.15 344.43 302.54 344.82 303.23 345.51L303.23 346.67C297.68 348.06 294.59 348.83 293.98 348.98C283.17 348.98 276.23 337.03 273.14 313.1C273.14 312.29 273.14 305.81 273.14 305C273.14 265.66 279.31 213.19 291.66 147.61C291.74 147.53 292.12 147.15 292.82 146.45C294.67 146.45 295.83 146.45 296.29 146.45Z" id="agt1Qg6PB"></path><path d="M543.06 208.08C544.45 208.08 545.22 208.08 545.37 208.08C550 208.08 554.24 211.55 558.1 218.49C558.1 219.07 558.1 223.7 558.1 224.28C558.1 228.53 555.4 232.38 550 235.85C549.66 235.85 546.88 235.85 546.53 235.85C538.81 234.7 534.96 231.23 534.96 225.44C534.96 224.97 534.96 221.27 534.96 220.81C534.96 216.18 537.65 211.94 543.06 208.08M537.85 253.5L539.01 253.5L543.64 258.13L543.64 259.29L539.01 307.9L541.32 333.36C539.24 334.05 538.08 334.44 537.85 334.51C530.91 332.2 527.43 325.64 527.43 314.84C527.43 313.8 527.43 305.47 527.43 304.43C529.75 270.48 533.22 253.5 537.85 253.5" id="c1jyecXrFw"></path><path d="M567.65 308.48C568.61 314.65 571.31 317.73 575.75 317.73C581.73 317.73 587.9 315.03 594.27 309.63C594.27 309.09 594.27 306.39 594.27 301.53L593.11 296.9L594.27 295.75L593.11 289.96L593.11 288.8L594.27 287.64L593.11 283.02C591.03 283.02 589.87 283.02 589.64 283.02C577.87 283.02 570.54 291.5 567.65 308.48M613.94 149.92L615.1 149.92L618.57 153.4L607 255.24L605.84 293.43C605.84 298.29 605.84 300.99 605.84 301.53C619.92 290.73 626.96 281.86 626.96 274.91C627.04 274.91 627.43 274.91 628.12 274.91C628.12 275.61 628.12 275.99 628.12 276.07C628.12 284.94 621.08 298.45 607 316.58C607.56 318.49 610.36 328.03 615.39 345.22L614.23 346.38C613.54 346.38 613.15 346.38 613.07 346.38C601.5 337.89 596 330.66 596.58 324.68C596.47 324.68 595.54 324.68 595.43 324.68C587.13 327.76 580.57 329.31 575.75 329.31C575.63 329.31 574.71 329.31 574.59 329.31C563.79 329.31 557.62 322.75 556.08 309.63C556.08 309.4 556.08 307.55 556.08 307.32C556.08 289.96 564.56 278.77 581.54 273.76C582 273.76 584.31 273.76 588.48 273.76C591.95 274.45 593.88 274.84 594.27 274.91C600.44 191.59 607 149.92 613.94 149.92" id="dqSLD9f90"></path><path d="M523.37 197.17C521.02 203.67 516.29 202.01 511.44 200.35C511.44 200.35 511.44 200.35 511.44 200.35C505.15 198.2 498.68 196.05 497.01 211.69C497.01 211.69 497.01 211.69 497.01 211.69C494.05 239.39 491.83 233.4 476.23 214.85C476.23 214.85 476.23 214.85 476.23 214.85C460.63 196.29 444.36 213.84 440.66 260.1C440.66 260.1 440.66 260.1 440.66 260.1C437.31 302.12 434.75 328.15 429.37 335.14C429.37 335.14 429.37 335.14 429.37 335.14C423.99 342.14 432.68 279.38 420.56 262.05C420.56 262.05 420.56 262.05 420.56 262.05C409.6 246.38 396.35 268.1 384.05 295.74C384.05 295.74 384.05 295.74 384.05 295.74C372.24 322.25 379.41 289.22 385.06 274.96C385.06 274.96 385.06 274.96 385.06 274.96C390.71 260.71 390.1 246.59 379.61 258.82C379.61 258.82 379.61 258.82 379.61 258.82C361.01 280.53 358.97 374.13 390.71 305.82C390.71 305.82 390.71 305.82 390.71 305.82C422.44 237.51 411.45 283.41 413.5 328.21C413.5 328.21 413.5 328.21 413.5 328.21C415.92 381.06 440.66 384.09 449.81 279.2C449.81 279.2 449.81 279.2 449.81 279.2C458.95 174.3 476.71 241 492.3 242.08C492.3 242.08 492.3 242.08 492.3 242.08C499.63 242.59 500.74 232.87 501.61 223.16C501.61 223.16 501.61 223.16 501.61 223.16C502.59 212.18 503.26 201.21 512.21 204.96C512.21 204.96 512.21 204.96 512.21 204.96C521.43 208.84 524.22 202.71 526.67 196.57C526.67 196.57 526.67 196.57 526.67 196.57C529.33 189.93 531.6 183.28 541.25 189.37C541.25 189.37 541.25 189.37 541.25 189.37C538.91 186.75 536.37 185.08 533.8 185.08C533.8 185.08 533.8 185.08 533.8 185.08C530.18 185.08 526.52 188.42 523.37 197.17" id="dpNtgvX07"></path><linearGradient id="gradienta2ANr1ITGg" gradientUnits="userSpaceOnUse" x1="303.39" y1="384.91" x2="544.15" y2="207.32"><stop style="stop-color: #ffffff;stop-opacity: 1" offset="0%"></stop><stop style="stop-color: #ffffff;stop-opacity: 1" offset="1.09863%"></stop><stop style="stop-color: #fff100;stop-opacity: 1" offset="6.397351%"></stop><stop style="stop-color: #fff100;stop-opacity: 1" offset="27.471899999999998%"></stop><stop style="stop-color: #ed1e61;stop-opacity: 1" offset="46.184317%"></stop><stop style="stop-color: #ed1e61;stop-opacity: 1" offset="62.088%"></stop><stop style="stop-color: #ed1e61;stop-opacity: 1" offset="75.83375799999999%"></stop><stop style="stop-color: #054282;stop-opacity: 1" offset="100%"></stop></linearGradient><path d="M333.49 316.18C315.47 326.8 305.25 317.93 309.95 304.88C314.66 291.83 326.47 278.37 330.93 276.91C338.73 274.36 344.38 277.72 349.49 287.4C354.6 297.08 351.51 305.56 333.49 316.18M316.54 277.37C316.47 277.36 316.42 277.35 316.36 277.34C304.1 289.48 297.94 300.73 297.94 311.08C297.94 311.43 297.94 314.21 297.94 314.55C297.94 322.85 303.34 328.25 314.14 330.75C314.84 330.75 320.39 330.75 321.09 330.75C339.99 330.75 353.49 320.34 361.59 299.51C361.59 298.7 361.59 292.22 361.59 291.41C361.59 288.37 359.63 284.13 355.72 278.69C351.99 273.85 336.63 257.28 316.54 277.37" id="f3Si1b9DtN"></path><path d="M489.61 316.18C471.59 326.8 461.37 317.93 466.08 304.88C470.79 291.83 482.6 278.37 487.05 276.91C494.86 274.36 500.51 277.72 505.62 287.4C510.72 297.08 507.63 305.56 489.61 316.18M472.66 277.37C472.6 277.36 472.55 277.35 472.48 277.34C460.23 289.48 454.07 300.73 454.07 311.08C454.07 311.43 454.07 314.21 454.07 314.55C454.07 322.85 459.46 328.25 470.27 330.75C470.96 330.75 476.52 330.75 477.21 330.75C496.11 330.75 509.62 320.34 517.71 299.51C517.71 298.7 517.71 292.22 517.71 291.41C517.71 288.37 515.75 284.13 511.84 278.69C508.12 273.85 492.75 257.28 472.66 277.37" id="b7ffUJQP"></path><path d="M425.37 393.73C420.77 403.55 428.03 409.38 433.23 403.52C433.23 403.52 433.23 403.52 433.23 403.52C441.99 393.67 424.09 385.87 430.01 368.28C430.01 368.28 430.01 368.28 430.01 368.28C424.76 380.56 429.97 383.91 425.37 393.73" id="ay4InNnsx"></path><linearGradient id="gradientm2VIcKt5KQ" gradientUnits="userSpaceOnUse" x1="349.1" y1="446.89" x2="589.86" y2="269.3"><stop style="stop-color: #ffffff;stop-opacity: 1" offset="0%"></stop><stop style="stop-color: #ffffff;stop-opacity: 1" offset="1.09863%"></stop><stop style="stop-color: #fff100;stop-opacity: 1" offset="6.397351%"></stop><stop style="stop-color: #fff100;stop-opacity: 1" offset="27.471899999999998%"></stop><stop style="stop-color: #ed1e61;stop-opacity: 1" offset="46.184317%"></stop><stop style="stop-color: #ed1e61;stop-opacity: 1" offset="62.088%"></stop><stop style="stop-color: #ed1e61;stop-opacity: 1" offset="75.83375799999999%"></stop><stop style="stop-color: #054282;stop-opacity: 1" offset="100%"></stop></linearGradient><path d="M427.53 413.99C425.76 417.76 428.55 420 430.54 417.75C430.54 417.75 430.54 417.75 430.54 417.75C433.91 413.97 427.04 410.97 429.31 404.22C429.31 404.22 429.31 404.22 429.31 404.22C427.29 408.93 429.3 410.22 427.53 413.99" id="f4xZj62hFA"></path><linearGradient id="gradientd2RZtWDpgM" gradientUnits="userSpaceOnUse" x1="360.45" y1="462.28" x2="601.22" y2="284.68"><stop style="stop-color: #ffffff;stop-opacity: 1" offset="0%"></stop><stop style="stop-color: #ffffff;stop-opacity: 1" offset="1.09863%"></stop><stop style="stop-color: #fff100;stop-opacity: 1" offset="6.397351%"></stop><stop style="stop-color: #fff100;stop-opacity: 1" offset="27.471899999999998%"></stop><stop style="stop-color: #ed1e61;stop-opacity: 1" offset="46.184317%"></stop><stop style="stop-color: #ed1e61;stop-opacity: 1" offset="62.088%"></stop><stop style="stop-color: #ed1e61;stop-opacity: 1" offset="75.83375799999999%"></stop><stop style="stop-color: #054282;stop-opacity: 1" offset="100%"></stop></linearGradient><path d="M363.28 339.54C359.66 349.77 367.45 354.86 372.06 348.52C372.06 348.52 372.06 348.52 372.06 348.52C379.81 337.87 361.24 331.85 365.42 313.76C365.42 313.76 365.42 313.76 365.42 313.76C361.39 326.5 366.91 329.33 363.28 339.54" id="f7jJykWF9"></path><linearGradient id="gradienthbzW98TcYn" gradientUnits="userSpaceOnUse" x1="300.85" y1="381.47" x2="541.61" y2="203.88"><stop style="stop-color: #ffffff;stop-opacity: 1" offset="0%"></stop><stop style="stop-color: #ffffff;stop-opacity: 1" offset="1.09863%"></stop><stop style="stop-color: #fff100;stop-opacity: 1" offset="6.397351%"></stop><stop style="stop-color: #fff100;stop-opacity: 1" offset="27.471899999999998%"></stop><stop style="stop-color: #ed1e61;stop-opacity: 1" offset="46.184317%"></stop><stop style="stop-color: #ed1e61;stop-opacity: 1" offset="62.088%"></stop><stop style="stop-color: #ed1e61;stop-opacity: 1" offset="75.83375799999999%"></stop><stop style="stop-color: #054282;stop-opacity: 1" offset="100%"></stop></linearGradient><path d="M373.72 362.05C376.18 365.44 380.35 362.71 378.41 357.25C378.41 357.25 378.41 357.25 378.41 357.25C376.48 351.79 379.43 350.28 377.27 343.48C377.27 343.48 377.27 343.48 377.27 343.48C379.5 353.14 369.58 356.36 373.72 362.05" id="b7jmiyC2y"></path><linearGradient id="gradienta4dZykHy8C" gradientUnits="userSpaceOnUse" x1="314.36" y1="399.79" x2="555.13" y2="222.2"><stop style="stop-color: #ffffff;stop-opacity: 1" offset="0%"></stop><stop style="stop-color: #ffffff;stop-opacity: 1" offset="1.09863%"></stop><stop style="stop-color: #fff100;stop-opacity: 1" offset="6.397351%"></stop><stop style="stop-color: #fff100;stop-opacity: 1" offset="27.471899999999998%"></stop><stop style="stop-color: #ed1e61;stop-opacity: 1" offset="46.184317%"></stop><stop style="stop-color: #ed1e61;stop-opacity: 1" offset="62.088%"></stop><stop style="stop-color: #ed1e61;stop-opacity: 1" offset="75.83375799999999%"></stop><stop style="stop-color: #054282;stop-opacity: 1" offset="100%"></stop></linearGradient></defs><g><g><g><use xlink:href="#e4W7MQCtMa" opacity="1" fill="#ffffff" fill-opacity="1"></use><g><use xlink:href="#e4W7MQCtMa" opacity="1" fill-opacity="0" stroke="#000000" stroke-width="1" stroke-opacity="0"></use></g></g><g><use xlink:href="#agt1Qg6PB" opacity="1" fill="#ffffff" fill-opacity="1"></use><g><use xlink:href="#agt1Qg6PB" opacity="1" fill-opacity="0" stroke="#000000" stroke-width="1" stroke-opacity="0"></use></g></g><g><use xlink:href="#c1jyecXrFw" opacity="1" fill="#ffffff" fill-opacity="1"></use><g><use xlink:href="#c1jyecXrFw" opacity="1" fill-opacity="0" stroke="#000000" stroke-width="1" stroke-opacity="0"></use></g></g><g><use xlink:href="#dqSLD9f90" opacity="1" fill="#ffffff" fill-opacity="1"></use><g><use xlink:href="#dqSLD9f90" opacity="1" fill-opacity="0" stroke="#000000" stroke-width="1" stroke-opacity="0"></use></g></g><g><use xlink:href="#dpNtgvX07" opacity="1" fill="url(#gradienta2ANr1ITGg)"></use><g><use xlink:href="#dpNtgvX07" opacity="1" fill-opacity="0" stroke="#000000" stroke-width="1" stroke-opacity="0"></use></g></g><g><use xlink:href="#f3Si1b9DtN" opacity="1" fill="#ffffff" fill-opacity="1"></use><g><use xlink:href="#f3Si1b9DtN" opacity="1" fill-opacity="0" stroke="#000000" stroke-width="1" stroke-opacity="0"></use></g></g><g><use xlink:href="#b7ffUJQP" opacity="1" fill="#ffffff" fill-opacity="1"></use><g><use xlink:href="#b7ffUJQP" opacity="1" fill-opacity="0" stroke="#000000" stroke-width="1" stroke-opacity="0"></use></g></g><g><use xlink:href="#ay4InNnsx" opacity="1" fill="url(#gradientm2VIcKt5KQ)"></use><g><use xlink:href="#ay4InNnsx" opacity="1" fill-opacity="0" stroke="#000000" stroke-width="1" stroke-opacity="0"></use></g></g><g><use xlink:href="#f4xZj62hFA" opacity="1" fill="url(#gradientd2RZtWDpgM)"></use><g><use xlink:href="#f4xZj62hFA" opacity="1" fill-opacity="0" stroke="#000000" stroke-width="1" stroke-opacity="0"></use></g></g><g><use xlink:href="#f7jJykWF9" opacity="1" fill="url(#gradienthbzW98TcYn)"></use><g><use xlink:href="#f7jJykWF9" opacity="1" fill-opacity="0" stroke="#000000" stroke-width="1" stroke-opacity="0"></use></g></g><g><use xlink:href="#b7jmiyC2y" opacity="1" fill="url(#gradienta4dZykHy8C)"></use><g><use xlink:href="#b7jmiyC2y" opacity="1" fill-opacity="0" stroke="#000000" stroke-width="1" stroke-opacity="0"></use></g></g></g></g></svg>