<?xml version="1.0" standalone="no"?>
<!DOCTYPE svg PUBLIC "-//W3C//DTD SVG 20010904//EN"
 "http://www.w3.org/TR/2001/REC-SVG-20010904/DTD/svg10.dtd">
<svg version="1.0" xmlns="http://www.w3.org/2000/svg"
 width="769.000000pt" height="769.000000pt" viewBox="0 0 769.000000 769.000000"
 preserveAspectRatio="xMidYMid meet">
<metadata>
Created by potrace 1.14, written by Peter Selinger 2001-2017
</metadata>
<g transform="translate(0.000000,769.000000) scale(0.100000,-0.100000)"
fill="#000000" stroke="none">
<path d="M4205 6842 c-2 -2 -4 -120 -5 -261 -1 -141 -2 -392 -3 -559 -2 -199
1 -306 8 -311 5 -4 217 -8 470 -10 253 -1 496 -3 540 -4 l80 -2 2 -70 c3 -147
15 -2080 17 -2710 l1 -660 -28 -56 c-56 -115 -150 -190 -266 -213 -36 -7 -195
-11 -436 -10 -209 0 -382 -3 -385 -8 -4 -4 -5 -153 -3 -330 1 -178 3 -425 3
-550 l2 -228 36 0 c274 -2 1580 2 1617 6 336 29 585 157 747 384 88 124 145
260 193 465 l23 100 -2 685 c-1 377 0 693 2 702 4 16 27 18 271 20 l266 3 2
377 1 378 -271 2 -272 3 -2 1380 c-1 759 -2 1401 -2 1426 l-1 46 -767 2 c-423
2 -1008 3 -1301 5 -293 1 -535 0 -537 -2z"/>
<path d="M2047 6834 c-1 -1 -33 -5 -72 -8 -96 -8 -260 -50 -334 -86 -34 -17
-64 -30 -67 -30 -6 0 -113 -69 -131 -85 -187 -166 -277 -326 -324 -580 -17
-93 -18 -168 -18 -1055 0 -525 0 -967 -1 -982 l0 -27 -352 0 c-209 0 -354 -4
-357 -10 -5 -7 -6 -712 -2 -743 1 -4 162 -9 358 -10 l357 -3 2 -620 c1 -566 6
-769 19 -858 2 -18 7 -54 10 -81 15 -138 66 -274 138 -368 55 -71 108 -118
312 -276 53 -41 214 -114 315 -144 151 -43 205 -46 1033 -47 l787 0 1 37 c2
151 0 1115 -3 1117 -2 2 -199 5 -438 8 -475 6 -499 8 -627 68 -75 36 -153 118
-182 192 -20 51 -20 65 -16 667 3 338 7 822 10 1075 3 253 7 670 10 927 2 258
8 480 11 495 13 55 69 145 116 188 39 35 124 87 148 90 3 1 21 5 40 10 19 5
237 9 484 9 l450 1 2 80 c1 44 5 298 8 565 l7 486 -846 -1 c-465 0 -847 0
-848 -1z"/>
</g>
</svg>
