<?xml version="1.0" standalone="no"?>
<!DOCTYPE svg PUBLIC "-//W3C//DTD SVG 20010904//EN"
 "http://www.w3.org/TR/2001/REC-SVG-20010904/DTD/svg10.dtd">
<svg version="1.0" xmlns="http://www.w3.org/2000/svg"
 width="1470.000000pt" height="1470.000000pt" viewBox="0 0 1470.000000 1470.000000"
 preserveAspectRatio="xMidYMid meet">
<metadata>
Created by potrace 1.14, written by Peter Selinger 2001-2017
</metadata>
<g transform="translate(0.000000,1470.000000) scale(0.100000,-0.100000)"
fill="#000000" stroke="none">
<path d="M0 7350 l0 -7350 7350 0 7350 0 0 7350 0 7350 -7350 0 -7350 0 0
-7350z m13080 5151 c0 -17 -212 -2077 -225 -2186 -16 -137 -225 -2176 -225
-2198 l0 -27 730 0 c466 0 730 -4 730 -10 0 -14 -138 -1347 -146 -1402 l-6
-48 -734 0 c-602 0 -734 -2 -734 -13 0 -15 -292 -2834 -315 -3045 -58 -521
-249 -884 -585 -1108 -145 -96 -291 -157 -494 -204 -231 -55 -182 -53 -1808
-57 l-1508 -4 0 729 0 729 707 6 c388 4 978 7 1309 7 408 0 620 4 656 11 155
33 241 131 282 319 26 120 32 173 101 835 36 347 68 650 70 675 3 25 41 394
85 820 44 426 85 816 90 865 15 128 327 3152 343 3320 16 162 14 314 -4 373
-18 62 -61 108 -124 131 -85 32 -237 41 -697 41 l-428 0 0 730 0 730 1465 0
c1435 0 1465 0 1465 -19z m-4400 -716 l0 -725 -2142 -2 c-2023 -3 -2146 -4
-2195 -21 -147 -50 -210 -162 -248 -441 -16 -117 -646 -6156 -666 -6385 -6
-74 -9 -179 -7 -235 10 -211 79 -279 311 -305 63 -7 519 -11 1332 -11 l1235 0
0 -725 0 -725 -1577 3 -1578 3 -105 26 c-444 111 -774 369 -955 743 -104 216
-145 401 -151 680 l-4 200 143 1380 c79 759 142 1383 140 1388 -2 4 -332 7
-733 7 l-729 0 4 28 c7 36 145 1376 145 1402 0 20 4 20 735 20 531 0 735 3
735 11 0 38 311 3015 320 3064 21 112 72 310 111 428 178 544 510 827 1057
902 78 10 557 13 2460 14 l2362 1 0 -725z"/>
</g>
</svg>
