<svg height='100px' width='100px'  fill="#1890ff" xmlns="http://www.w3.org/2000/svg" viewBox="0 0 32 32" x="0px" y="0px"><title>HTTP</title><g data-name="055 HTTP"><g><polygon points="5 27 2 27 2 24 0 24 0 32 2 32 2 29 5 29 5 32 7 32 7 24 5 24 5 27"></polygon><polygon points="9 26 11 26 11 32 13 32 13 26 15 26 15 24 9 24 9 26"></polygon><polygon points="17 26 19 26 19 32 21 32 21 26 23 26 23 24 17 24 17 26"></polygon><path d="M29,24H25v8h2V30h2a3,3,0,0,0,0-6Zm0,4H27V26h2a1,1,0,0,1,0,2Z"></path><path d="M0,0V22H2V10H30V22h2V0ZM30,8H2V2H30Z"></path><rect x="4" y="4" width="2" height="2"></rect><rect x="8" y="4" width="2" height="2"></rect><rect x="12" y="4" width="16" height="2"></rect></g></g></svg>