<svg height='100px' width='100px'  fill="#ee802f" xmlns="http://www.w3.org/2000/svg" xmlns:xlink="http://www.w3.org/1999/xlink" version="1.1" x="0px" y="0px" viewBox="0 0 50 50" style="enable-background:new 0 0 50 50;" xml:space="preserve"><g><path d="M45.455,0H4.545C2.033,0,0,2.035,0,4.545v40.91C0,47.965,2.033,50,4.545,50h40.909C47.962,50,50,47.965,50,45.455V4.545   C50,2.035,47.962,0,45.455,0z M13.632,40.911c-2.508,0-4.545-2.035-4.545-4.546c0-2.51,2.038-4.545,4.545-4.545   c2.513,0,4.545,2.035,4.545,4.545C18.177,38.876,16.144,40.911,13.632,40.911z M27.273,40.911c-1.256,0-2.277-1.018-2.277-2.274   C24.982,31.104,18.896,25.012,11.364,25c-1.256,0-2.277-1.017-2.277-2.272c0-1.257,1.021-2.272,2.277-2.272   c10.04,0,18.182,8.139,18.186,18.182C29.55,39.893,28.533,40.911,27.273,40.911z M38.636,40.911c-1.261,0-2.277-1.018-2.277-2.274   c-0.022-13.805-11.191-24.974-24.996-25.002v0.004c-1.256,0-2.277-1.019-2.277-2.275c0-1.256,1.021-2.277,2.277-2.277   c16.317,0.005,29.541,13.232,29.545,29.551C40.909,39.893,39.893,40.911,38.636,40.911z"></path></g></svg>