<svg height='100px' width='100px'  fill="#50b9ef" xmlns="http://www.w3.org/2000/svg" xmlns:xlink="http://www.w3.org/1999/xlink" version="1.1" x="0px" y="0px" viewBox="0 0 74.75 64.966" style="enable-background:new 0 0 74.75 64.966;" xml:space="preserve"><g><path d="M27.875,20.097H36v13.119h2.5V20.097h7.875c0.69,0,1.25-0.56,1.25-1.25V1.25c0-0.69-0.56-1.25-1.25-1.25h-18.5   c-0.691,0-1.25,0.56-1.25,1.25v17.597C26.625,19.537,27.184,20.097,27.875,20.097z M29.125,2.5h16v15.097h-16V2.5z"></path><path d="M46.5,44.869h-8v-4.653H36v4.653h-8c-0.691,0-1.25,0.56-1.25,1.25v17.597c0,0.69,0.559,1.25,1.25,1.25h18.5   c0.69,0,1.25-0.56,1.25-1.25V46.119C47.75,45.429,47.19,44.869,46.5,44.869z M45.25,62.466h-16V47.369h16V62.466z"></path><path d="M73.5,44.869h-8v-7.563c0-0.69-0.56-1.25-1.25-1.25H10c-0.691,0-1.25,0.56-1.25,1.25v7.563h-7.5   c-0.691,0-1.25,0.56-1.25,1.25v17.597c0,0.69,0.559,1.25,1.25,1.25h18.5c0.69,0,1.25-0.56,1.25-1.25V46.119   c0-0.69-0.56-1.25-1.25-1.25h-8.5v-6.313H63v6.313h-8c-0.691,0-1.25,0.56-1.25,1.25v17.597c0,0.69,0.559,1.25,1.25,1.25h18.5   c0.69,0,1.25-0.56,1.25-1.25V46.119C74.75,45.429,74.19,44.869,73.5,44.869z M18.5,62.466h-16V47.369h16V62.466z M72.25,62.466h-16   V47.369h16V62.466z"></path></g></svg>